<mxfile host="Electron" agent="Mozilla/5.0 (Windows NT 10.0; Win64; x64) AppleWebKit/537.36 (KHTML, like Gecko) draw.io/26.0.9 Chrome/128.0.6613.186 Electron/32.2.5 Safari/537.36" version="26.0.9">
  <diagram id="Ht1M8jgEwFfnCIfOTk4-" name="Page-1">
    <mxGraphModel dx="1709" dy="981" grid="1" gridSize="10" guides="1" tooltips="1" connect="1" arrows="1" fold="1" page="1" pageScale="1" pageWidth="1100" pageHeight="850" math="0" shadow="0">
      <root>
        <mxCell id="0" />
        <mxCell id="1" parent="0" />
        <mxCell id="sY0r-H6f3rgbmZUliDn9-2" value="&lt;b&gt;VPC&lt;/b&gt;" style="sketch=0;outlineConnect=0;gradientColor=none;html=1;whiteSpace=wrap;fontSize=12;fontStyle=0;shape=mxgraph.aws4.group;grIcon=mxgraph.aws4.group_vpc;strokeColor=#879196;fillColor=none;verticalAlign=top;align=left;spacingLeft=30;fontColor=#879196;dashed=0;" vertex="1" parent="1">
          <mxGeometry x="80" y="80" width="640" height="360" as="geometry" />
        </mxCell>
        <mxCell id="sY0r-H6f3rgbmZUliDn9-25" style="edgeStyle=orthogonalEdgeStyle;rounded=0;orthogonalLoop=1;jettySize=auto;html=1;" edge="1" parent="1" source="sY0r-H6f3rgbmZUliDn9-4" target="sY0r-H6f3rgbmZUliDn9-5">
          <mxGeometry relative="1" as="geometry" />
        </mxCell>
        <mxCell id="sY0r-H6f3rgbmZUliDn9-4" value="Application Load Balancer" style="sketch=0;outlineConnect=0;fontColor=#232F3E;gradientColor=none;strokeColor=#ffffff;fillColor=#232F3E;dashed=0;verticalLabelPosition=middle;verticalAlign=bottom;align=center;html=1;whiteSpace=wrap;fontSize=10;fontStyle=1;spacing=3;shape=mxgraph.aws4.productIcon;prIcon=mxgraph.aws4.application_load_balancer;" vertex="1" parent="1">
          <mxGeometry x="170" y="125" width="80" height="110" as="geometry" />
        </mxCell>
        <mxCell id="sY0r-H6f3rgbmZUliDn9-6" value="Amazon RDS" style="sketch=0;outlineConnect=0;fontColor=#232F3E;gradientColor=none;strokeColor=#ffffff;fillColor=#232F3E;dashed=0;verticalLabelPosition=middle;verticalAlign=bottom;align=center;html=1;whiteSpace=wrap;fontSize=10;fontStyle=1;spacing=3;shape=mxgraph.aws4.productIcon;prIcon=mxgraph.aws4.rds;" vertex="1" parent="1">
          <mxGeometry x="520" y="300" width="80" height="100" as="geometry" />
        </mxCell>
        <mxCell id="sY0r-H6f3rgbmZUliDn9-10" value="&lt;font style=&quot;color: rgb(135, 145, 150);&quot;&gt;&lt;b&gt;AWS Cloud&lt;/b&gt;&lt;/font&gt;" style="points=[[0,0],[0.25,0],[0.5,0],[0.75,0],[1,0],[1,0.25],[1,0.5],[1,0.75],[1,1],[0.75,1],[0.5,1],[0.25,1],[0,1],[0,0.75],[0,0.5],[0,0.25]];outlineConnect=0;gradientColor=none;html=1;whiteSpace=wrap;fontSize=12;fontStyle=0;container=1;pointerEvents=0;collapsible=0;recursiveResize=0;shape=mxgraph.aws4.group;grIcon=mxgraph.aws4.group_aws_cloud;strokeColor=#879196;fillColor=none;verticalAlign=top;align=left;spacingLeft=30;fontColor=#232F3E;dashed=0;" vertex="1" parent="1">
          <mxGeometry x="800" y="40" width="280" height="280" as="geometry" />
        </mxCell>
        <mxCell id="sY0r-H6f3rgbmZUliDn9-12" value="Amazon ECR" style="sketch=0;outlineConnect=0;fontColor=#232F3E;gradientColor=none;strokeColor=#ffffff;fillColor=#232F3E;dashed=0;verticalLabelPosition=middle;verticalAlign=bottom;align=center;html=1;whiteSpace=wrap;fontSize=10;fontStyle=1;spacing=3;shape=mxgraph.aws4.productIcon;prIcon=mxgraph.aws4.ecr;" vertex="1" parent="sY0r-H6f3rgbmZUliDn9-10">
          <mxGeometry x="100" y="90" width="80" height="100" as="geometry" />
        </mxCell>
        <mxCell id="sY0r-H6f3rgbmZUliDn9-11" value="&lt;font style=&quot;color: rgb(135, 145, 150);&quot;&gt;&lt;b&gt;AWS Cloud&lt;/b&gt;&lt;/font&gt;" style="points=[[0,0],[0.25,0],[0.5,0],[0.75,0],[1,0],[1,0.25],[1,0.5],[1,0.75],[1,1],[0.75,1],[0.5,1],[0.25,1],[0,1],[0,0.75],[0,0.5],[0,0.25]];outlineConnect=0;gradientColor=none;html=1;whiteSpace=wrap;fontSize=12;fontStyle=0;container=1;pointerEvents=0;collapsible=0;recursiveResize=0;shape=mxgraph.aws4.group;grIcon=mxgraph.aws4.group_aws_cloud;strokeColor=#879196;fillColor=none;verticalAlign=top;align=left;spacingLeft=30;fontColor=#232F3E;dashed=0;" vertex="1" parent="1">
          <mxGeometry x="40" y="40" width="720" height="560" as="geometry" />
        </mxCell>
        <mxCell id="sY0r-H6f3rgbmZUliDn9-7" value="Amazon Route 53" style="sketch=0;outlineConnect=0;fontColor=#232F3E;gradientColor=none;strokeColor=#ffffff;fillColor=#232F3E;dashed=0;verticalLabelPosition=middle;verticalAlign=bottom;align=center;html=1;whiteSpace=wrap;fontSize=10;fontStyle=1;spacing=3;shape=mxgraph.aws4.productIcon;prIcon=mxgraph.aws4.route_53;" vertex="1" parent="sY0r-H6f3rgbmZUliDn9-11">
          <mxGeometry x="130" y="430" width="80" height="110" as="geometry" />
        </mxCell>
        <mxCell id="sY0r-H6f3rgbmZUliDn9-5" value="Amazon ECS" style="sketch=0;outlineConnect=0;fontColor=#232F3E;gradientColor=none;strokeColor=#ffffff;fillColor=#232F3E;dashed=0;verticalLabelPosition=middle;verticalAlign=bottom;align=center;html=1;whiteSpace=wrap;fontSize=10;fontStyle=1;spacing=3;shape=mxgraph.aws4.productIcon;prIcon=mxgraph.aws4.ecs;" vertex="1" parent="sY0r-H6f3rgbmZUliDn9-11">
          <mxGeometry x="480" y="90" width="80" height="100" as="geometry" />
        </mxCell>
        <mxCell id="sY0r-H6f3rgbmZUliDn9-18" style="edgeStyle=orthogonalEdgeStyle;rounded=0;orthogonalLoop=1;jettySize=auto;html=1;" edge="1" parent="1" source="sY0r-H6f3rgbmZUliDn9-14" target="sY0r-H6f3rgbmZUliDn9-12">
          <mxGeometry relative="1" as="geometry" />
        </mxCell>
        <mxCell id="sY0r-H6f3rgbmZUliDn9-36" style="edgeStyle=orthogonalEdgeStyle;rounded=0;orthogonalLoop=1;jettySize=auto;html=1;" edge="1" parent="1" source="sY0r-H6f3rgbmZUliDn9-14">
          <mxGeometry relative="1" as="geometry">
            <mxPoint x="770" y="469" as="targetPoint" />
          </mxGeometry>
        </mxCell>
        <mxCell id="sY0r-H6f3rgbmZUliDn9-14" value="" style="sketch=0;outlineConnect=0;fontColor=#232F3E;gradientColor=none;fillColor=#879196;strokeColor=none;dashed=0;verticalLabelPosition=bottom;verticalAlign=top;align=center;html=1;fontSize=12;fontStyle=0;aspect=fixed;pointerEvents=1;shape=mxgraph.aws4.source_code;" vertex="1" parent="1">
          <mxGeometry x="911.5" y="430" width="57" height="78" as="geometry" />
        </mxCell>
        <mxCell id="sY0r-H6f3rgbmZUliDn9-22" value="" style="edgeStyle=orthogonalEdgeStyle;rounded=0;orthogonalLoop=1;jettySize=auto;html=1;" edge="1" parent="1" source="sY0r-H6f3rgbmZUliDn9-19" target="sY0r-H6f3rgbmZUliDn9-7">
          <mxGeometry relative="1" as="geometry" />
        </mxCell>
        <mxCell id="sY0r-H6f3rgbmZUliDn9-19" value="" style="strokeWidth=1;shadow=0;dashed=0;align=center;html=1;shape=mxgraph.mockup.containers.browserWindow;rSize=0;strokeColor=#666666;strokeColor2=#008cff;strokeColor3=#c4c4c4;mainText=,;recursiveResize=0;" vertex="1" parent="1">
          <mxGeometry x="40" y="640" width="410" height="200" as="geometry" />
        </mxCell>
        <mxCell id="sY0r-H6f3rgbmZUliDn9-20" value="Page 1" style="strokeWidth=1;shadow=0;dashed=0;align=center;html=1;shape=mxgraph.mockup.containers.anchor;fontSize=17;fontColor=#666666;align=left;whiteSpace=wrap;" vertex="1" parent="sY0r-H6f3rgbmZUliDn9-19">
          <mxGeometry x="60" y="12" width="110" height="26" as="geometry" />
        </mxCell>
        <mxCell id="sY0r-H6f3rgbmZUliDn9-21" value="https://orb.khoah.com" style="strokeWidth=1;shadow=0;dashed=0;align=center;html=1;shape=mxgraph.mockup.containers.anchor;rSize=0;fontSize=17;fontColor=#666666;align=left;" vertex="1" parent="sY0r-H6f3rgbmZUliDn9-19">
          <mxGeometry x="130" y="60" width="250" height="26" as="geometry" />
        </mxCell>
        <mxCell id="sY0r-H6f3rgbmZUliDn9-29" value="" style="shape=image;imageAspect=0;aspect=fixed;verticalLabelPosition=bottom;verticalAlign=top;image=data:image/png,iVBORw0KGgoAAAANSUhEUgAABMUAAAHNCAYAAAAexcyrAAAAAXNSR0IArs4c6QAAAARnQU1BAACxjwv8YQUAAAAJcEhZcwAADsMAAA7DAcdvqGQAALa4SURBVHhe7P15eBvneS7+38AMZrATJMF9p0hRuyxLlmzLsrM1+96kzd493dLT9vT01/NtT5s0XU7b09PTJWnadE2bpW2apNn3xLasyLJly9pFiRIlUqS4gCBA7APM4PcHyCFmRNKURGKw3J/r0mXMOw9I6RkaIG++7zu23v7BPIiIiIiIiIiIiGqI3TxARERERERERERU7RiKERERERERERFRzWEoRkRERERERERENYehGBERERERERER1RyGYkREREREREREVHMYihERERERERERUc1hKEZERERERERERDXH1ts/mDcP3ot8fkM/HBERERERERER0brYbDbz0Ko2LBTL5/OwCwJEQYQg2AGbHev/axAREREREREREd25PADkNaiqhpyag6aq6wrH7nn5ZD6fRz6fhyTJcMpOiKIIGwMxIiIiIiIiIiIqARsAm80OURThlJ2QJFnPq9ZyT6HY0gdfCsOIiIiIiIiIiIistBSO4UW2+bqnUAwAJEmGXRDMw0RERERERERERJawCwIkSTYPG9x1KKbvIcYZYkREREREREREVGZEUYRdEFadLXbXoRgAiAIDMSIiIiIiIiIiKk9rZVd3FYotJWx24a6eTkREREREREREtOmWsquVZovdU6pls93T04mIiIiIiIiIiDbNWtnV6mfWwWYeICIiIiIiIiIiKhNrZVf3FIoRERERERERERFVIoZiRERERERERERUcxiKERERERERERFRzWEoRkRERERERERENYehGBERERERERER1RyGYkREREREREREVHMYihERERERERERUc1hKEZERERERERERDWHoRgREREREREREdUchmJERERERERERFRzGIoREREREREREVHNYShGREREREREREQ1h6EYERERERERERHVHIZiRERERERERERUcxiKERERERERERFRzWEoRkRERERERERENYehGBERERERERER1RyGYkREREREREREVHMYihERERERERERUc1hKEZERERERERERDWHoRgREREREREREdUchmJERERERERERFRzGIoREREREREREVHNsfX2D+bNgy8mny88xe32mE8RERER6bq7OtDT3WkYy2QUnD5zHhlFgc/nxa6d2zAxcQtj4xOGumLrrbsb24YG0BRs1I9nQ3O4NDxiqCkWbGzA9m2DuHjpCkJzYfNpgxf795tt1r/T/PeILsRw4eIwcjnVULdRZEnC3j07IcuS+RSiCzGMjU9g+7bBDf93EhEREa0kmUwAAGw2m2GcoRgRERFtmu6uDnR0tOHc+UuIxeIQRQE7tg/BKcurBkOlstLfZSnMSWcyq4ZGdxqKFf/7l0Kv+fnImsHbRto2NID6+oBl12ApkFtPv4iIiIg2w2qhmBCob/yQYeQOOBy3//aPiIiIaEldnR9+vw8zsyEoigJNyyOZSqG1tRmapkHL57H//j2w22yGx9GFGGRJwv59e+DzeZFRFMO5bUMD6O/rgdvtxs7tW9HR0YZodAHKYsDT3dWBPbt3oKe7E4FAHebCYWia8feADfX16Oxow5WRa4jF4wAAVVWRySjo7GhDPJ6AIArYf/8eBPw+bNnSh4b6ABKJJIKNDQCA7dsG0dPdCbfbtWLgY/73K4oCr8cNv8+HUCiMwYE+9Pf1oLGxAVsH+5HP57Fzx5D+78RiqLX0eYr/LcHGBuy/fw96ujvR2tKMUCgMVTWGeD6fFz3dnZiYuIXZ2TkAWPMamPsemguv+nmWxt1uF7ZvG1yzB4E6P0KhMJKpFLD491r6nOl0Bvv37UF9oA6trS3YOtiP1pZm5PPAfXt36jPclvqx2t+HiIiIaDXZbBZYIRTjnmJERERUUkpGgZpT4Xa7DOOpVAqJRFIf9/m8kGUJodDtQQsAyLKE+fkInnn2FNScio72VmAxNFmamfTMs6fglGUMbOkzPx3BYANyqnrbTKmMoiCnGv9+dkHAsydP4czZC9A0TR8/euwEbozdRFOwUQ/K7pQsS5icnMLRYycQiS4YznV3dcDv8+GZZ0/hhTPn4fG40d7WCp/Pi8HBftwYu4njJ04inclgaGgAoigYnl8fqIMoCEgmC2HUkuJrsFbf1/t5jh47cc8z39xuN4aHR3Dx0hXIsoRgsAHHT5zEbGgOHR1t8Pm86/77EBEREa0HQzEiIiIqC7mcikgkCr/PB1kqhCKZjIJYrDCLy2wp0FI1FelMBpIkQRQFw/MyioKFWEw/Z6bmVCgZYyi2UmgXiURvW0q5FNZNT88ik1EQDL54KObzeVFfH8BCLKaHcav9G0VRQCBQp9fGYnEcf/okxsYnUB+oAwDML/69IpEonLIMwX77v3Gl4K+4Z1j8963U9/V8ntVCyzu19O9cCiWXel4c6K3n70NERES0XgzFiIiIqGzMR6IQRAGNjQ3w+3yG8MhspUBLFERIkgRZlnDwgX04cvgQmoKNqwYngihAMm0GL8kSBPH22VV3SxQE3LdnJ44cPoT79uxEIpHEyNVRc9ltBLsApyybhwEAbrfL8HF7ujtX/Ldg8fPLi+HXkqWPrSgKcjl11b7fyecphXL7+xAREVFlYyhGREREJbVW6LS0lK+zoxWCKNzxLKScmoOiKMhkFDzz7CkcPXYCR4+dwDMnT90WroVC4RUDI1mSVlxyeLdyqooXzpzX/y5nzl64bdbZSswz4Iolk6nbPu7xp0/eNuNsPhK9bSkoVrgGq/V9vZ+nVMrt70NERESVjaEYERERlVRHeyvUnIrp6VnzKX1JnCzLUHPqXYUdoVAYsiwV9saSJBw8sA/bhgbMZYhEo4guxDA42A+fzwssLm8cHOxHdCGGSDRqfopBe3srRFFAS0vTmnuf3a2lXng8brhcLsO/ZT5S+LvVB+ogigL27N6BPbt33BaexWJxzM9H0NPdqe95JksStg8NGq7Ban1f7+cplXL7+xAREVFlYyhGREREm6p4uduRw4fg9/lw+sz522ZuLVma3bTW0sm1hObCuDF2E9u3DeLgA/uQzmRWXK6Yy6k4c/YC5ucjhuWN8/ORdc3mUhQFDx06gJ7uTtwYu7ninRfv1dj4hP73K/63xGJxXLlyDT3dnXjo0AE4ZRnDwyMr/p0vDY/o/Thy+JD+cZ5/4Yyhvyv1/U4+TymU29+HiIiIKputt3/QeH/ydcjnC09xuz3mU0RERERERERERGUjmUwAAGw2m2GcM8WIiIiIiIiIiKjmMBQjIiIiIiIiIqKaw1CMiIiIiIiIiIhqDkMxIiIiIiIiIiKqOQzFiIiIiIiIiIio5jAUIyIiIiIiIiKimsNQjIiIiIiIiIiIag5DMSIiIiIiIiIiqjkMxYiIiIiIiIiIqOYwFCMiIiIiIiIioprDUIyIiIiIiIiIiGoOQzEiIiIiIiIiIqo5DMWIiIiIiIiIiKjmMBQjIiIiIiIiIqKaw1CMiIiIiIiIiIhqDkMxIiIiIiIiIiKqOQzFiIiIiIiIiIio5jAUIyIiIiIiIiKimsNQjIiIiIiIiIiIag5DMSIiIiIiIiIiqjm23v7BvHnwxeTzhae43R7zKSIiIqJ7Itb5zUNlLRddMA8RERERURlJJhMAAJvNZhhnKEZERERlRWpvR+dv/YZ5uCwpExO4+Yd/Yh4mIiIiojKyWijG5ZNERERERERERFRzOFOMiIiIykrxTLFcJGI+XRbEQABYY6bYtqEBNAUbDWOZjILTZ84joyiGcVEUsGP7ECYnpxCaCxvO3a3urg4AwNj4hPnUXSv+e8ZicezcMYQrV0cRi8XNpasKNjagv68Hp8+ch8/nRTDYgEvDI+YyIiIiog212kwxhmJERERUVopDMeXmBK7/3h+YSywldXSg93d+C3iRUAyAIfDp7uqA2+3a9BDI5/Oip6sDly6PIJdTzafv2kaHYhlFwbahAYRC4Q0LA4mIiIhWslooJgTqGz9kGLkDDodkHiIiIiK6J4LPB/+jjwAA1IUYIk8eNZdYSvD7EXjsUQCAGoth4egxcwmCwQYAMIQ9DocDgUAdotEF7NgxhM6ONgxs6UU6ncGWLb1QVRXJVAqyJGH/vj3o7+tBa0szQqEwVFWFz+fF/vv3oK+nyzBu1t/XjZnZOcQTSWAxJDM/z2YDdu3cbvice3fvQDyRhKIo6O7qwJ7dO9DT3YmOjjZEowvI5XJoagoikUiit7drcaZXI6LRBWiail07t2PrYD96ujuRTKaQTKVu+/wAIMsypqdnoaoqMoqCzvZWhOcj0LQ7/j0tERER0bpks1lghVCMe4oRERERlUAw2ABFUZBTcwCARDKJo8dOIDw/r9eIooChoQFcG72Bo8dOYGp6Bn193ZAlCduHBnHlyjUcPXYCC7EYhoYGIIpC0WcAZEmCJEn67K3VngcAw8MjaG9vhSxJaGlpQmgujFgsjmBjA1pbmvHMs6dw9NgJzM9H0NHeqn8OTdMwPDyCRCKJc+cvIRaLY2BLHxRFwdFjJ3Dx0hUMDvbD5/Pqn39i4haOHjuhf4wlqcXgzOVymU8RERERbTqGYkRERESboCnYiCOHD+l/JEnCyNVR/XwyWQiEirlcLoiCoIdaY+MTuDQ8Ap/PCwD6+MTkFERBgGA3hmKSLEFTVahaYQbZWs/LKAomJ6ewd88O+H1eTN6aAhZntz1z8pS+99lKf89isiTB7/MhFCrMiotEo0gkkoWATpaQy+UwPT0LLH7+XK4QCgJALqcip6qQJa4+ICIiotJjKEZERES0CWZDczh67IT+58zZC4Y9vlYKm2RJgiiK5mEAgCxLOPjAPhw5fAj37dkJ2SlDko1hkixJsAum2WNrPC8SjSKdUTA1Pav/3URRwJ7dO/Qwr6e70/DxVrN92yCOHD6Ehw4dQJ3fB7fbtea/h4iIiMhqDMWIiIiIykRGUQwzqYpFF2I4fuKkHrIdf/rkbZvcZxQFmmmfsbWe197WilQqrS+jXBoDoD/nxthNw8dbSS6XwwtnzhtCwLHxiTX/PURERERWYyhGREREVCaUjAJRFPVlj0sb3ieTKThlGYG6On384IF9ty07VDIK7EXLKmOx+KrP8/m88Pu8GL1+A5OTU+jr6zZ8LCzOPGttaTYPG2QUBclUSt93zOfz4qEHDyDY2IBUKoWcqqKlpQkA0NHeapg5JooCRKGwlJOIiIio1BiKEREREZWJjKLg4nBho/ojhw+htaUZw8MjSKZShvGOjjZcHL5yW5iUURQoiqKHauaPt/Q8ABjc0ocb4xPI5VT9LpndXR2Ynp6FU5bx0KED2LtnJ25O3IIkSRCF5TBL1Qp7ge3auQ0+nxcjV0chSZK+RHNi4hZCc2HkcipGr4+ho6MNRw4fgqpqSGcy+sdZ2mB/acN9IiIiolKy9fYP3vH9r/P5wlPcbo/5FBEREdE9kdrb0flbvwEAUG5O4OZffsRcYim714ve3/ktAIAyMYGbf/gn5hJL+Xxe9HR14NLlEcMeZuVo29AAQqGwHsoRERERbYZkMgEAsNlshnGGYkRERFRWikOxcleOoRgWZ3xh8e6V5SrY2IBgsAGXhkfMp4iIiIg21GqhGJdPEhEREVWZsfGJsg7EACA0F2YgRkRERJbiTDEiIiIqK1J7O1p/8efMw2VJS8TLcqYYERERES1bbaYYQzEiIiIiIiIiIqpaq4ViXD5JREREREREREQ1h6EYERERERERERHVHC6fLGPdXR0IBOpw4eIwcjkVPp8Xu3ZugygIAIBMRsHpM+eRURTIkoS9e3ZCliVEF2L6c4iIiIiIiIiIahmXT1YYn8+Ljo42w5gsSUgkkjh+4iSOHjuBZ06eQkZRIIoChoYGMDU9g6PHTkBRFAxs6TM8l4iIiIiIiIiIljEUK0OiKKCnqwOxhZhh3O12QVGU22aACXYBoiBgPhIFAIRCYfh9PsiSZKgjIiIiIiIiIqIChmJlqL2tFTlVxUIsbhh3u11oCjbiyOFDOHL4EIKNDQAASS6EX0pGAQBkFAVAXh8nIiIiIiIiIiIjhmJlRpYkBAJ1GB0dM4yLogBJknBj7CaOHjuBi5euYHCwHz6fF7IkQRRFQz0REREREREREa2OG+2XmW1DAwiFwgjNhW/baL+YKArYsX0IkUgU85EoBrf04fyFYWQUBT6fF9uHBnBxeASxxdlmmqZB01bfeF9TNdgFZqRWYf+tx2tgLfbfWuy/tdh/a7H/1uM1sBb7by3231rsv7U0VYMky+bhTbHaRvsMxcpI8R0ki610N8mlUGxycgqxWBw7dwzhytVRxGJxBBsb0N/Xo9+Zcj3S6RScTpd5mEokl8tCFB3mYSohXgNrsf/WYv+txf5bi/23Hq+Btdh/a7H/1mL/rVXK/q8WijESLSMZRcEzJ0/h6LETOHrsBG6M3dQDMcEu4P77dsPn8wIAAnV1cMoyYrE4VE1FTlVRH6gDAASDDViIxdYdiBERERERERER1RqGYhUioyi4cnUUu3Zuw5HDhzA42I+Lw1eQWbwb5fDwCFpbmnHk8CFIkoSRq6PmD0FERERERERERIu4fJIALp+0XCmnjdLKeA2sxf5bi/23FvtvLfbferwG1mL/rcX+W4v9t1Yp+7/a8kmGYgQwFLNcKV8M7oogQPC4IXi9EDweCF4vbF4PBPfimNcDu8cLweOG3bt4XpaRT6eRz2SgZjLIpzPQMhnk02moGQXIZKCm09AyGWSu34AyNg41XrgxhBXK/hpUOfbfWuy/tdh/a7H/1uM1sBb7by3231rsv7VK2X+GYrQmhmLWKuWLwXo4Wprh7OuF3N8PZ18vpPY2c8mmyE7PIHPjBtI3xqFMTEAZvwktnTaXbYpyuwa1hv23FvtvLfbfWuy/9XgNrMX+W4v9txb7b61S9p+hGK2JoZi1SvlicBtBgLOvF84t/ZB7uiH39kCsK9y0wWp5TUPmxhiUiQmkr1xF4sxZ5DfpBhKWXgNi/y3G/luL/bcW+289XgNrsf/WYv+txf5bq5T9ZyhGa2IoZq1SvhiIdXWQe3sg9XTDuRiC2Z1Oc9lt1FQKWjwBNR6HGo8XHicSUGMxqInEbefy6TRsTifsTidsThl2pxN2eem/UuG/TieEhnpIHR2QO9phkyTzpzVQIxEkzpxD8sxZJC9eMp++J6W8BnQ79t9a7L+12H9rsf/W4zWwFvtvLfbfWuy/tUrZf4ZitCaGYtba7BcDu8sFz97d8OzZA/fe3ebTt9M0pG+MIX31GtIjV5EeuQotlTJXbThHWyvk9nZIHe1wtLdB7uiA2FBvLgMAKBOTSJw5i+TZc8jcGDOfvmObfQ1obey/tdh/a7H/1mL/rcdrYC3231rsv7XYf2uVsv8MxWhNDMWstVkvBq4d2+HduxvuPbsh+P3m0zotFkN6bByZG2NILYZgUFVzmSXEpiBc/f3w3LcX7j27zKcBAKnLV5A8ew7xZ5+DGouZT6/LZl0DWh/231rsv7XYf2ux/9bjNbAW+28t9t9a7L+1Stl/hmK0JoZi1trIFwOpswPuPbvh3bsHUmeH+TQAQJmehnJjDOkb48jcuIHM6HVzSVmS2tvguW8vPKv823JzYUSfeBLR7z8BaJr59Jo28hrQnWP/rcX+W4v9txb7bz1eA2ux/9Zi/63F/lurlP1nKEZrYihmrXt9MRD8/sUgbDdcO7abTwMA1Pl5xF84jcQLZwozwSqce9dOePYVAjK7y/i1mxkbx8ITTyL29DOG8bXc6zWge8P+W4v9txb7by3233q8BtZi/63F/luL/bdWKfvPUIzWxFDMWnf7YuBe3CfMs3f3bcHQkuSZs0gshmFaJmM+XfGEOj889+2F/+GHbps9lrp0GQuPP4HE2XOG8ZXc7TWgjcH+W4v9txb7by3233q8BtZi/63F/luL/bdWKfvPUIzWxFDMWnf6YuB7+CH4jxyG3N1lPgUAUCYnkXjhDBKnTkOZnDSfrko2UYT/0UdQ99gRiMGg4Vzi+VOIPv4k0levGcaL3ek1oI3F/luL/bcW+28t9t96vAbWYv+txf5bi/23Vin7z1CM1sRQzFrrfTHwPXgQ/kcOQ+7rNZ+ClskUgrAXTiN55qz5dM0QPG74H3sUdY8+ArvPZzgX/c73MPeFLxrGlqz3GtDmYP+txf5bi/23FvtvPV4Da7H/1mL/rcX+W6uU/WcoRmtiKGatF3sx8B58AP5HHoZzS7/5FNIjV5F44QziL5yGOj9vPl2zxMYG1D36CHyPPQq7Y7m3yXPnMfe5LyA7M2uof7FrQJuL/bfWevpvdzlhk52wu5wQnE5k5yNQIxFzGd2F9fSfNg/7bz1eA2ux/9Zi/63F/lurlP1nKEZrYihmrdVeDLwH9sN/5DCcA1vMp5A4ew6xY8eRXMd+WbVMam+D/7Ej8D9yWB/LhkKY+9wXkDyz3LvVrgGVBvtvrZX6b3c64dm7p7B34d49hnNLlFtTSF28hPToKNLXrjMku0sr9Z9Kh/23Hq+Btdh/a7H/1mL/rVXK/jMUozUxFLOWvbEBNlXTf6D03H8f/I8chmtoq7mUYdhd8j38EIJvfytskqSPhb/4ZUS+9R04Ghuhaiq0ef5Ab5VSviGSkU2WYff7oEWiyGezcG3bCt9DD8K9ayfsTqe5fE0LTz6F6JNHkb01ZT5Fa+DXv7XYf+vxGliL/bcW+28t9t9apew/QzFaE0Mxa3juvw8Nb3oj8rkcBI8b6nwEaiYD1+CAuZRh2AZwDmxB8G1vhdTVqY+psTjyqop8Lgstk0H4P7+A1OUrhufR5ivlGyIta3jLmxB4+UuRuTUFqa0Vyo0xyL095jJdZvwm7E4nHE3Gm1kUyyuKHo7l5sLm07QCfv1bi/23Hq+Btdh/a7H/1mL/rVXK/jMUozUxFCs9uasLbb/2y5j8yMegqjnUPfQgvPvug+ByGf5HZRi2sQSvB8EffTs89+8D8nlkEwmkr17D7Je+AmdrC1re8y7c/PAfQl1YMD+VNlEp3xCpoP71r4XU3oapT/wr5KGtqH/Fy+Dq6YFdFAEAaiKJ1PnzyNychDI2hvTodeRzOWDxbq+O5iY4mprgaG6CZ/8+yF3Gu+Gq8TiiTxxF5GvfMIzT7fj1by3233q8BtZi/63F/luL/bdWKfvPUIzWxFCs9Brf/lZoShZ5uw3u+/bq4876ekAQGIZtspb3/xRcO7ZDiUaBxdktc5/9PLz37YU2N4fId79vfgptolK+IVJBzx/9Psb/+E/hf8XL4N61E1gMu2S/H7Fnn0PkW99Gdmra/LRV+R95GL5HHr4tHIs98yzm/uM/oaXShnFaxq9/a7H/1uM1sBb7by3231rsv7VK2f/VQjEhUN/4IcPIHXA4lvfmocqWy+VK9sVIBQ1veB3Eri442loN4/lMBrGnfoDQpz6D7MyM4RxtHEcgADWnwiY5YBNF2AQBUnsrsjMzEN0epC4Nm59Cm0jTNNjtgnmYNolNFFH/+tdCQx6ePbv18ezNm5CbmjDxR/8HWrzwjcN6ZcbGEXvqB1AXFiAE6iDW1QEA5I4OOLdsQWb8JtSFmPlpxK9/y7H/1uM1sBb7by3231rsv7VK2f9sNgusEIrZDUdEtOnkvl60/vz7IXd3Qarz6+OpS8MIfeY/YJMkxJ4+YXgObbzMxASkhnrM/N0/QovHAQBiMAj/g4eg3LxpLieqKvlcDloqBf/BB/SxyHe/j9izzyF9bdRQe6cWnvoBJv7oTxH97vf0MeeWfrT+ws/BUzQrloiIiIjIagzFiErEZrej/rWvRvuv/rflpUoOBwRBxMKTR5E4+TwaXvEyJE4+h+w0Z4htttSly8jOziL4htcj8fypwh5JPh/EQAB2n89cTlRVmt75oxC8Xjj8fghOJ+LPn4Itm0Xb+96DyDe/bS6/K3Of/yJmPvFJqLHC7DCxzo+Wn/lJ+A8/ZC4lIiIiIrIEl08SwOWTm861cwea3vNO+A4dhM2+nEXHf/A0crOz8OzYAdeWfiRPn0Hk6980PJc2T+LUaUgtzfDeV7jBgejxwGazwbV1EOmRq8iF581PoU1SyqnTtS749h+G/9FH9GMtEoHUGITodiH02c9t6N1XlYlJpC8Ow9EUhCNYuGOle/cu5LPZe56RVk349W8t9t96vAbWYv+txf5bi/23Vin7v9rySW60TwA32t80gseNwKtfhbqXvcQwnrp8BdFvfQfJi5eAEm8wSCvL5bLo+tVfhmvbEAAgfW0UU3/5UWiLL560ufj/QGk0vOVNCLziZfpx9ImjmPuP/yxJ/1vf/9Nw713evyz81a/zzpSLStF/Wh37bz1eA2ux/9Zi/63F/lurlP3nRvu0Js4U23jeA/vR9N53w7Nnlz6mJhKIfOVrCH3mP5ANhfTxUibktDJN05CdmIT3/vthlySI9fWwOWWkLlw0l9Im4P8Dm6/+ja9H/StfoR8vPPUDzP37Z4ES9T/+3POQ+/vgaCrMGHNtHUQeQPrKiLm05pSi/7Q69t96vAbWYv+txf5bi/23Vin7v9pMMYZiBDAU21COpiAaf/gtaHjDayH4vPp47OlnEPrkZ5A4e85QjxK/GNDKNE0DkimoC1F9M3Bnby+yoTkoE5Pmctpg/H9gcwVe+2o0vOZV+nHs+AmEPv1v+nGp+h9/5iRcQ1shNjQADMZ0peo/rYz9tx6vgbXYf2ux/9Zi/61Vyv4zFKM1MRTbGP5HH0HTe98N10C/PpYZG8PcZz+PyDe/DTVRmLJpVsoXA1rZ0jVQJiZhk2U4+/sAAHJfD5LnL0CLr3ztaGPw/4HN49l3H5re8Xb9OPbsc5j9l08aakrZ/9jTJ+DetRNioA5YCsYUpab3GCtl/+l27L/1eA2sxf5bi/23FvtvrVL2n6EYrYmh2L1xNDai6b3vQuDlL4PdKQMA8rkcIt/4FkL/+mkok2vPNCrliwGtrPgapC9fgXNgCxyNjbA7nXDU1yP+3PPmp9AG4v8Dm8PR2oLmH38f7C4nACBx+gxm/uGfzWUl73/s2HG4tg5CbFycMbZ9G7REApkbY+bSmlDq/pMR+289XgNrsf/WYv+txf5bq5T9Xy0UW74NHhHdFffuXWj9wM/Ds3ePPpZ44TQm/+wvMP/Vr0PL5Qz1VP7ymobw578ILZUCALj37EJ90dIzokrR+NY3Q6wPAACy0zMIf+6/zCWWmfzzv0JmYkI/bvyRt8H30CFDDRERERHRZmIoRnQPAq96JVp/7mfgaG4CAKjxOGb/9dOY/rt/rNkZD9UiMz6Ouc9/UT+uf/1r4dq5w1BDVM4a3/ImuIu+Zuc+/1/Izs0Zaqw28Yd/glx0QT9ues+74N1/v6GGiIiIiGizMBQjugtinR/NP/E+NLzxdfpY+soIpj7yN4g9fcJQS5Ur9oPjiD5xVD9ufMPrYJO4bJzKn+/QA6h7xcv04/AXv4zkufOGmnIx9pu/jbyq6sfNP/lj8OxevmsvEREREdFmYShGdIfc27eh9QO/AO+B/fpY7OgxTH30b5AZHzfUUuUL/9eX9A3Apa5OBF75CnMJUVmRu7vQ8MNv1Y/jz55E5FvfMdSUm9Ff/XXDccvP/Qxc24YMY0REREREG42hGNEdCLz8pWj9wM9Dam8DAOTzecx99vOY/bf/gLa4cR9Vl7yiIPK1b+jHgVe+AnJvj6GGqFzYHA40vvXNEDxuAIAyfhOh//yCuaz8qCpu/OZvG4bafukX9I34iYiIiIg2A0MxonWwezxoeu+70fDWN+tjyq0pTH3kY4g+/oShlqpP8uIlxI4eAwDYBIGzxahsNb71zXAODgAA8qqKuc//F7R43FxWltToAm7+4Z8Yxro//EHYRNEwRkRERES0URiKEb0I58AWtH3g5+F78KA+lnj+FG595GNIXRo21FL1inz3e1AXwwXP3j3wPfSguYTIUt4D++F/9BH9eO7z/4XU5SuGmnKnTEzg1l991DDW8Ru/ZjgmIiIiItooDMWI1lD32BG0feDnIXd36WPzX/sGpv/hn6FGIoZaqm7Z2RCi3/mefhz4oZfD7vUaaoisYnc6UffKl+vHsaPHsPD4k4aaSpG6dBmhz/y7fiy1t6Ppve821BARERERbQQhUN/4IfPgejkcvAvbZuru6kBPTxfmwmFoWt5wbtvQAILBBoTmwgAAWZKwf98e9Pf1IBCoW/E5a8nlchBFh3m4pjW940cQeO2rYRMEAIC6sIDQp/4NC0V3I9womqbBbi98HrLGeq5BZvQ63Du2QwwEIHg9gN2O1MVL5jK6C+vpP62u/rWvhnfffQCA7NQ0Zj7xL8jfwT6H5db/zNg4bA4HnFv6AQByZwfyuRzSV6+ZS6tCufW/1rD/1uM1sBb7by3231rsv7VK2f/s4vfGNpvNMM6ZYmXK5/Oio6OwmbtZsLEBTcFG/VgUBQwNDWBqegZHj52AoigY2NJneA7dmZaf+gn4jhzWj9OXr+DWRz6G+HPPG+qotuTzeUS+WzRb7OUvhWvroKGGqNTkvl4Efmh5lljkW9+BmkgaaipR+ItfRuL5F/Tjhje9gcuWiYiIiGhDMRQrQ6IooKerA7GFmPkUZElCe3srokXnBLsAURAwH4kCAEKhMPw+H2SJM/nuRstP/QQ89xdmXADAwpNP4dZHPgZlYtJQR7Up8fwLiJ98Tj+u46b7ZLH6H3oFYC+8nSeeP4XYiWfMJRVr+h/+CZnxcf246T3vhHv3LkMNEREREdHdYihWhtrbWpFTVSzEbr9jWF9fNyKRKBRF0cckuRB+KZnCWEZRAOT1cVo/cyAW/vJXEfr3zyKvqoY6qm3R7z6OfC4HAHBv3wb/Sx41lxCVhO+hB+HeuxsAkFcUzH/rO+aSijfz9/8MLbk8863pve+G3NtjqCEiIiIiuhsMxcqMLEkIBOowOjpmPgWfzwtREDB5a8owLksSRN6y/p7dFoh94YuIfONbhhoiAMiMjSFavIzyla+Ao3F5STNRKQg+HwJFMxXnv/ltKOM3DTXVIBsKYfof/kk/FjxuNL37HRAb6g11RERERER3ytbbP7j+3dgX5fOFp7jdHvMpukfbhgYQCoURmguju6sDgUAdLlwcLpzbOoAb4xOIxeLYNjQAALg0PAKfz4vBLX04f2EYGUWBz+fF9qEBXBweQWxxtpmmadC01Wc7FTbar91grfOXfhHuXTv14+nP/Aeijz9uqNlMtd7/cnCn18DudqP7N34dUmsLACD65FFMf+oz5jJapzvtPwFNb38b6l/xMgBA6tooxv/P/wU0zVy2LpXQ/7ojj6DlPe/Sj5PnzuPmRz4G5O/u31xOKqH/1Yz9tx6vgbXYf2ux/9Zi/62Vy+XgdLrMw5simUwAK2y0z1CsjMiShL17dkI2LXuMLsQwNj6B7dsGIS7eCXHJbGgOo6Nj2LljCFeujiIWiyPY2ID+vh6cPnN+cSnli0unUyX7Yiw37b/63+Ac2KIfz37yM4gdf9pQs9lyuSzv/mmxu7kGvocfQtO736EfT33s40ieO2+oofW5m/7XMufWQbT/8gf046m//Tskz5wz1NyJSul/wxtfj8Crfkg/Xjh2HKFP/5uhphJVSv+rFftvPV4Da7H/1mL/rcX+W6uU/V8tFBMC9Y0fMozcAYeDe1ZtJFVVMTE5hbHxCYyNTwCLF+zCxWEkkyncvDmpn3O7XUgmU7g0PAKbDWhsbIBtMUDr7u5ARlEwPTNr/hSrKiTkpfliLCed//PXIff16sez//wviJ141lBTCqW8FS2t7G6ugTJ+E3JvLxzNTQAAsaEeseMnzGW0DnfT/1oWfOePwtEUBBaDoeh3lpfz3o1K6X9q+DIcTUFIHR0AALm7CwCQvjJiqqwsldL/asX+W4/XwFrsv7XYf2ux/9YqZf+z2SywQijGPcWqQC6nYnh4BK0tzThy+BAkScLI1VFzGZl0fei3IXV16sfTf/ePiD27fFdBovWIFO0t5tzSD9/DDxnOE20035HDcG/fBgDIRaKIfvPb5pKqNvOJTyJ1+Yp+XP+618D30IOGGiIiIiKi9eBMsTIWXYhhemYWmnb7CtfQXGHfsSXFs8xWe85aam2mWM///j3DJs1TH/vbe1p6dK9KmZDTyu72GuTm5iDW1ekzVgSvp+TLb6vB3fa/1thEEcF3/ShEvx9YvENu6uIlc9kdq7T+J54/Be/++yF43AAA984dUK7fQDYUMpdWhErrf7Vh/63Ha2At9t9a7L+12H9rlbL/nClGtKj3z/4EwuIPlAAw+ZcfRfLcBUMN0Z2IPnVM32vR2d8H78EHzCVEG8J/5DDkxaWDmRtjWHj8SXNJTchns5j6q79GfumbG0FA4zt/BI62VnMpEREREdGqGIpRTen/6F/ALsv68a0//yukhy8baojulDJ+E7Gjx/Rj38NcykUbT3C54H/0iH68UPQ1V4uyc3O49Zcf1Y8djY1oesePwO5yGuqIiIiIiFbDUIxqRufv/Kbh+Naf/xVSFb45M5WPhaPHkM/lAACuwQF49t1nLiG6J/5HH9Fv6pAevc5lugDS10Yx/ff/pB87B7Yg+M4fNdQQEREREa2GoRjVhNb3/zSklhb9eOojH2MgRhtKmZxE7Kkf6Me+w9xwnzaO4PfDf+Swflw8M7HWJU69gNBnP6cfe/ffj6Z3v8NQQ0RERES0EoZiVPUa3vQGuPfu1o/nv/QVJDdgY2ois+hTx6At7nHk3r4N7j27zCVEd8X/6CMQ6gs3B0lfGUHsxDPmkpq28PiTiBTdhdP38ENo/OG3GGqIiIiIiMwYilFV8z14EIFXvkI/jj97EvNFPzgRbaTsrSnT3mKcLUb3ztHYCP+RR/TjhaIZibQs/KWvIP7MSf247mUvQf3rXmOoISIiIiIqxlCMqpbc14vGt71VP06eO4+Zf/5XQw3RRls4egxaOg0A8OzeBdeO7eYSojvif/QRCF4PACA1fBnxk8+ZS2jRzCf+FemRq/px/WtfDe8DBww1RERERERLGIpRVbI7nWj84bfA7nIBANJXr2HqYx83lxFtuOzMDGJPLc8W8/NOlHQPHK0t8D9aPEuMe4m9mMn/95fIzs3px80//l7IXV2GGiIiIiIiMBSjatXwljfB2dcLAFAmb2H2Xz9lLiHaNNGnjkNLpQAAnn33wbV10FxCtC7+R4/AJkkAgOSFi0g8/4K5hFYw/jsfBlRVP+74n/9D7yMRERER0RKGYlR16l7yKPyPPKwfz/3Xl5CdDRlqiDZTbnYWC9xbjO6R3NVlvOMkZ4ndkdFf+w3Dce+f/YnhmIiIiIiIoRhVFdfgABre8ib9eP4rX0Pq/AVDDVEpLDx1DGo8AQDwPrAfzv4+cwnRmjwH7ofNXnibTp47j8Tps+YSWkM+m8X4h/9AP7bZbOj90z821BARERFRbWMoRlVD8LjR8MNvhk0UAQDJ02cx//VvmsuISiI3FzbM7PEd5mwxWj+7ywXfgfv149jTzxjO0/pkp2dw6y8+oh/bXU50/+HvGWqIiIiIqHYxFKOq0fDWt+ibKeciEYS/+GVzCVFJRY8eg7qwAADwPXgIcne3uYRoRZ79+yAEAgAAZWISiVPcS+xupS5fwdTf/J1+LNb50fXB/2WoISIiIqLaxFCMqkLg5S+F78GD+nH4v74MZXraUENUamokgoWnfqAfew8eMJwnWo13//IsscRzzxvO0Z1Lnj2HmX/8hH7saG5C5//3/zPUEBEREVHtYShGFc+1dRANb32zfhz9/uOIP3vSUENkldjxp6Gl0wAA3wP7Ifj95hIiA9fWQf2OpVo2i/hzp8wldBfizz2P2U/9m34sdXag/b//sqGGiIiIiGoLQzGqaDZBQP3rX6sfp69eQ/iLXzHUEFkpF57XQw271wvvA/vNJUQGhlliJ59HNsS7526U2A+OI/TZz+vHzi39aPuVXzLUEBEREVHtYChGFa3+9a+Fc0s/ACCfzyP85a8in82ay4gsVbz8jaEYrUUIBODZv08/jj/PWWIbbeHxJxD+0lf1Y9fgAIMxIiIiohrFUIwqlnvXTgRe+Qr9eP7LX0P6yoihhqgcpIYvI3X5CgBA7uqC5/77zCVEAADfgfthd7kAAOlro0hduGguoQ0Q+ea3EP7S8qzipWBsqfdEREREVBsYilFFsrtcaChaNpk8fwGRb37LUENUTopni/kOcMN9Wpnn/qJZYtxgf1NFvvlthP79s/qxa3AArT/3MxCDQUMdEREREVUvhmJUkRpe/1pIXZ0AAC2dwfxXvmYuISor8ZPPIzc/DwBw790Nua/XXEI1zr1nN+SebgCAFo8jfpKh2GZbePIpzHzik/qxc2ALWn/2p+Ec2GKoIyIiIqLqxFCMKo73/n3wv+RR/Xj+K19DZmzcUENUbrR0Gomiuwj6DnBvMTIyzBI7+Ty0eNxwnjZH/JlnMfXxv9ePpfY2tP78++E7dNBQR0RERETVh6EYVRSxrs5wt8nEqRcQ/f7jhhqiclW8HM77wAGIdXWG81S7pJYWeA8s33WSSydLK3n6LG79xUf0Y7vTiab3vRv1r321oY6IiIiIqgtDMaoo9W94LRwtzQAAdWEBYS6bpAqSGRtH4vQZAIDd44aHd6KkRe79+2Cz2QAAqQsXkb42ai6hTZa6fAXXf/3/g5ZK62P1r3sNmt77btgkyVBLRERERNWBoRhVDN+hB+B76EH9eP4rX0d2atpQQ1TuiveJ8j3ADfepwLt3j/44/vzyMlsqLS2ZxPX/8RtIXrykj/kePIjWX/hZSG2thloiIiIiqnwMxagiiPX1CBQtY4mdeBYLx35gqCGqBInnT0GZnAQASJ0d8O5fXjJHtcm9fRukzg4AgBqLIflCYTYhWWfqIx/D/Ne+oR+7BgfQ+vM/C/eunYY6IiIiIqpsDMWoItS/9lVwBIMAgOzcHOa/8lVzCVHFiJ9cngnEJZTk3rtbf5w4cxZqKmU4T9aY/+rXMfNP/6Ifi40NaP3596PusSOGOiIiIiKqXAzFqOx5H9gP38MP6cfzX/k6cuF5Qw1RJUk89zzy2SwAwLN7F5z9feYSqhF2lxPuPctLJ1NnzxvOk7XiJ5/D5P/7S8M+Y40/8jY0vPXNhjoiIiIiqkwMxaisCX6f4e5fsR8cR/yZZw01RJUmGwoZ9hbzcm+xmuXevRtinR8AkJ2ZQeLsOXMJWSw9chUTf/x/kLo0rI8FXv5StL7/pyF3dxlqiYiIiKiyMBSjslb/utfA0Vy422R2egbzX/26uYSoIiWeWw7FPA/sh1gfMJyn2uApWjqZZCBWtrKzIUz/zd8hduIZfcy9dzfa//svo/5VP2SoJSIiIqLKwVCMypbn/vvgf+Swfjz/1a8jF4kaaogqVfLiJaRHrgIABJcLnvvuM5dQlXM0N8FddNfJBJdOljUtm8Xsv3wK89/8tj5mczhQ/8bXo+1Xfgmuoa2GeiIiIiIqfwzFqCwJXg/qX7O8bHLh6FOIF82sIaoG8VMv6I/du3YYzlH1c+/eDZvNBgDIXL+B9JURcwmVofkvfQVTH/kY0pev6GOuwQG0/bdfRMOb3wi7LBvqiYiIiKh8MRSjslT/mldDam8DACi3pjD/FS6bpOqTPH8RyOcBAK5tQ5Da280lVMWKl05yL7HKkrx4CZN/8RHMfe4LUGMxfTzwQy9H26/+N3ju22uoJyIiIqLyxFCMyo5n7x74X/Kofhz56tehxuOGGqJqkJudRfL8Bf2Ys8Vqh3NLP5xb+vVj3nWyMkW/9zgm/+wvEDv+tD4md3Wi5Wd+EsF3/gjEAPcKJCIiIipnQqC+8UPmwfVyOCTzEG2g7q4O9PR0YS4chqbl4fN5sf/+Pejr6UJrSzNCoTBUVQUAyJKE/fv2oL+vB4FAnf6c9crlchBFh3m45OwuF5rf+24I/sLd2BYefwKR737fXFZ1NE2D3S6Yh6mErLoGdrcL7l07gcX9iWLHT5hLaoJV/bdK3UsfhbO/DwCQujSMyHe+Zy4pqVrr/0bSEkkkz5xDZmICjoYG/aYZcnc3PHt3I69qyM7OIp/LmZ+qY/+txf5bj9fAWuy/tdh/a7H/1ipl/7PZLADo25cs4UyxMuXzedHRUVg+CACiKKCnqwPnzl/C0WMnMDU9g6GhAYiiAFEUMDQ0gKnpGRw9dgKKomBgS+GHrUpT/7rXQOrsAAAoNycQ/uo3zCVEVSV5/gKgacDi7CG5p9tcQlXGZrPBvbvorpNnzhrOU2VKnj6LiT/7C4S/9BVo6TQAQAwGEXzH29H5W7+Bhje/UX9/IyIiIqLyYOvtH1z/dKJF+cU9cNxuj/kUbQBRFLBt6wAAwC4IuHBxGLlcYUbYEp/Pi8EtfTh/YRgAsHPHEK5cHUUsFkewsQH9fT04feY8MopieN5q0ukUnE6Xebik3Ht3o/X9P60fT33875E8XRs/LOZy2bKYqVfLrLwGrT/703DvKYQk81/7Bua/Wnt76FnZ/1Lz3LcXLT/zkwCAfDaL8Q//AXLheXNZSdVS/0tB7uhA3StfDu+B/eZTiD9/CvFnTyJ5prCPnNTZAbGtDUgmCvsMUkmJDfWQ+nph0/JInr+A/Dq/b6KNYXc44N61E5rdBmX0uuWvhetis8Euy7A5nbA7ZdidTtgkCXaHAzZRhM3hABwi7KIDNlEoHIsi7Es1kgM2hwSbJBUe2+3IpzPQMmlomQy0dAb5TAZaOg0tnYGWWT5Wk0loySS0ZAr5xRkP98q1cwdsbhfUqWlkxm+aT1MJ8D3YWuy/tUrZ/2QyAawwU4yhWBnq7uqA2+1CMplCIFC3YijW3dWhn3O5XHpAllEU+HxebB8awMXhEcRi69uLy+pQzO5yof1Xfkn/LXr0+09g7j8/by6rWqV8MaCVWXkNfI88jKZ3/igAIDM+jok/+lNzSdWzsv+l1vRj74Hv4AMAgMTzL2D6H/7JXFJytdT/UnJtG4L34AF4Dz5w2zdgmdHryKsqxMYGxC9chBwMwu5xY/Yf/wXK9LShljZH4OUvRf0bXofY86cgyDJcgwOY+eSn9cCSNpd71040vffdSF+9CjWdhvf+fZj/8tcQ/e7mLCcvBFgu2BaDrKVju3Mp4Fr6I8MuO2FzGY/tTifssgRbmdxhVsvloCWWQrJkITBLpQqPE0lo0Shy0ShykSjUSPS2/XkdzU1o/skfh5pKQZmdhWdoCKmLlxD6t/8w1NHm43uwtdh/a5Wy/wzFKoQsSRgaGsDw8AhaWppuC8VkScLePTshyxIuXrqC0Fz4tplhlRiKNb7trah76WPA4rLJyT//K2iplLmsapXyxYBWZuU1EOvr0fXB3yr8NhnA5P/7S6RHrprLqpqV/S8lmyii+/c+qO+bOPOJTyL+zLPmspKrlf5bRWpvg/eBA/AdPAChaPN9LZdDZmICsedfQPL8BbgHB+C/fx8m//yvDM+nO2cThMLsHUmCTS7MyrFLi7NzZAnOzk74XvoY5r/+DSipNOyiCLm1BXUPP4To9x5fcw84und2UYD/ZS/FwvGnkb41BU3TINX5Uf+SlyBx+gxy4bD5KQZ2hwN2yVG4nkWzruySBJvDAZsswb44vlRX6/KqCjVSCMrUSBTO3m4kRq8jduIZKPPz0CJRtP7Ye5G+dBnR7z9ufjptIr4HW4v9t1Yp+89QrEJsGxpAKBRGaC5smA1mnim2FI5dG72BjKJU9EyxWl42uaSULwa0MquvQcv7fwqevXsAANHvfA9zX/iiuaSqWd3/UnFv34bWD/w8AEBLpTH+oQ9DjRfeoK1UK/23mt3thvfgA/AdPACpuwu5WAxq0XK93GwI7r5ezH/pK1g4foJL+UxsdjsEvw+Cz1/4r3/5v2Kdf/G4MGZfx2yeXDKJXDJpGJP8ftgZoJSEls1CiUYNY6LLBdFT/j9faOk0tIyCfDoNTVlc8pjNAtkcNDWHfDZXOM5loS0+zmez0JQskFWgKQrySmEsr6qF2WuyE3ZZLsxck4tms8nLx4LbDbvbDbvHDZsomv9adySfzyMzN2cYs9tsEL1epC5chDIzi+zsLHIzs8jOzEKNxQy1tHH4Hmwt9t9apew/Q7EKUDwLrFh0IXZbMCaKAnZsH0IkEsX09OyL7immaRo0zRisFSvcffLe3lzvhuByo/PXfgVyVycAYP6738fsf3zWXFb1rOo/LbP6GvgPH0br+94NAFBuTeH6hz5sLqlqVve/VIJvfiMaXvNqAEDs+VO49bd/Zy6xRK30v5z0/t7vIj0xAWnx/W+J3NBQ2GNIUZC8dBnJS5cQP30G2VDIUFeNbKIIRzAIqbkJjqbCH6kpCLG+vhB2+bzmp9y1fD6PXDIJ1TQr3bEYihm/XaYNl88XQrGFBcOw4HJBdLtv+4FlI2hKIcRSUynk0xmoqVQh3EqlCnt3pZeO01DTaeQXx9X00l5faX1vr3Jgk+RCSOZx62GZ6Cn8V/B6IHh9EH1e2H0+CD4vBK8Pgnv5F+B5TUPGNCPPLopw+P2w2W+/F5uWSkGZmUF2ehbK7CyU6RlkZ2agzMxAS1j/y51Kxvdga7H/1srlciWbnMNQrAIVzxQT7IIh+CqeDZZKpfSAbGx8AtuGCpv0XxoeMX/IVVk1U6zWl00uKWVCTiuz+hqIgTp0ffB/6Us8bn30b5C6UDubblvd/1Jp/7VfgbO/cHfg0Kf/DQvHjptLLFEr/S8nDW98PSDLiPzgB3Dv3AH31q2Q2tsg1dWZSwEAyuQkkucuIHn2HNLXRs2nK4bgckEMBiE2BQuBV1MQYjAIKdgIob7eXH7X8qqKvLI4IyejLD9ePLZ7PXAEGxF+4ijUTBrQ8rC73Wh69SsRO3YcOf6Qv6kEtwt1Rx7B7De+Wdj/StNgt9vR+PKXIjN+E8rkLfNTjFQN+ezSdc0W/pst/HfpWqPoXD6bRX7xTs+1zCYIELxe2H1etP7c+xE9dgzZuTBsXg/klhZ4du+CY5XXoLXkwvNIX72G9NWrSF8bhTIxaS6hNfA92Frsv7VK2X+GYhXIvHzS5/Ni185tEAUBAPQ9xWCaZbbSzLIXY0UoxmWTy0r5YkArK4dr0PJTPw7P/fsAANEnjmLuP/7TXFK1yqH/m83RFETXh34bWHwfHf/gh5FbfA23Wi30v9zYBAFtv/wBZMPziJ07B2dLM+pf/Sokz56DWF8PubvL/BSdlslAGRtH5uYEMmPjUG6uI0QoIZvDAUdLMxzNzZBamuFoboKjuRliMAjBe2/fO2qxGHILscK+SAsxqAsLyEUXoC4U/YkuQMtkzE+9TdN73gUx2IjI0ycgulwIPPYo4sefxvw3v20upU0Q+KGXw3/kEcw//gTUVBJ1hw4hFw5j9l8+ZS6lTeDesxutP/vTCH/9G0hPTcO3ayccwSCm/vpv4Qg2wtHSAkdbK+TWVjjaWuFobjJ/iFVpqfRiSHYNmbEbyNwYr8lfeq8X34Otxf5bq5T9ZyhGayp1KFbrd5s0K+WLAa2sHK6B96FDaH7PuwAA2bkwbv7u7yOvrj/crmTl0P/N5nvoQTS9550AgNT5C7j1139rLrFMLfS/XPkffQSOzg5o8QTiz55E9tYUsLg5v3v3brh3bodzS7/5abfJ53JQxm8is/hHGR9HZvymuWxD2Gw2fUmWGAgUQq+lEKy56Z5mfOXC88jNzkKZDSE3O4vsbAi5+QjUaBRqLLbhs328+++HPLAFNlVF4uw5pIYvm0toE7m2DsK9dzfydgHK1WuIn3zOXEKbyNHaAt/BA7B5vchNTCL6xFFzyTK7HXJbGxythbBMam2BtHi8Hulro0iPXi8E+jduIDtb/UvC14vvwdZi/61Vyv4zFKM1lToU47JJo1K+GNDKyuEaCD4fuj7027A7CxtET3/8H5A4fcZcVpXKof+brfnH3gPvwQcAAHOf+wKi3yufu3vVQv/L2Yv1X/D54N69C549u+Devct8ek1qPAE1EYcWT0CNxwvH8TjyiYR+Lq+qsDkk2B0OQHLA7nAUjiUH7F4PBJ8Pos9XtDfRve3tlQuFFkOvUGEj79kQlMX/WvGLgBfrP20+XgNr3Wv/5d4eyL29kHt74Orthtj04rPKslPTSN+4gczYODI3xpAZvW4uqRn32n+6N+y/tUrZf4ZitKZShmJcNnm7Ur4Y0MrK5Ro0/+SPwbv/fgBA7PjTmP3kZ8wlValc+r9pbDZ0f/iDEBsKM2hu/sEfldVyt6rvf5m70/5LXZ2QOzsgd3ZC6uyA1NW5rrstllJ2bg7ZxbvWZZfuYrc48wuL30eWizvtP208XgNrbXT/hTo/5O5uyN1dkPt64eztgd219s8ZyuQtpC9fRnL4MtLDV9a1BLpabHT/6c6w/9YqZf8Zim2yYGMDtm8bNA8b9v0qZ6UKxbhscmWlfDGglZXLNfAdOoimxbtQqgsLGP/wH0BLlcedrjZTufR/s7i2DqLtlz8AAEiPXMXk//tLc4mlqr3/5W4j+u9oCkLq6oTU2QnnYlAm+P3msg2jxhOF/b3i8cXgawbZ2eUQDBbM+LpbG9F/uje8BtYqRf/lri7IPV2QFv8rd62+b6IajyN1+QrSw4WQLFflSy1L0X9aHftvrVL2n6HYJlkKw2ZDc7fd7VEUBezYPoQ6v6/sw7FShWJcNrmyUr4Y0MrK5RoIXg+6Pvi/YHe7AQAz//wviD9b/XuslEv/N0vgta9Gw+teAwCY/8rXMP/1b5pLLFXt/S93m9V/m8MBu9cLweOG4PHA7vFA8HggeJceu2H3eGCzC8hnC3fvg5It3MUvW7hzn5ZIQo3FCksvFwr/1WIx/XvBarBZ/af14zWwlhX9X5pNJnV1wr1taM29E1NXRpAevozU8OWKvvvuaqzoPy1j/61Vyv4zFNsEsiShr68bI1dHX/ROj/193ZiYmEJGUcynykIpQjHPfXvQ8jM/pR9z2eSyUr4Y0MrK6Ro0//j74H1gPwAg9syzmP3EJ80lVaec+r8Z2n7ll+AaHAAATP7p/0O6zPZOqfb+lzv231rsv/V4DaxVDv2XWlrg2rYVzqGtcA1thd3pNJcAi3uRpS5fQWoxJKuGX66XQ/9rGftvrVL2f7VQTAjUN37IMHIHHA7JPFRTVFVFaC4MTXvxXHE+EoVaxksJcrncpn4xCnV+NL/vPfrmvNHvP4GF7z9hLqtZmqbBbhfMw1RC5XQNbJIEz317AACC14eFJ58CNviOa+WmnPq/0RyNjWh821uAxX2Wwl/4ornEctXc/0rA/luL/bcer4G1yqH/aiKBzI0xJJ47hdgPjkMZvwk1mYLd44awOHseAASvF3JPN7z798H/yMOQe7oheLzIZzJQE4UfeCtNOfS/lrH/1ipl/7PZLLBCKMaZYvdAliTs3bMTsrx6OJjJKDh95nzZzhBbstkzxZre8y74HjoEAMiMj+PWn38EWrr690lar1Im5LSycroGQp0fXR/+IOyiCACY+pu/Q/LsOXNZVSmn/m8030MPouk97wQAxE48g9l/+ZS5xHLV3P9KwP5bi/23Hq+Btcq9/65tQ3BuHYR72xDknm7zaV169DpSl68gc2UEqctXLLmb7d0o9/5XO/bfWqXsP2eKbQJVVTExOYWx8Qm43S6EQmGcPXcRY+MTGBufQDKZgiAKmJ6ZNT+17GzmTDHfIw+j/jWv0o9nP/VvyN4qn7uulYNSJuS0snK6BvlMBnJvD6SWZmBpw9kLF81lVaWc+r/RAi9/CaSOws1FYk8eRWb8prnEctXc/0rA/luL/bcer4G1yr3/udAc0sOXETt2HInTZ5CbDSGvahAb6mGz2/U6sT4A18AWeA8+AN9DD0Lq7oLo8UBLp6Alk4aPWU7Kvf/Vjv23Vin7v9pMMYZiG0CWJLS0NOHGjZuGJZKqqqKlpQmRMl86iU0MxaSOdjS/7z2wS4Wvlcg3voXYUz8wl9W8Ur4Y0MrK7RoIXh/cO7cDAOyys7CEsoqVW/83jN2O4Nvfqu+NMvdfX4IWL7/lHVXb/wrB/luL/bcer4G1Kqn/aiyG9Oh1xE8+h/jxE1AmJqGl0xC9HsM+ZHanE3JHO9y7d6HuJY/BtW0IYjAIm80GNVxeNz+rpP5XI/bfWqXsP0OxTaSqKurr67B1sHDXlOhCDNuGBrB1sB+xWLymZ4o1vfddkDsLMyTSl69gpgyXDZWDUr4Y0MrK7RpomQzqHj0CABB8XqSGLyM3P28uqxrl1v+N4hoahP+xRwEAyvhNRL7xLXNJWajW/lcK9t9a7L/1eA2sVan91zIZKBMTSJ4+i+gTR5G5NopcNAqbQ4RYV2eoFRvq4RrYAt+hg4VZZJ0dENxu5FNpyzfrr9T+Vwv231ql7D9DsU0WmgsjmUxhYEsfero7Icsyzpy7iMnJKXNpWdqMUKz+Na+C/5GHAQD5XA6z//Ip5OYj5jIq8YsBrazcroEWjxd+q9lQDwDIhueRvjJiLqsa5db/jeJ/+CE4B7YAABKnXkCyTJfBVmv/KwX7by3233q8Btaqiv7n88jOhpC6NFxYZnnmLHKzs8hrGsT6AGzC8r/P7nJC7uyAZ89u1L30MTi3DkJsaIBdlqAlk8grhR+cS6Uq+l/B2H9rlbL/DMVKIJlK6fuJ3bw5CaXMN9cvttGhmGvbEJre+y79OPzFLyPx3ClDDS0r5YsBrawcr4HY0ADX4AAAwCYIiB0/YS6pGuXY/41Q//rXQqwvBJuR734f2Vvl+YuSau1/pWD/rcX+W4/XwFrV2H91YXGZ5bPPIXb8aSg3J6ClUhDcbtjdxpuLORob4No6CO8DB1D30sfg3rEdUns7BLcbaiqF/CbfHKwa+19J2H9rlbL/DMVoTRsZitmdMlre9x4IgcK05cTps5j77OfMZVSklC8GtLKyvAaaBt9DDwKL0/7jp16AFo+bq6pCWfb/HjlamtH45jcWDjQN4c9/AVo6Yy4rC9XY/0rC/luL/bcer4G1qr3/+UwGysQkkmfOIfr4k0hfvYpcJAq7KEIMBAy1NrsdYkM9nH298Oy7D4GXvxSefXshd3dB8HqRz6Q3fNP+au9/uWP/rVXK/jMU22SiKGDXzu3YOtiPQKAOC7EY9uzajngiWREzxjYyFGt461vg2bsHQGEJ2Oy/fgpqrDp/kN8opXwxoJWV4zXIzc/Dc/8+CD4vACA7PYvM9RvmsqpQjv2/V559e+HZvQsAkBq5ioXHnzSXlI1q7H8lYf+txf5bj9fAWrXWf/1ulj84jsQLZ5CdmYWWTsMmSRDcbnM5BJ8PcldXYbnlSx6D76EHIff1QPD5kM9m7/nnnFrrf7lh/61Vyv4zFNtEoihgx/YhKIqCKyOjqPN5MTMbgiAIaGttwVw4DE3Lm59WVjYqFPMePIDGN71BP5773BeQPF+ee+iUk1K+GNDKyvUaOFqa4eztBQDkswoSz1fnMuRy7f+9CLziZZDa2wAAiWdPInX5irmkbFRj/ysJ+28t9t96vAbWquX+q7EYMtevI3HqBSx8/wkkzp5D5uYEtFgMNkGA4POZnwK7ywWpvQ3uXTvhf/QR1L30MbgGB+Ds7YGjKagHa+uZUebZvQvuXTvhCASQnZo2n6ZN5tzSD8+++yC3NCM7GwJU1VxCm8jR2gLPvn1w9fZASyQ2/aYXDMU2kUN0IBhswMjIKARRQKDOr2+8Hww2IByOQC3z/8E2IhRzNAXR/L73wO4qrNOPnXgW81/+qrmMVlDL34yUi3K9BnaHA9799wMABI8HC08cBTTNXFbxyrX/96Lxh9+ivx5GvvntwjdbZaoa+19J2H9rsf/W4zWwFvu/TF1YgDI2juSZc1g4+hRix08gc/0G1OgCANy23BIAbA4HHM1NkHt74d65A96DD6DupY8h8NpXw3vgfri2b4Pc3Q1HY2Ph+wJNRV5V0faLPwd5Sz9yqRTcu3Yi8NgRJM9dQD5TnlstVJvgO34E/pc8iuzCAuSuLgTf9hYoY+PIhcPmUtoEgVe8DM3vey9yC1GIgTo0vfudUBMJKGPj5tINs1ooZuvtH7zjKUz5fOEpbrfHfKpmbRsagCRJGB+fQEd7K66O3sDunduxEIvh0nD53zEunU7B6TRuOnmnWn7qx+G5fx8AIDsbwq2/+Ahy8/PmMlpBLpe951CS7k25XgPB60H3730INqnwS4hbf/XXSF0aNpdVvHLt/92Se3vQ8ev/HQCgpdIY+18fhLbJG/Xei2rrf6Vh/63F/luP18Ba7P/62RwOOLf0Q+7vg2tLP5z9ffr3aHcin88jNz+P+LnzyMzMIh+LwbNjO0R/HWY/+Wmo0Siw+DM3rc7ucMAmOQBJLjyWpcJ/HQ5AEGAXBEAQYFv8A1GETRDgHNwCR0c75r/3OPI2wGYX4OzqhG/3bkSfPGr+NLTBhLo6+B7Yj/B3vwcluoD4409A7uxE9//8dYz/wR8ht0m/SE4mEwBDsc0VbGzA9m2D+vGNsZsYG58w1JSrew3F6l7xcjS+ZXFDaQAz//gJxJ973lBDq+M3I9Yr52vQ+os/B/eO7QCA8Fe/jsjXvmEuqXjl3P+74X/JYwi+/a0AgOT5C5j66781l5SVaut/pWH/rcX+W4/XwFrs/72RujohtbbC0dy0+KcZYlMQwuJs8ZXkASjhMPJFs/9tNhvkxkb9WI0uIBeNQo1EkItGkYtEoUajUCNRqPEEtGQSajK56UvONorNbofN6YTdKcPudMLudBYdu/RxmyzD7lo8lgvnbZIDdkmGbSn4kqRC8GUKN9Yrn88jG4tBM+39LTc0wGa3G8Zoc6jJJLKLS4zHfut3AAAt734nclPTiD6xOcEkQzFa072EYq4d29H2iz+nHy88/iRCvNvkHeE3I9Yr52sQeNUr0fDG1wEAUpcu49ZffdRcUvHKuf93o/kn3gfvgf0AgPkvfxXz3/iWuaSsVFv/Kw37by3233q8BtZi/zeH3euFpAdlTXA0NS/+NwibJCEzP28IxQDAGQwWgp47mSWWz0NNpqAlk8tBWSIBbWlMUZDPqcjncshrKpDLIZ/LAUtjS8eryNtshdlXolgIohwi7KIDNlEoHIuiHnIVgqzFP4bQy1moLRf5PJSVQrH6+sKMMtp0uVQKuUQhpFoKxZrf8SNQ5+YR/f7jpuqNwVBsE8mShKGhAQwPjyBT9D/WauPl6G5DMSEQQPsHfh6OtlYAQPrqNdz6yMeQL/N/b7nhNyPWK+dr4BzYgvZf/W8AgHw2i7Hf/l2osZi5rKKVc//vRvcffBhioA4AcOsvP4rU8GVzSVmptv5XGvbfWuy/9XgNrMX+l17zT/8E1EQC8QuXIDQE4PDXwT00CLmlBdA02Fe4CybdTstmkVeygJIpPM4ohf9ms4CqQlNVQC3s4ZZXFwNBVYXU2gqb14PoD56Gms3CZrNBam1B4NBBRL77ffOnqUrmYGgp47kTNptt3c8r/nxCQwO8u3Yg9O3vIpdOI/74ExAD9ej57d/Erb/4CJTJScNzNwpDsU0gSxL27tkJWV59HXl0IYYLF4eRy5X3Rvt3G4oV7yOmJZO49dG/Qeb6DXMZvQh+M2K9cr8G3b/3IYgN9QCA6b/7RyReOG0uqWjl3v87IXd3oeM3/gewGGLe+PX/D9rixp7lqpr6X4nYf2ux/9bjNbAW+196Qp0frb/ws8hOzSBx9SpcPd1wDWzB9F9/HMr0NOwOB+x1dRADdRDr6iDU+SEG6iD46yAE6mB3uyC43RDcbthk2fzhy5aWziCfTkFLZ6ClUtAyGaipFPLpDDR9PI18Jg0tlYaWSReeo2ShKRnkl4IvRSkEX+sMZFbS/NM/AbvHg/iZM3DUNyDw0scw8/f/hMTpM+ZS2gT1b3w9vPv2InL8adgFEXWHH0bs6FOY/+a3zaUbhqHYJqqkGWGruZtQrP41r0L961+rH89+8tOIHT9hqKH14Tcj1iv3a9D84++F94EDAIDo9x7H3Oe+YC6paOXe/zvhf/QRBH/07QCA1IWLuPXRvzGXlJ1q6n8lYv+txf5bj9fAWuy/dfyHH4LQ1AR1fh6xHzxdCHrukE0QYHe7YfcUQjK74Y+rsOxxcYN5/bFYeIyisdXY8vnC7KtcrvD3y+ag5bKFJZnZbOEXf5kMtEymEGplMsinC2GWpmSgpdOFIKsMbzjk2XcfpO5O5FNpJJ5/AdnQ5mzwTitzDQ5AHhqEDTakzl9AevS6uWRDMRSjNd1pKObZuxst7/9p/Tjy3e8j/Pn/MtTQ+vGbEeuV+zXwP/Iwgu/8UQCAcmMMN//k/5pLKlq59/9OFM+gDX/pK4hs4m+8Nko19b8Ssf/WYv+tx2tgLfbfWuy/tdh/a5Wy/6uFYry1wj2QJQkHD+zDkcOHVv1z8MA+yHdxm95y5mgKouGtb9aPUxcuMhAj2mSpkav6Y6mnG47mJsN5Kh/Orct3IU5fGzWcIyIiIiKi8sFQ7B5kFAXPnDyFo8dOrPrnmZOnKnZJ5Woa3/pmOIJBAIAaiSDEQIxo02WnppEZH9ePnVv6DeepPMgdHRC83sKBqiJ99Zq5hIiIiIiIygRDsQ3S3dVx2yyxapwp1vDG18G9Z7d+HPrcF5C9NWWoIaLNkR5ZDlgYipUneXCL/jh1ZQQw3WqdiIiIiIjKB0OxDSBLEoKNDXjhzHnMhuZw8dIVHD12ArOhOUxNz1TNTDHvgf0IvOqV+vH8176BxPMvGGqIaPOkry2HYnJ/n+EclQdX8dLJoiWvRERERERUfhiKbZCcqkLJKEgmUwgGGwAAo6NjCATqqmKmmNTehoa3vEk/jp96AfNf/bqhhog2V/ra8h1ZpJYWSJ0dhvNkveJQLHVlxHCOiIiIiIjKC0OxDaBqKgCgpaUJ85Eo/D4vfD4vWlqa4JRlc3lFanjrmyEG6gAAyvQ0N9YnsoAaiRhuVeziEsqyIrW1wu5avosvZ4oREREREZU3hmIbIJdTMTw8gkCgDkpGwdT0LO7bsxM93Z24Nnqj4pdPBt/xdri3b9OPw5/7AnLheUMNEZVGpigU4xLK8iL3LV+P4vCSiIiIiIjKE0OxDZJRFJw5ewEZRcHY+IR+98nQXNhcWlECr3wF/Ece0Y/nvvBFJM9fNNQQUemkr43qj539nClWTpz9vfrj4utERERERETliaEYrcr7wH40vOkN+vHC0WOIfud7hhoiKq3U8GX9sdhQz33FyoizaKZY8Yw+IiIiIiIqTwzFNoAsSdg2NABRFAzjoihg29BARW6079zSj8a3v00/Tp47j9C//YehhohKT0smjfuKDQ4YzpM17C4XHK0t+nFmlDPFiIiIiIjKHUOxDZBRFExMTuGBA/uwbajwA+q2oQE8cGAfJianKm5PMbGhHsG3/zAEjxsAoEzewuxnGIgRlQvDEsrB5bsdknWKl07mwvPIRaKG80REREREVH4Yim2QWCyO40+fRCgUxpHDhxAKhXH86ZOIxeLm0nXr7urAnt079BlowcYGHDl8SP8TbGzQa2VJwsED+3Dk8CHDc+5G8O1vg9TVCQDI53IIffrfoEYi5jIiskj68vISSucWbrZfDoyb7HOWGBERERFRJWAotkF8Pi8eevAAgsEGHD12AsFgAx568AB8Pq+5dF18Pi86Otr0Y1mS0N7eimeePYWjx07g4qUr6O/rgSxJEEUBQ0MDmJqewdFjJ6AoCgbu8gflxrf/MNx7dunHs5/4JO+iRlRmUsNX9MeC18t9xcqAs+hOoOlrfM0kIiIiIqoEDMU2gCxJ6GhvxbMnT+HS8AgA4NLwCJ49eQod7a13vKeYKAro6epAbCGmjxXf3RKLM9OwGJ4JdgGiIGB+cblOKBSG3+db9+f17r8fzW95E1re/1Ooe8mj+vjc57+I+POnDLVEZL18NmtYQsl9xaxXHIpxPzEiIiIiosrAUGwDZBQFl4ZHkMuphvFcTsWl4ZE73lOsva0VOVXFwhpLLyVZApBHRlEWHwNKpvB5Cp8vr4+vxmazoe2XfgGeBw9CaGiAa/s2IJ8HACw89QNEv8s7TRKVq+K7ULq4r5ilpM4O2ByOwoGmIXNjzFxCRERERERliKHYBhFFAXt279D39HK5nLj/vt13vHxSliQEAnUYHV39hypRFNDX242p6VnEYvHFJZSiuexFNbzljchMzyD0hS/C0doCZWEBuWQSajKJ0Gf+3VxORGUkXRSKyVv6DeeotJzF+4kVzeAjIiIiIqLyZuvtHyxMDboD+cXZRG63x3yqJomigB3bh6As3oWyp6sDly6PoL2tFYFAHS5cHL5tFtlqtg0NIBQKIzQXRndXx23PL/5cS0s1fT4vBrf04fyFYWQUBT6fF9uHBnBxeERfZqlpGjTN+Hfo/d3fwfjH/hZqIommH307XH29UBcW4Gpuxujv/j7UhQVDPW2eXC53V8EmbZyKuwZ2O7Z+7CP64ejv/C6y09OGkkpScf0v0vYTPwbfg4cAAOFvfhuhz3/BXFL2Krn/1YD9txb7bz1eA2ux/9Zi/63F/lsrl8vB6XSZhzdFMpkAFlfMFWMotgFkScLQ0ACGh0cgyZIeign2wgb4w+tcQilLEvbu2QnZtOwxuhDDhYvDAIAd24cQiUQxNj6hn5clCTt3DOHK1VHEYnEEGxvQ39eD02fOr/l5u377NzH5d3+PzM0JZO12tL/zR7Fw9Bg6f+WXcPP3/jfU2PKeZrS5crksRHFx+RVZohKvQcev/3fIvT0AgNl//RRiTz9jLqkYldj/JV0f+m04moIAgKmP/z2Sp8+aS8peJfe/GrD/1mL/rcdrYC3231rsv7XYf2uVsv+rhWJcPrkBMooCRVEwNDQAURAAAA6HA3v37ISiKGsGU8UyioJnThbuLnn02AncGLv5ooEYAKiaipyqoj5QBwAIBhuwEIu96OdNnDmL+pe+FACgJZOY/cy/w9XfB2VikoEYUQVIX72mP5b7uYTSCoLXqwdi4J0niYiIiIgqihCob/yQeXC9HI61N3KvJaG5MFRVxc4dQ3C5nGhva8XE5C1cvXbDXLpudXV+OJ1OzIbm4HK50NnRhob6AHq6O/U/yWQK8UQSkUgUA1v60N/Xg1xOxfDlEWja2pMAU8OX4T/yCOoefQSO5iY0PPYovPvuw+y/fpqhWIlpmga7vRCokjUq8RrYZRne/fsAADaHAwtPPmUuqRiV2H8AcA9thffAfgBALhRC5JvfNpdUhErtf7Vg/63F/luP18Ba7L+12H9rsf/WKmX/s9kssMJMMS6fJLj37Ia9KQhbPI74Myf160ulU8ppo7SySrwGgs+Hnj/6ff34+v/4n9BSKUNNpajE/gNAwxteh8CrXwkAiD/zLGY+8UlzSUWo1P5XC/bfWuy/9XgNrMX+W4v9txb7b61S9p/LJzeBLEno7+s2D6+ov68bslSeM+uSZ84i9NWvIXbiWQZiRBVEjcWQnQ3px84ty3dBpNJY2tMNAFK88yQRERERUUVhKHYPMoqChYU4jhw+hG1DA+bTEEUBe3bvwJHDh7CwEH/RPb6IiO5U8b5izj6GYqUm9Sz/YiRTdC2IiIiIiKj8MRS7R6G5MI4eO4FQKIwjhw8Z/jx06AAmJ6cK5+fC5qcSEd0z42b7DMVKydHcDMFVuIW0lk5DmbxlLiEiIiIiojLGUGyDLIVj5j8Mw4hoM6WvFc0UYyhWUsVLJ9NXuXSSiIiIiKjSMBQjIqpg2alpaInFTSNFEXL3+vY5pHtnDMWuGs4REREREVH5YyhGRFThijd45xLK0nEW7yfGTfaJiIiIiCoOQzEiogpXvMG7s7/XcI42D+88SURERERU2RiKERFVuHRRIMN9xUqjOBDLXL8BqKrhPBERERERlT+GYhtEFAXs2b0DRw4fwp7dO+ByOXH/fbvh83nNpUREG6r4DpRifT2E+nrDedp4xUsni0NJIiIiIiKqHAzFNoAoCtixfQiKouCFM+ehqSqy2SxCc2H09XZDFAXzU4iINlR69Lr+2NnHJZSbzTBTjKEYEREREVFFYii2AQR7IfQaHR0zjE9PzxrOExFtlkxxKMZ9xTadYT8x3nmSiIiIiKgiMRTbABlFgaIoGBoagCgUAjCHw4G9e3ZCURRkFMX8FCKiDZUeLd5XrN9wjjaW4HLB0dwMAMiGQlAXYuYSIiIiIiKqAAzFNsil4RFMTk5h185tqK8P4MD9ezE1PYNLwyPmUiKiDZe+tjxTTO7pBux8ed8sUtF+Ylw6SURERERUufhT0wYKzYVx9NgJ/c/Y+IS5hIhoU6iRCNRIRD/mXSg3j2HpJEMxIiIiIqKKxVBsg/h8Xhw8cJ9+t8nurg4cPLAPsiSZS4mINkXxbDGGYpvHsMl+0Z0/iYiIiIiosjAU2wCiKKCvtxvXRscQi8UBAGPjE5ianinsM8a7TxJRCRj2FeMdKDeNc3H5pJbJQJm8ZT5NREREREQVgqHYBli6u+RSILaEd58kolIqvgOlvIWb7W8Gsb4egt8PAFDGxs2niYiIiIiogjAU2wAZRUEkEsX99+/Rl0/KksS7TxJRSaWLQjHB44Gjuclwnu6dXLzJ/k3uG0lEREREVMkYim2QsfEJnDt/Cbt2bsORw4dw8IF9vPskEZVccTDGJZQbrzgUU8ZvGs4REREREVFlYSi2gWKxOI4/fZJ3nyQiyxQvoXT2cwnlRjPMFBvn8kkiIiIiokrGUIyIqIoUb7Yv93Om2EZbCsXyqspN9omIiIiIKhxDsXsgSxL27N4Bn8+Lgwf24cjhQ7f9OXhgH2RJMj+ViGhTpK8tzxST2tthl2XDebp7UksL7E4nwKWTRERERERVgaHYPcgoCs6cvYBYLI5nTp7Sl00W/3nm5ClutE9EJaNGIlAjEf3Y2d9nOE93T+LSSSIiIiKiqsJQbAMszRjjjDAiKgeG2WLcbH/DOLnJPhERERFRVWEotgEyigJFUdDS0mQ+RURUcpnrRZvtFwU5dG+Mm+zzRipERERERJWOodgGkCUJfp8PPd2d3FOMiCyXHlte2id3dxnO0d2Tenv0xwqXTxIRERERVTyGYhsgoyjcU4yIyoZy/Yb+WPD7IQQChvN05+TuLthsNgCAcnMC+XzeXEJERERERBWGoRgRUZXRslkot6b0Y7mHs8XuldRdvHSS+4kREREREVUDhmL3yOfz4qEHD+jLJYONDeYSIqKSy9wY0x87iwIdujvO3uJN9rl0koiIiIioGjAUuweiKKCvtxtXrlzD0WMn8MKZ8+ju6uAeYkRkucyN5SWU3Ffs3hk32edMMSIiIiKiasBQ7B4IdgEAEIvFAQCpVAqKokCSGYoRkbUyRZvtFy/9oztnczggtbfrxwpDMSIiIiKiqsBQbIPZBYEzxYjIckrR8knB64HIpd13rXiWWHZqGlo2azhPRERERESViaEYEVEVyufzyBTtfSVztthdcxaFYmnOEiMiIiIiqhoMxe6RU5Zx8IF9OHL4EB46dAB1fh+2bxvUN94/eGAfZ44RkSWU68uzxbiv2N2TimeKcZN9IiIiIqKqIQTqGz9kHlwvh6O2wx5VVTExOYWx8YlV/0xMTkFVVfNT16W7qwM9PV2YC4ehaXl93OfzYteOIYTDEf1jy5KE/fv2oL+vB4FA3W3PeTG5XA6i6DAPU4lomgb74h51ZI1qvAaC3w/Pnl0AgHw2h/gzz5pLykY597/hzW+E4HYDAOa/8S3kwvPmkopXzv2vBey/tdh/6/EaWIv9txb7by3231ql7H92cQsUm81mGOdMsTLl83nR0dFmHi4EYju3QRRFfUwUBQwNDWBqegZHj52AoigY2NJneB4R1R7jHSg7DedofQSvB45gUD8u3quNiIiIiIgqG0OxMiSKAnq6OhBbiBnGg40N2LVzG27cuIlcLqePC3YBoiBgPhIFAIRCYfh9Pi7bJKpxysQk8ouzSe1uN8SicIfWR+rp0R8rk7e4yT4RERERURVhKFaG2ttakVNVLMTihvHQXBjHnz6JWNw4LsmF8EvJKACAjKIAyOvjRFS7MkUzm5zcV+yOFW+ynxnjfmJERERERNWEoViZkSUJgUAdRkfXv0RHliTDckoioiWZsaLN9nsYit0puTgUK1qOSkRERERElc/W2z+4/t3YF+Xzhae43R7zKbpH24YGEAqFEZoLo7urA4FAHS5cHEYut7xZv8/nxeCWPpy/MIyMoqx4vH1oABeHRxBbnG2maRo0bfUN/wsb7TNYswr7b71qvQa+QwfR9pM/DgBIDl/GzT/7c3NJWSjX/m/50z+B4PMCAMb+9x8jfb06g7Fy7X+tYP+txf5bj9fAWuy/tdh/a7H/1srlcnA6XebhTZFMJoAVNtpnKFZGZEnC3j07IZuWPUYXYoZgzByCyZKEnTuGcOXqKGKxOIKNDejv68HpM+cXl1K+uHQ6VbIvRrpdLpfl3T8tVq3XQGppQefv/CYAQEuncf3XfsNcUhbKsf9iYwO6P/xB/fjaB34FWHz/qzbl2P9awv5bi/23Hq+Btdh/a7H/1mL/rVXK/q8WinH5ZBnJKAqeOXkKR4+dwNFjJ3Bj7OZtgdhKVE1FTlVRH6gDAASDDViIxdYdiBFR9VKmp6Gl0wAAu9MJqaXFXEKrMCydHBuv2kCMiIiIiKhWMRSrArmciuHhEbS2NOPI4UOQJAkjV0fNZURUo5Sizfbl3uW7KdLanEW9Kt6bjYiIiIiIqgNDsTI2Nj6BM2cv3DZLLBaL4/kXzhpmghXPMlvpOURUu9JFd02UimY/0drknqJQ7DpDMSIiIiKiasNQjIioymWKZooVz36itRUHiMU9JCIiIiKi6sBQjIioymVuLN8xsXifLFqd1N4Gu6Ow6Wc+l4MyOWkuISIiIiKiCsdQjIioyuXC89BiMf2YwdiLMyyd5CwxIiIiIqKqxFCMiKgGFO8rxiWUL07u5dJJIiIiIqJqx1CMiKgGpK8vL6HkZvsvrng2He88SURERERUnRiKERHVAKVotpPMmWIvSu7q0h9nigJFIiIiIiKqHgzFiIhqQPHySamlBXan03CelhUHYmo8gexsyHCeiIiIiIiqA0MxIqIaoMViyIXn9WPOFlud3FM8S+y64RwREREREVUPhmJERDUic2N5GaCT+4qtSiqaKZYeZShGRERERFStGIoREdWI4rsocrP91XGmGBERERFRbWAoRkRUI4r3FePyydUZN9nnnSeJiIiIiKoVQzEiohpRfAdKsa4OYiBgOE/GQEy5NQUtnTacJyIiIiKi6sFQjIioRmjpNJTJSf2Ys8Vux6WTRERERES1g6EYEVENSV+9pj+W+3oN58i4yX6Gm+wTEREREVU1hmJERDWkOBRzcqbYbYpniqVHl+/WSURERERE1YehGBFRDTHMFOMdKG+ztKdYXlEMS02JiIiIiKj6MBQjIqohufA8cuF5AIDN4YDU2WEuqVmGu05y6SQRERERUdVjKEZEVGO4hHJlhqWT3GSfiIiIiKjqMRQjIqox3Gx/ZXJ/v/6Y+4kREREREVU/hmJERDXGuK8YZ4otcW0d1B9nRkcN54iIiIiIqPowFCMiqjHK5CS0dBoAILW1wi7L5pKaIzY1QawPAACyMzNQ4wlzCRERERERVRmGYkRENYhLKI3cRbPE0lc5S4yIiIiIqBYwFCMiqkHpkav6Yy6hBJzFodg1hmJERERERLWAoRgRUQ0y3IGyj6GYa+uA/jh9bbk3RERERERUvRiKERHVIEMotmX5rou1yNHaAsHvBwBoySSyU9PmEiIiIiIiqkIMxYiIalR69DoAwO52Q2pvN5+uGcV3neTSSSIiIiKi2sFQjIioRmUWQzEAcA1uMZyrJcWhWIahGBERERFRzWAoRkRUo9KjywGQc2B5T61a49y6VX+cYihGRERERFQzGIoREdWo9LXlmWLOGp0pJnd0QPC49ePivdaIiIiIiKi6MRQjIqpRaiQCNRIBAAg+H6SWFnNJ1XMWL528fgPQNMN5IiIiIiKqXgzFiIhqWK3PFiv+N3OTfSIiIiKi2sJQjIiohtX6vmKuon8zl04SEREREdUWhmJERDWslu9AKbW3wV68n9jIVcN5IiIiIiKqbgzFiIhqWLooFBMCATiCQcP5auYcWA4BlVtTUONxw3kiIiIiIqpuDMXKWHdXB/bs3gFRFPSxbUMDOHL4EB568AB8Pq8+LksSDh7YhyOHD932HCKitRQHY7W0r1hxKJYpWkZKRERERES1gaFYmfL5vOjoaDOMdXd1QJIkHD9xEleuXMP2oUHIkgRRFDA0NICp6RkcPXYCiqJgYEuf4blERKspXkLpHKydfcUM+4mNcD8xIiIiIqJaw1CsDImigJ6uDsQWYoZxt9uFSCSKXE5FLFZY5uPzeSHYBYiCgPlIFAAQCoXh9/kgS5Lh+UREK0kNX9Yfu7YNGc5VK0dzE4Q6v37M/cSIiIiIiGoPQ7Ey1N7WipyqYmEx+MJiUCZJEpLJFABA1VSkMxm43S5IciH8UjIKACCjKADy+jgR0VpSV0b0x2JdHaR24yzValR8p03l1hSyc3OG80REREREVP0YipUZWZIQCNRhdHTMMC7YBThl2TC2pLCEUjQPExGtSz6TQbooGHPVwBLK4jttcj8xIiIiIqLaZOvtH8ybB19MPl94itvtMZ+ie7RtaAChUBihuTC6uzoQCNThwsVhAMCO7UOYnJxCaC4MURSwY/sQIpEo5iNRDG7pw/kLw8goCnw+L7YPDeDi8Ii+zFLTNGiaavpsy3K5HIM1C7H/1qv1a9Dw2tcg+KY3AADip17A5N983FyyqUrd//7//fsQGxoAANP/+ilEnzpmLqkppe4/GbH/1mL/rcdrYC3231rsv7XYf2vlcjk4nS7z8KZIJhMAAJvNZhhnKFZGZEnC3j07IZuWPUYXYrhwcRgDW/qQTKYwNj6h114bvYFYLI6dO4Zw5eooYrE4go0N6O/rwekz5xeXUr64dDpVsi9Gul0ul4UoOszDVEK1fg1cgwNo+5VfAgBo6TRu/MZvIZ/Lmcs2TSn7LwaD6P7d39aPx3//fyN7a8pQU2tK2X+6HftvLfbferwG1mL/rcX+W4v9t1Yp+79aKMblk2Ukoyh45uQpHD12AkePncCNsZt6IJbLqUgmUwgE6iCKAnw+LwAgFotD1VTkVBX1gToAQDDYgIVYbN2BGBFR+tootHQGAGB3OuEsWl5Ybdzbt+mPM2PjNR+IERERERHVKoZiFWRsfAKKouChQwcwONiPi8NXkFEU5HIqhodH0NrSjCOHD0GSJIxc5R45RLR+eVVFariwVBsAnFuqNxRzbV++w2bq8hXDOSIiIiIiqh0MxcrY2PgEzpy9gFxueS+wS8MjOHrsBI4/fVLfLwymWWbm5xARrUe6KEx3DVRvKObs79Mfpy8tB4FERERERFRbGIoRERFgugujc3AAjsbCRvTVxNnfB8HnAwDkwvNIDV82lxARERERUY1gKEZERMDivmLZubB+7Nw6aDhfDZyDA/rj1PBl5DXNcJ6IiIiIiGoHQzEiItKli/bYclVjKNbfrz8u3kONiIiIiIhqD0MxIiLSFW887xocAOzV8zZhk2U4txT2E8srClLD3GSfiIiIiKiWVc9PO0REdM9SV0aAxSWFQn09XFuXlxtWOtfAFthdLgBAcvgy1IUFcwkREREREdUQhmJERKRT5+eRujyiH1fTEkr3rp364zRniRERERER1TyGYkREZFC8hNK5davhXKWyiSLcO3fox7zrJBERERERMRQjIiKD9OXlwMjZ1wuppcVwvhK5d+6A2NgAAMjcGIMyOWkuISIiIiKiGsNQjIiIDNKj16FMT+vHzu1DhvOVyL17eekkZ4kREREREREYihER0UqS5y7ojz07thvOVRq702ncT6xoeSgREREREdUuhmJERHSb5Okz+mPXzh1wNAUN5yuJe/dOCD4fsHgjgSRnihEREREREUMxIiJaSfrqNaSvXtOPXUWb1Fcaz949+uPk5RFA0wzniYiIiIioNjEUIyKiFRXPFqvUJZRSSws89+3Vj5NnzhrOExERERFR7WIoRkREK0q8cAb5XA6o4CWUnvvvA2w2AIByYwyJF06bS4iIiIiIqEYxFCMiohVl5+aQKJot5r1/n+F8JfDsu09/HDv5nOEcERERERHVNoZiRES0qsTzL+iPvQcfAOyV87bh3rsbUkc7AECNxRB/lqEYEREREREtq5yfboiIqOQSL5xGZvQ6AMDR2gLvoQfMJWXLWzRLLP7sc1BjMcN5IiIiIiKqbQzFiIhoTfFnT+qP/Q8cMJwrV45g0LDBfpxLJ4mIiIiIyIShGBERrSn2zEnk5ucBAM6hrXBVwJ0oPfv2wuZwAEuz3W6MmUuIiIiIiKjGMRQjIqI1aakUYs8szxbzHSzvJZQ2mw2e/cs3BeBeYkREREREtBKGYkRE9KLiz55EPp8HAHgf2A+ps8NcUjZ8Rw5D7uoCACg3xpB44bS5hIiIiIiIiKEYERG9uOytKcSLZot5y3RvMbvDAf+jR/Tj6NGnDOeJiIiIiIiWMBQjIqJ1iT/zrP7Yd+gBiPUBw/ly4H/0EUhtrQCA1JURxI6fMJcQEREREREBDMWIiGi9UpeGkTj1AgBA8PkQeOUPmUssZXe74T/yiH688MRRw3kiIiIiIqJiDMWIiGjdIt/9vr63mP/RR8rqTpT+I49AbAoCABJnz+kBHhERERER0UoYihER0bplRq9j4Xvf148DP/Ryw3mrCH4/6h49rB/HOEuMiIiIiIheBEMxIiK6I5Hvfh/ZuTAAwLV1EHUve4m5pOQCr34lhEBhj7P4s88hefGSuYSIiIiIiMiAoRgREd0RNbpgnC32ylfA0dxkqCkl36GDqHts+Y6TC088aThPRERERES0EoZiRER0x6KPP4n0yFVgadN9i5ZRSi0tqH/T6/Xj6He+h/TodUMNERERERHRShiKERHRXYl8d3m2mO/hh+C5/z7D+VKof9PrIdbVAQCS585j7gtfNJcQERERERGtiKEYERHdleSZswh/9ev6cctP/URJg7H6V/0QPHv36Mdzn/uC4TwREREREdFaGIoREdFdi3ztG0icPqMflyoY8x7Yj/o3Li+bnPr43yM7M2uoISIiIiIiWgtDMSIiuifTH/8H5EIh/XizgzH/4YfQ/BPv049jx08gefqsoYaIiIiIiOjFMBQjIqJ7dvOP/6/heLOCsbqXPobgu95hGJv95KcNx0REREREROshBOobP2QeXC+HQzIP0T2SJQn79+1Bf18POjraEI0uQFGUOzoXCNRhLhyGpuVNH311uVwOougwD1OJaJoGu10wD1MJ8Rrcm3w2i9SlYfgeflAf896/D3lVg3LzJvKqaqg3W0//A696JRrf8ib9OBeex/X/8T8NNXR31tN/2jzsv7XYf+vxGliL/bcW+28t9t9apex/NpsFANhsNsM4Q7EyMzjQh4nJKVwaHkE6lcbWgX6EQmHYbMD2bVuRTKXw/KmzK54LzYVx9txF1NfXoaGhHqG5sPnDr4qhmLVK+WJAK+M1uHe5+QgWnjoG38EDsMsyAMA1tBXuPbsBTUNmbNz8FN1a/Xdt24rGt74FdY89oo+lr17DzT/8Y0Md3b21+k+bj/23FvtvPV4Da7H/1mL/rcX+W6uU/WcoViFCc2EkUykAgKqqCDY2ILoQQ17Lo7WlCdfHbkJRFChZBfX1ASiKgmw2h9aWJkzcmtJnjrW2NCMUCkN9kdkZSxiKWauULwa0Ml6DjZHPKIg+/iQczU2Q2tsAAILPC/fuXXANbYWWTiM7Na3XB175CgTf/Q40vuH1cPb3IRcKQY1GAQDOvl40vPkNaHzLmyG1tujPiT/7HKY+9nH9mO4dv/6txf5bi/23Hq+Btdh/a7H/1mL/rVXK/jMUq0D1gTo0NjZgcnIKANDcFER4PgJFUWC329HUFISqqsjmcmhsqMfU1AxUVYUgCmgKNmA+EtVDshfDUMxapXwxoJXxGmygfB6JU6dhd7ng7OvVh8WGBnj374PvwUNwbdsG/8teAqmtDaEvfhkzX/gvOBob0fzud8LR0AD/Qw+i4a1vgtTRbvjQkW99B6F//6xhjO4dv/6txf5bi/23Hq+Btdh/a7H/1mL/rVXK/jMUqyCiKGDXzu3o7GjDxOQthOcjsNmAxsYGeNwuhObC8Hg86OxoQywWR17Lo7GxAdPTs1BVFbIsoSnYgNBcmKFYhSjliwGtjNdg46UuXkIuHIZNEOFobtLH7W4XHM1NEOv8yKk5uHduR90jhyF1tMNmt8PZ1wuprdXwsRae+gFCn/53xJ951jBOG4Nf/9Zi/63F/luP18Ba7L+12H9rsf/WKmX/VwvFbL39g+vfjX1RPl94itvtMZ+iDSSKAnZsH0IkEsXY+AR8Pi927dwGURCQSCQBAGPjE8goCga39OH8hWFkFAU+nxfbhwZwcXgEsVgcWPxi07TVl1LmcjnzEBHRhnH19sL/wAH4D+yHI9gIAMirKjLz84Y6uyjCUVenv1nNP/EkIk88idSNMUMdERERERFVPqfTZR7aFMlkAmAoVnm2DQ0AAC4NjxjGZUnCzh1DuHJ1FEpG0R/HYnEEGxvQ39eD02fOI7PumWJZzhSzEPtvPV6D0rBJElzbhuDs7UbdS1+C6Aun4QgGYXfKyIZCEJ0uiG43It/9PrK3ppAZX31zfto4/Pq3FvtvLfbferwG1mL/rcX+W4v9t1Yp+79aKGY3HJGlRFHAnt07EGxsABaDL7/Ph1AofNu5lpYm5FQVqVQKqqYip6qoD9QBAILBBizEYusOxIiISiWvKEieOYvwl76K+KkXYMvlMPXRv8Hob38I8aPH4OztQejfP4v4M88yECMiIiIiok3FmWJlRpYk7N2zE7Jc2K/txthNjI1PAIBh+WQmoxhmghU/L7oQw4WLw8jlVl8uaVbKhJZux/5bj9fAGo0/8jb4Hn4QUFVkQyHMf/UbSJ45ay6jTcavf2ux/9Zi/63Ha2At9t9a7L+12H9rlbL/q80UYyhGQIm/GOl27L/1eA2spYki7Nzb0DL8+rcW+28t9t96vAbWYv+txf5bi/23Vin7v1ooxuWTRERkOS2dMg8RERERERFtKoZiRERERERERERUcxiKERERERERERFRzWEoRgAAu41fClZi/63Ha2At9t9a7L+12H9rsf/W4zWwFvtvLfbfWuy/tcqh/9b/Dags2AXBPEQlxP5bj9fAWuy/tdh/a7H/1mL/rcdrYC3231rsv7XYf2uVQ/8ZihERERERERERUc1hKEZERERERERERDWHoRgREREREREREdUchmJEFhEFATbzIBER1QTBbofb5YJQBntp1CK+B1tLsNsh2PljiFVsNhtfe4iIFtl6+wfz5sEXk88XnuJ2e8ynqMzZbDb09XajuakRNpsNk7emMTY+oV9TKg2nU8bO7UMYvnwV8UTCfJo2UXNTEL29XXCIIsLhCC6PXIOqquYy2iSyLGFo6wDcLic0LY8rI9cwH4may2iT8D3AOqIgoL4hgMaGevj9PkgOB3KqirNnLyKRTJrLaRPxPdhaNpsN24YGEI8nMH5z0nyaSqC3pwuyLGH48lXzKdpEgiBg60A/6ur8gA24du0GZmZD5jLaJDabDb09XWhpboLNBkxMTmH85iS/ByqhxsZ6bOnrhSAIWIjFcGXkGhQlay7bNMlk4T3fZjP+WkwI1Dd+yDByBxwOyTxEZcIGwON2oz7gRx5ANpsDALS3tcLtcuH02QuYnplFa0szEvEksrnCedo4TqcTgTo/BFFAVlEM51qam9DU1IhYPIFEgj8MbQYbAJfLiaZgA+r8PsTjCfj9PvT2dOH8hWFcH7uJpqZGSA4HFmJx89PpHgl2OwJ1fng9HmRzWWiaBrvdjqGtWzAzE8LwlatIpdJoagpiPhLlNyQbbKn/DocD2ezyNxt8Dyit+voAJIeIjKLA4/WguSmIaDSG6zfGkUymoGkapqZnzE+jDSDY7fB5PWhpaYLNbkc6ndHP8T148630HrzE43Gjq7MdsNkQmgsbnkcbR5IkNDQE0BRsRCKRgKYV3mclyYHeni6IoojQXBiappmfSvdo6ecwn9cDJZvVv8fp7+tBTlVx7vxFxGJx9PV2Yz4SQS7HX85uNKfTibo6H1RVhaoWvsbbWpvh83px+uwFzIbC6OnuRCKZRCZj/DmN7t1K/Xe7XdjS14NLl0cwen0M9fV1cLtciEQXzE/fNEvfEzMUqwGCIGDnjm1obKyHpmno6+2B3S4gEU+gq7MNt6amkU5noKoaZkNz/GFog9lsNmwd6EdnRxtyuRw6O9vg83oRno8Ai9entbUZCwtxyLKsj9PG6exow57dO9DQEEBeyyMaiyOdzsDn88Jms2FmNoR8Pg+32wVRFBHhTKUN5fN5sXvXdgiiAJfLif7ebkQXYhAFEQ319Ri/OQlN05BKpzEXnmcgtsEK/d8GSZbQFGxEU1MjwuF52GDje0AJCYKArYNbYLfbEYlEoSgK5ubmEU8kkM/n0dvThemZWaTTafNT6R4IgoCd27diYEsfvF4vUqk04vGE/o0w34M332rvwUva21oQTyTh9bgxF55nKLPBGuoDuH/fbjQ3ByHY7VhYiCGZTOnvtcHGBuRUFU6njGh0wfCLE7p3Sz+H1dfXwetxo7enC9GFGNScira2FoTDESSSKaiqhoaGABaiMSi8Bhtm6eewttZmyLKE3p4uZJQskskUWluakc5kEIlEoaoq6gN1SKXTSKX4PrxR1uq/1+uF3+fFrVvT0DQNoiDC63Vjbm7e/GE2DUOxKrLWbz8BoLGxAR6PC+cuDCMSWUAikURHeyvmowtoqA8gmUqjr68bQ4Nb0NrajGQyddvHoNUJgoD6QB1kWUImc3vffD4vmpsace78JYTnI4hEF9DR3oqFhRiy2SyCjQ2w2WyIRBfQWB9gKHCHlmbAuN0uZDLKir0LBOoQXYjh4qUrCM9H9B86k8kUwvMR2Gw2tLW2oKWlCWNjE/xm5A6s9tvPYn29XZgJzeHG2E3MhechSRL8Ph+SqRTq/D7kcip27NiK/r4e1NX5F7854Q9F63En/b9+fRyhuXm0Njchlc5AySpoCjbyPeAerfTbz5U01AcQqPNDFIXbXufdLheCjfWYmJxiIHAXBEFAS0uT4Qf95XN2BBsbcHnkGsbGbiK6+N67hO/B985ms6G1tRmZTGbFr9/V3oOxuHS1ORjE5K1pNDbWY2GBgcDdKJ6FaubxuGGz2XD6zAWE5sKG/09EUUBnezsmb03DX+dDOsNA4E6ttRIEABoaAvB43Dh/8TJmZuf074HmwoUf/Ht7umCzFcLhTCaDmdk5vgbdgRfrv9fjQVNzEBcuXsbMbAi5nIqW5iDm5sLIZrPo6e6EIAhobg5CFAW+D9+hpZ+DXS7nit+HrtX/jKKgqSkIv98Pl1NGW2szxscnSjpTj6FYhSq+YGv99tNms8HlckLTNDidMhRFQWxxqrrTKaOuzo+p6WnUB+rQ0tyEsfEJDF+5imw2h77eboTnOXV3Pfw+L3bv3AZNy6OlOYjGYAPm5grfUEuSBLvdDlEQAJsNCwsx5PN5OBwigo0NmJ2bg6Zp6O5sx63pGWSzWTQ1BREOz3NPq3VyOZ3YtXMbHA4RPp8Xne1tCM9HoKoqHKIIh0OEqqqQJAl1fh+y2Sy6OjvgkBxIpdJF3xSK8HrciCeShansuRz39FmHpd9+BoMNkJ0yers7EY8nkFEUCHY7nE4ZQB4up7Pwg87iHgH1gTrk83lEolF0drTB7XLh/MVh3BibQKDOj/pAHcJhztZ4Mevpv6ZpyGZziMcT+v8LjY0NmJkNIZNR0NhQz/eAu1Q8C9ghOtDd1am/dhS/B+fzedhsNnR0tGJ6JoRAoO621/k6vw8ulxMzM9xLZi2rbYTf3NSI3u4uzIXDyC3OdFx6D87lcmhsbEA2m4PX50FbawtUVUUmo8But/M9+A6s1n+/34fBgX4sRGNIL/5ycL3vwa0tzVAUBeH5CBoaAlAWZxDQyla6BuZZqFj8haHTKUNVVYiCgECgDul0Bl2dbfC43YXl2vk86gMBSLID0zOz8HjccDgciJZw6VIlW2slSPF7APJAIpFAOpOBzWZDS3MTYvE44vEEkqkUZFmG3+fF3Nw83G432ttaEJoL3xYukNFa/UfRe4CmqUimUnrY29hQD03LYy48XwiRbUBTY+HnN9viHmORSFR/L6HVNQUbsXPHVuTzQF2dD91dHZhbfA9dT//z+TwSySTaW1uQTKYQiyfQ19Nd0p/DGIpVoMaGenR1tetTCtf67afH7cbQ1i2IRhewsBDT926w2Wzo7uxAPJ7AfCQKt9sFh8OBmxOT0LQ8MpkMGhvrkUyluYSjSCDgx64d29Df3wuP26VvBL6lvxdTU7O4OXEL85EIWpubEIsVfvjctnULACA8H0F0MRADgLbWFuSRx8xMCD6fF16vB9H/f3v32RxHtp2J+s3MqizvvUfBkESzj0ajkHTuxMT8t/vfJiSFRroanaNumiYJj0J579LfD5mVhCdIkACBep+I/kCQIDsWgHqz1t577fEEiUQcyUQMxUIBpmliMuVcq5VgMIBff3mF7a0NJBJxd5tzpVzEcqng094B+v0h0qkkVE3FYrHEZr2KSDhkf58HAqhWS/BIEiaTKXLZDFKphNvAtOs9w2QyhWEYyOcy6Dq/RzfXP5VKIhIO4bc379Dp9jCbL7BRq6Db6yMai2KzXkO328NgMHIbYj6fjEq5iJPGGVRVRTKZwHA0Rn8whGVZ0FQNuaxdf67U2SRJwtZmDbuvdlAq5t2t/Xepf8/ZFWAYBmKxKP7m111YloX5fIH5YsEMuANBEFApl/B69yUq5SIsy8RkMkUkEkY+l8Fvb96h1e5iOByhvlHFcDSCT5bdDNZ0HdFoBNFIGM1WG6lkwt6Nd25ncTqdhGGYvGTiFrLsxevdlxiOxheaVqIoolIuwit7MZ3NsFgsIYmim8HT2QzpVBKFvL0LQ1VVbNar9uu7IDCD70gURey+3IGiKFd2I5VLBfhkGZquYzyeAMCdMng0GqNYyKHT6SEcDiEei6FYyCEWjbj5TJ+VSwUkEvErTavrdqHG4zE7A/p9eDwelEtF+3t9NEYsFrVPjAxHKBZz6PUG8Pt9iDsL5Zl0ihl8ziqDX77YQq1aRjgUxGA4QigUvPEkiNfrdTNgvlhAUVR4vR786fUuwuEwlksFk+kMYeekz7t3HzCeTDEYDJFJp6DpGnfsOb6l/ua592Gj8QTLpWLnwstt5HMZzBcLTKczeL1ebFQr+OPDHoajEQbDEcLhIGRZdl/LyL6U7PUvL1CtlJHPZTCZTGGaJuq1KvYPjtA4a6HXGyAej0IURMzn8zvV3zQtbG3W0O720Gg0MZlMoSgKCvnsg+3aZlPsJyTLMrxe77Wd6YDfj5cvtiFJkjsE0zStG1c/NU1Ds9W+Mhsmm0kjFo9ib/8QlmXBcppt3V4fhmEPvk6nUxiNxhce2NeZ3+/DztYm3n/4hP39IySTccRiEfT79qqmZVkYjSfwyT4kk3F7Jo+mo93pXbnFKhoJo1wu4NPeob16nUyiVMwjEY9B0zRIkoRmq43TRvPC560zSZLw6uU2jo5O8OHDHmRZRjGfQ7c3QCQcgt/vQ78/hMcjIZ1OodcfuKvOqzeYkiRCUVTsHRxhMp1hMBy6qxIQcOHnLhgIIBIOodPl9nV8of6pZAKSJKLT7dl/2LJQKGQxm80xHI7QanUuPFQLgoDNeg2TyRSdTg+maSEQ8EOWve7OMJ9PRjwWRbtj76QkoFYtAxDwX//1BpPpDJv1GsbjCWLRyFfVX9M0nJw2MByOsb1dh6IomC+WzIAvyGXTiMdi+Mt//Y5er4/6RhWKqsDr8SAcDqHd6cI0LViwkE6noOsGBsPRhQyulIvo94eYzuZIxGPweDwwDcNtFsdiUTdL6CpBELC1WUM8EcdwMLrwvRmJhOH3yZjPl/B6PBiNxrAs60IGe70etNpdNJttjJ15VsVCDqZpopDPMYPvoFIu2rPXJtMLlxH4/T4kE3H0en1EI2F3UP5dMljTdORyGaTSSXgkCYqiwjRMvHn3B1//L4lGwtjarMOyrAuXEdy0C3W5XLoZIIoiLMvCp70DjCdT9PtDZNJJCAKQTCaQzaQhy14oigJJlPDbm/cXjhivu1q1DK/Xi7/+9hYnp2fupUzKUrnxJMh8sbjyPswyTbQ7PZw2msjlMohFI1gqypVnnlQygdl8zqaY41vqr2ralfdhlmVhMBjh6OgEkUgEhUIO48nU/ZzV+4BYNArTNNkUc6wuJXvz9gP2D45gWhZKhQIGwyFkWcZwNIau6xAEwbnEY47JdHan+g8GQ2QyacxmczdXfLKMaDSCbvdhdkuyKfYTCIdCyOezqNdr2NqsoVIuQhRFd9vnisfjwasXWxiOxvDKXncWFZxZGNetfq6OSp4XCgWxtVnD3t6hOy9GVTVEImGkUylnNTWFQMCPxlnTvZXmOYuEQ/jT611sbFSQSSUxnkzcmzlXYrEogsEgms4QwOVScVfYhsMRysUC6htVFIt5KKqG2Wx+7ZtJ2dk5cNpoYjS2V/mmsxmOj0/RaLbcLe/xWGRtbl+6S/1DwSBSSXvWjuEMY8/nspjN5+j17cbM9taGs4PDcrejn6eq2oVwM00LyUQci8USPp8PO9ubmM3mkGUZtVoFZ832hZuxnitJkvDqxTa2t+ool4tQVe3KduXb6q/pOtLJhDsYORgMIJ/LQlHVax8mioU8otEIPu3ZTXkAUBQV5VIRkiRC03VUyyWMxtO1uOxAEATUN6p49WLbff2/fPOpJEkoF/Nod3pYLJdQFAXhUBB+v99+mPuK+q9qruk6YtEIBEFAp9tb6wxIpRL40+tdVCtlxGIRjEbjK3PByqUCxuOp/fqk65AkEclkAn1nRX8wGEHTdciyjHw+C1EULwyJ9ft9KBby8Hgk1GtVRKMRBINB6IaB6dQesh+LRQFnRXWd3CUD4Mzc8ck+LBZLmKbl7uKyj7qU0Wp3YRgG4vHYtfk5nc4u7HwUICCVTuLo+AQHB0drm8F3yQA4jeFsJo1Otw+/33/hObVcKmI6nWI+XyCdSl47KP+mDJ7MpvjwcR+np2fo9vpYLO0biPuD9TjCepcMgHNr58udLbQ7XYSCAfT6Q7fGX9qFCgC6rrvNYjhZEA6FYAH448Mejk8a6HR7mExnyKST7jH85+7iLuyC/f7pmgyulApot7uYzeewLHsxLxgMoHHWuvEkyE0sy3L/fDKZQLvVRTqdgt8vY7lUkMtlEI1GcHLaXIufgWwmjdevX2KjVkE4ZO8sPd8I+RH1BwDDNJFNp9BqdxAJhxGPRTCbzZFMxJHPZ3B80liLxrB7EqpeQyIew3BknwQ5L5tJQxAEnDXtm7FXza92p4tef+A2E8POjdonjbMbx29crv+q8VWpFDGbzeH1eO1TJr3Btc+xPwKbYg9MujSEDgBKxTxEUUSjcYbjkwaCweC1P4SiKGAynaHT6SGVSEDVPs9buGn18/K2Z1EU8WK7jlbL/gb2OCvcuq7bu2y8HmTSSViWhf39Q+jP7IX4cv0tZ0Xh5YttHBwe48PHfciyF5lM6sqNF6FgENFIGB3nB9c0DCSTCaiaDkWxBwQeHp3g/R+fsFQUbG9tXGhcrtQ3Klgulzg5PYPHIyEUCsE0LRjnvk6qql45GvIcrIbhh0MhaLoG0zTvXH+f32ev4nS7MAwThmEiHA7B6/VgPJ4gk0mh3enhzdv3GI7G2N6qQ1GVCytssuzF1mYd88UCuq7D7/chn8ug1e5gOBpDVTXUahWEQ/bP4Gr46XOxGsaeiEdhAe6bzrtcBX5b/dvtLqLRsP1GPxJ2jlz0EAj4r3wdQ6EgNqpl/PFhD5qqwueTEQwGMJvP0R8MEI/FkEjEMBiM0Gy2Lnzuc3DdINi7XAUuSaI7f2T1PW1Z9hyHxlkT4XDoi/WXJAk723Xouv2aJYoi8rksxuMxprM5BsPRWmbAXa8Cz6RT0M8dCzMME9ms/fohiiK2t+qIhEMoFvLodvsIBgMXtv1LooRgMIjpdIbj0wb6gyHC4RD29g/d1/pQKAjDMJ9tM/4+GQDnAfqs2YIoiojF7KN1cOoWj0Vx1mxDgIBsJo2losIw9AvPQPF4DKVi4XPjKx5DMBhAs9W58AbsuWbwfTIAAGABzVbbPjafTKI/GMA0LciyF7lcBo2zJnTDQDabgaZpTlZ8/jtuy+DVbkkAMAwD49HkQYcsP4Sb6n+XDIDzZq0/GGA4GiOTSWE6nUF1cuRLu1DhvP5tblRhmiYURYXHI6FYzKPfH1yY32Y6x4bPz1x9Lq7L4Fq1DFmW8Ze/vkGz1UalXITpjBdYsSwLrXbXXWwVBAHlUgH9/uDCjsnLJ0EuK+RzSCbi7sJHMhmHx+NBs9VBrzdA1Nk5o6oaPn7av3LS56m7LoM/70D6A/v7hwgEA8ikkxgMPi+Kfq/6J+IxVMpF9++OhEOIRMJoNtvo9Qfw+XwolQoQBODjp4Nnt0vvugz2+314ubONT3sH+OPjHizLQrVScl/fV8bjyYWFotX37vnmoyRJeLFdx1mzfe3i3o31b3UwmUyxVFSUSwVEwiGcNJqfT0A8ADbFHtD1Q+j66Pb6GA5HUFTV/UZtNttXgsg0LTfcgsEA/D6f+2B30+pnzzliGY2E7XkmkTCKpQL8fj+2NmsoFfPwer0YT6bQNA2TyRS9/gCj0RjmMwvC6+s/gNfjdd9YGoYBQRAQj8euzLGQPJJ7vMh0hiaHQkF4JAmCKCAaCeP45NSdxxOPRuxBsc68HlGUIMv2mXWv14vNehXlUhHBQADT6fTCg4tpXnyQfA4ikTD+9OsuJI+EQMCPzY0qRuMJJFG6U/0F52s4HH6+Jtzr9SIatS+XyOUyODw8hm4Yzm4NL2SvF6PxBH6/D16vF6qqIR6LYKNWRSQSRqVSQrvTc1/kV9vcO93es7t1T3KGsadSCZimifpGDaIoYTad3ekq8Nvq3+320e8PMJ7YD9FHJw14JI/blJEkCeFwCJqmoVS0wy6dTmGzXkMmnYJpmphOptB0HcPhCL3+4NpdCk+ZcMsg2NwdrgI3TQuJRAyG/nnGkSDYX5Neb4BOp/vF+iuKCq/Hg+2tDUQiYVQrJcznCxyfNADnoXMdMyAQCNzpKvBgMACfz+fujrEsC+l00j0G3B8MoWk6jk5OYeiGve3feW2JRsJYKgp6vT6m0xl03W7WpJMJjEb2zjMAmExnz7Yhdt8MgNOssiwLkija3/vObqRSMQ/ZKyOdTqJSLsHv98Ene52mgeZmsK5pKJUKyGczSCUTyGTS+LR3cOXG6OeYwffNADhvGkzThAUL2WwGA2cIdTqVRDQSRjQaQa1WQcDvR8Dvd1/H7prBF/6ta97QPmU31X88niB/hwyA8325eu1IJmLQdQOz2fyLu1BFUXQzIBDwY7Nes+tftjPgumPCmqZf+fl7ym7K4NF4gnKpgJazA2n1fJ/PZdC7Zch9NpNGOBxyn/txw0kQOP/26n2YYRiob1Ts46rZNKKRCD5+tJtfpmnaIw/anbXK4FQycWEH0lJRUC4Vr91YsPI19YeT36IoQVEVlIoF5HN2BmSzGXz4tI/lUoFlWRiPJ2i1OxgMru6UeupuyuBAwI9wKITTxpn7HjaXzWCpqDfOlPX7/ahvVLB/cOw25gFga7MG0zTd58qVu9QfABaLJdqdLrq9/oO/D2NT7DuRnNsFzRtmH6yC6rohdOeHuJaKBUwm9vGM23g8EpLJhPuCfdPqZ6vdgSx7sbNVx3Q2gyAIME0TrVYbeweHODw6Rbf7+Zamp0oQBHi9XljfUP/BcIhIxN7qaQ8hLaB5zbE5y7KQzaQwmU7dF4BoJIxgMIDh0F61G/Tt4zNerwf5nD0cUFFU1Deq8EgeKIoCURTQ7nSxv3+Eg6MTtNrdCw2xp8rr8UA4tyX2svpGBe1uD4dHJ+j1B5Cdq6jbne6d6g/LQjKVgKKq7updwO+33zz1B8ikUxhP7cGMgiCgWMhjMrVnnhQL9ry2fn+IwWCEXn8IRVVxcHiM4eh5HM/7Uv1TqSRCoQB+e/Mew+EYs9kcpWIenV4fpmF++SrwW+vfh+yVEQx83hlTKhYwGtn/jr2LqYLBcISA34fxZIqT0zPs7R/itHF24TjHU+XxeCCKwo1HDSOR8I2DYBeLxZ2uApdlGZFIyG3WSKK9e2w0nkAQhDvVfzSeuPMOT07P0O7cfLzgKblPBvf7gztdBS5K9sJIv2+vnoqigEwmjcV8AU3XEHWGghuGiUwmBcMwMBgM4fPJbgZf3A1jotXuPos3/1/KYHyPDDjHgmV/74/sJn0g4AcAdLs9HBweIxgM2M16p4G5yuDhyH7DOZvPMRpPcHB4fOXr/FT98Ay4JJ38fBGH7LUXoXr9AQ4PjiEIApaKgsaZvdt3HTL4SxlwU/17/QFURblTBpxnHx0Loj8YfnEX6vkMGA5H5zKggXbn4XZi/EhfyoCbMng0niASsQfer3YchYJB+6Kfc7fYnmfPddvAx3Nv5nHDSRDLsuDxSG4GzGZztFodqKqKXn9gnwy65t94ar5U/9syWNd1hEJBtznu8UgoFfOYL5YXdoGtfG397Sa0nQGj0dhtgI7HExwdnVw5ZvwU3SeDZ9MZ4vGYM+PXnj2Yy2YgCMK1I0wkScLuqx30+0N0z+3kSibjSKdT+PBxD6ZpIRgIQJZlaJr2JOrPptg9Cc7Q153tTRQLOeSyGQyvub5VFCX4/b5rh9CtfuA9HgmFfA69Xv+L3yCiICKbSaHbt4ciW6Z14+qnYRju1nRFUTEcjrBcKjcG91NTKuax++oFCvkcSqUCxpPJha41vlD/6Wxmz09w3sT0B0OUSwV4nV1GK6ZpIhIJw+ez/x44c8ZM00K700Ug4MdGrWLvwCiXMJ5M0Gp1AAC9/gCT6RSapmMwHDnzUG5+4XpKIuEQ/vTrLkrFPMrlEgRn2OV5kigiEAhgPJ64bwoT8Rgsy8JgOLpT/S3LPqKRSNg7COCsPAQCfvvIjCDYt1w59dd0HccnZ7CcodXnZ5/ouo7l8nkcC7hL/eE8QKuq6s4Z9Pt9iMWiaHe6mM5mX7wK/Lb6tzs9eD0e7GzXkUjEkMtl4PFIODo+hWVZUFXVnfUznkwxcXamPgc+n4xfX79CtVxCuVRAMBC4Mg8SAHyyFzcNgp3N5ne6Cty0THsg6XAEXTfgkSTnSGsPAoQ71R9OM2axXD6LVdDvkcGT6RSzO1wFbpoG8tkMpjP7WJMoikinUvZOb0XFZr2GbDqFTDqJSCSCw8MT6M7OgMvHw56Tu2Tw98iACywgmUpgqdi7aabT2blnGxM+n2x/vZ0H+lUGr6iqeuX/8al6qAw4z3KOPEmiiLFzo1h/MHSfbURRRCwaQd+5Tfg5Z/BdM+C2+i+WyztlwHmSJCGViKPXH0DTdfT7gxt3od6cAU//OfSuGXBjBjsNwo1qGYqiwOPxuMfnJuPplfdjkiRhe6uORqPpXiAB5+t700mQ+WJ5IQMsy8JyqTyL56C71v+2DB6ORigWcvB6PFA1DZVyCYIoujvnzvuW+quqdm0GKM7O46fuvhnc7fXc3b7zxQKFfA6y1wvJudTvskq5CEDAweGR+zHBmYvo88koFvKob1SQSMShaTomU/sEws9efzbF7ki6MIQx725rTiTiSKeS+M+/vsHxSQPhcBCBa2aRmKbpvhDghiF0Xo8X2WwarU73yovJZZZpIplMYDabQ1FV96H7Oa5+wvkGrZRLeL370hmkbmIymSIUDKJaKeG3N+9xeHR84TjReV+qf6VchK7r2Ns/wmw2x3gyRblUdIa8fn5oUBQV1UoJmqrB6/WgUi7ipHEGRVEwGNirb0tFtedRXTMP5SlzhzBubiAUDGAwHEEUBGxt2mfH//iwh8FwiGq15L5pX1k9FK9eiH0+2a2dqqp3rv9SUVHM5yAIdlhubFTQ6XQxnc0xmUzRbHWgKCoaZy20Ls2IeeruU384W5JXOy8EQUC1XMJ0OsNgOEI0GrnTVeC31V/XdbQ7Xeiajm63j0bj7Flt/Q8GA/j1l1fY3tpAIhF3j7nUN6qYzWZ48/YPtDtdlIoFzOb2tevnqaqG0Q2DYP1+352uAtc0DaGQfeHBbD5HsZgDBAHNVgfaM6//j8xgwzDvdBW44dzKWSoVMJ3MkEomEQoFcXJ6BsMw0O50oagahqMxjo9Pn8Xq/8p9M/h7ZcD5vy8Q8EOWZYwufa0BYDx5fpd0/AwZcJ4kSYjHote+aVosljc21J6q+2bAbfW/awacZ1kmsjdcRvCcdqGu3FT/u2bAbRk8n9vPMNVKCZFIGHv7hwgGA1gulSsXNuVzGYRDQUxnM5RKRdTrVaRSSYzHEwgCnuVJEPzgDFYUFaPxBPl8FvlsBp1OD+PJFNFzt9iurGv9f2QGL5f20e1EIo5yqYjJZIp2p4d4LHplrlgwGECtWkan00Umk8ZGrYJatYzxZApJkjAcjnB0fIr9/UM0zloXGmE/u5uaYuKFX5E9dNG08M//8m94+/4jNmoVhEJBWKaJTrfnBpJpml/cASRJEuq1Ck4bzSvnZU3LgnnNA+BlumHg8OgEi3OfbznzYCaT6bN6EAGAbCaFSDiEf/23/8Bf/vo78rksksk4LNhXUq+GZeqGAdOZB3CT6+rv8Xgu/NDf9HfMZnO8e/cRmXQKhUIOf3zcu/DAoqoaRude9J8Lv9+Heq2Kt+8/4J//5d9gWhbqGxVAAMaTiXtLkmXa37/XlM4lCAJq1bK9auB83l3rr6oq3rz7A6FQALVaGccnDbTODXg0DMNZBXk+DWF85/rDmevg8/vcOSKSJNnHbpzftyzrykM27lj//mBo3wx04TOfttXK5MHhMf7pn/8PBoMhdrbq8HgkLJdLDFYzpkx7m/5137vnRSNhpNMJHB03YFkWJFGCIAiwzlXt8hvalb39I4wnU+xs1aGqGv74YA9FxTOuP35wBouCAEmSYJ17DTIM49oanp01cXbWwtZmDT6fjLfvPrj/tmVZGA5HzOAv/AzcJwPOa7Y66D2zy1Bu8rNkwHnD0ejaWVTP0ffOgCv1/4oMWFFVDXsHR1/8c8/BTfUXRfGbMuByBgNAp9vD//3Lb/jt93dQVRUeSbr25s3VTfTpdAqTyQS/v3mP3357i8l0hr39I/R69s695+ZHZjAAzOcLvHn7B/7jP/8L7U4XwYD/wkUHK+ta/x+dwaqq4ePHffz7f/wFJ6dn9rFH3bjy+hIMBOD3+1Ao5GEYBvb2DvDv/99/Yjye4PDoBGfNNhaL5bXPT0/V2uwU83gkhEMhFIt5bFTLWCyVKwNXJUlCuZhHu9PDYrmEoigIh4Lw+/1otjqYTmfweCRsb20imYjZf26xgCAICIWCyGZSiEUj7kPLTUPoPJKEtDMc/0sPI3DeoH7phednJ4kigsEACvksatUyBEHEdHZ1jki5VMB4bM9a03QdkiQimUygee52i41aGeVSAe12z34hdVaSM+kkUskEps6V99fV3zBNVCtFKIoKCxbqtSqWyyU63asroJqmoduzL0h46s0XwVktyKRTqJQLSKUSGA4uXoOMcyHUdAZRL5cKSsU8+v0h+v0hdF1HIh7D7qsdTKZTjIb2rV1ejweJRAyFfBaKqkLTdBQLeUSjEXzaO/z8Zv4r6m8YBvr9ITrd3o0r2E+JLMtIxGMol4vO0bjPV6yvfGv9PR4JsWjUXhF1bpsKhYLY2qxhb+/QfRgxDB3ZbOZOV4GvY/1DQXt31mmjCcO0j53kc1lMZ3N0uj2oqoZQMIhffnkBwzDdh7Lr6n/dINjV1+8uV4FbzuJHq20P1r/8s/rU/AwZbFkWRFG881Xgs/kcrXYXw+HoyvfKU/MYGXzfDFgxLt2s9xQ9RgbfNwNWTNO8tmnw1Dx0BlxX/6/JgPMU5ec6fvQt7pIBN9V/dTrmazLgugwGgK3NDWQzaUymU2TSafj9PjTOWlfq2+sPcHLaQKfbc4+rPmV3yYBvzmDnWOPlDLicwXCO8v3y6gUmkykCAT+KhRxOGmdXvv/Xsf54gAwOBgP4m19/wWKxhCRKqFZKaLbsBtd5i8UCRycNNFv2v/uzHYG8j5t2ij3LppjX44HknFEGAJ8s42//26+IRMJYLBY4aZxhPptf+eJKkj1wbnU9MQBYlr3Ssxq4C9hDRdvtHjY2KvB6ZYRCAWxv1mGa9m0Wy6Vy6xA6SZIQjYQxGA6vPS7w1Hk8HveKaPvXEn795RUymRQURcXZWQuj8fjaWWeZdAq6rrtvUAzDtG8+cm4HEQQBum7g7KyNfC7jnpPefbkNURCcmTELJBKxa+s/mU4xnkxRLOSQSsTR6fZxcqlp+dRJogjZ6wUsy/0er1ZKeLG9CdOy0OsN0Gpff3Q3FAwiGgmj07WPQ5iGgWQyAVXT3ZUcQRDQbnchSRI2N6uYTGfYfbmDcCiE+WKJyXTmHBEo448Pe9BUFT6fjGDQPuP+3OsvCAJk2QtB+DyIN51K4tfXryCJAkajCU4bZ9CueZP3LfUfjSfY3qojlUpguVQwmcxgGAZebNfRanXR6w/g8XgQDoegqhq63f6zvgr8PvX3+X3O7JEuDMOEYZgIh0Pwej3uw4gg2A9riqLixc4WprMZNuu1C/W3h41eHQRrmvZK33O/CvxnzuDBcPioV4E/hJ8hg4PBwNpmwM+QwZZlMQMeMQNuymBd19HrD5gBN2TAXep/1wy4LoMtZ7ZhJBJGrVqGpmn2JQVPfNHjsm/NgG/NYFGSrmTATe/DxpMpDOc4cjAYsI/SP7NbyL+1/niADJ7N5pjPF9ioVZCIx3B80sBg8LxGEHzJTU0xYWNz5+pX5As+dxtDl3/rUUXCIbx8sQ3TNCFKIpSlgjfvPsAjSXj5chvv33/84mrXq5fbGI+naJzZW50DAT9e7mzh7bsPVz53dbTuzdv3F7YdCoKA3Vc7CAT8kEQJsuzFcmnfzrP6e58jn0/G7ssdeDwewPk+efP2D2i6hlcvtnF4fOpu37xJtVKCLMv4+GkfcF5Yftl9gf2DoyufG42EsbO9id9+f3fha7Ou9RecAfSZdAqLpYJgwI+Pnw7Q6fZQrZQAAEfHp5c/7YJIJIyteg2/v/3DfdGob1RhGMaVz/VIEn59/Qonp2dXZgHUN6rIpJMwTQt+vw+qqqHV7uDkpPHsHj7OKxXzqFTsq89DwQBOTps4PjlFOpVEOp3Eu/cfL3/KBd+r/vFYFK9e7WC5VBAKBtwHwf2D4xuvXX4O7lt/nyzjl90X+OPDnvuQlstmkEjErv3c3ZfbmM0XV742gYAff3q9C825LU8QBEwmU/t17Jab9p46ZvDj+lkyGGuaAT9TBjMDHjcD1rX+982Ar63/TRmwrhn8PTKAGfztvkf9mcE/3nz+eebjeU9yp5goishm0yjkczAMA4qiQhJFZwhpCx/3DtBsdZDNpGFZJmbzOVLJBABgo1ZBuVSAYdgfP08QBMheGZFIyB1cJznXlY7GE4SCAYRCQbd7HgmHEQwG0Ll0nbUkSQj4/U96CN1tBACpZAKlYgGCIGDp1KO+UcV0NsPb9x/QOGu5Qxj7gyGSyQREQUChkEO9VoUoileCSQAgSiJSyYS7IiGKAjKZNBbzBQRRQCoZx9S5xTMQ8CMei6LV6V7YAv/c6w9n+2u1UkIoGMR8voBpWReGYJ41W1gsliiVCuh2+/BIEhKJuL2dfGcLkUgYk8n0mp2KFjLpFCbTqXtkNBqxv88Hw5E7dNN+4JGQzaQxGI2vPOSFQ0GMJ1OcnJ5hb/8Qp40zjEbjK6uCT9V19XeHYP7+HqeNMwyGI3cQsgUgmYjD45Gws72JVCqJ6WwGTbu8Ov996u/zyTBNE61WG3sHhzg8OkW3e/2V40+RT5ZRKRcQj0exWNi3K36P+gsCkEwmoKiquysj4PcjHo+hPxgil83AMAzoqxuVMmnM58srry2y7IUoCs92ECwz+HH97BmMNc2AnymDmQHflgHA98mA517/H5cBN9e/1+8jFo3eKQPWMYPxnTJAlpnBX/KjMhhO7ZLM4B/qpp1iP3VTTJIkJOIxBAJ+qJoGy7Lg8UjYffUCAgQslkv3OnVV05BJp9wz/5ZlIZWMQ9Xsq9az2Qwi4ZAzvHiCer0K07QgSSK2NjewtbmBaDSMTqeLfD6LgXOjj0eSnK28PUiShBfbmxBFCbFoBKVi3p4VcOlMvGVZGI3GT/4MtCSKiMeiCIdC0HQNpmlCEARsb9cRCoUwHk9QKRfh9Xoxnc2Ry6bR6w/dh7NIOAyv14v+YIh0OolUKonj4wba7a59nXXQj6WiYHtrA5ubNWQzaTdEp7M5FEWFKIpIp1Lutb87W5vw+30IBAOoVks4OT270jl/zvUHgHQ6hfpGFf3+ENGofQSi2+sjHosBgoCes2Ls9XiQSibQ6fbh9/lQLhUwGo9xeHyCUDCIcrmIwXCEcqmA7c0NbNTKGI7GkGUvfD77OmU4M05M017lLBXzyGTSEAQBtUoJS0VF45oBvGPnIojLMwKeEsE5ypKIR2EB7sPzTfUPhoIIBPxod7qwLDvIsuk0+v0hBFFApVSAqqjYPzyCKAjY3KxhNBojnUpie6uOrc0aFoslRFG4d/0VRcVwOMJyqVy7Pfup8PvtwJc8kjtcNBwOYfflDkaTKbxeL2rVMobDEXx+31fXfzgYIRgMuBkQDocwGo2RSMTcB8JgMGD/ve0uUqkEquUSTNNCqZSH1+vFweHxlYcMTdMxGI6wWNhvXp8qZvDjui4DnkIGY00z4GfKYGbA3TLgcgYvlwo0Tbt3Bjzn+v/IDLg1gzs9+HzynTJgHTN4qSjfJQPa7Q5yuQwz+IEyeDSeoFopuRnQH4yQiMeYwT/Qk2uKZdIpvP7lBSwLiMUiqFZK6PUHCAWDiMWi+PRp3x78pigolQpotTpottruKoDf70c+l0Gj2YKqau62zeVyieVSgWGYyGRSGI0n0HUD+4dHaDXbUFQNoZA96HE2n6NYzAGCgGarg+VSwWAwQjQahqbpODg4vnKF73MRiYTxp193IXkkBAJ+bG7Ys4skSUShkMfHT3sYObNBqpUS+v0Bzppt94VAkiSUy0W0Ox0sFktomoazszYm0xlUzf565HNZjEZjmKaJ4+MGTk7PoGk6RFFEqVTAdDJDKplEKBTEyekZVFVDr9dHIBCAJIo4Ojq9chXwc3FT/TVNx0atjGazjXan616nblkmmq02+s7NSACQy9krmt1uH4Zpoj8YotPpQdd1TKYzZDMpLJUlAAHNVtu+5XSxhKKoqFZK0FQNXq/HvcpXURT0+0NYlolQKIhOp4dG4+xZ3TyyIkkSXv/yCqlUAqZpor5RgyhKmEymN9a/2+uj0/28WpZKJuDz+3DWbMM0DYzGUzRbbWiaXf9YLApY9hDj/mCIvX17azTrbwfVi+1NlEsF6LqOcrmASDiM/mCIUjGP+XyBk5MGBs519oFAAM1m++vr78zGMAzTzYCloqKYz0EQ7HkoGxsVdDpdTGdzjEZjLBUVsVgEg4G9AvqUH7hvwwx+XDdlADP4YXxLBjCDv58Hy4BrMpgZcHv9o5HwD82A2+q/VNYnA742g9udLtrt7r0zYKkozOAHzODBcAjZK7sZMJvNmcE/2JNqink8Euq1KvYPjtA4a6HXGyAej0IURFiWhWAwgHbHHoyraTqymTQWi4XbqRYEAZv1GibTKbrOjUaKolwILq/Xg3gsisZZ0x36t7JaqSuXCpjO5jg8OnE/V9N1+yr26cXPeW7qGxW0uz0cHp2g1x9AlmVEIxEsFkvEY1G02/ZWTd25Scc0Lcyc7ZxwrvQVBMG9hlpR1AurBaIoIpVKotlsYzgaXxjyOp1OYZoWqpUiDNPE3v6h+7mGYWA8ntgNoie8+vAlN9V/PB4jm8k4w6IVWJYFQRCQSiUvzBSJRsIoFvLYPziGruvO9urPKzn2Cl4Cs9kc7U4Xiqq6q5mapmE8mqBYyCEcCeHg8NhdhbAsC7P5wl0Bfa5SqSRCoQB+e/Mew+EYs9kcpWIew9EE6WTyi/UP+P2ob1RweHiMpfPac7le0UgYANA4a2LpHIcB6w84DyPZTAq//f4O/cEQw9EYpWIe4/EEyWQc0+nMfb0xDRO5XBa93sCt4dfUv9PtYTqzByPDeY0ZDIfIpJNIJhNonLXcHAGA5XKJwWCE+WJxZXfAc8EMfnw3ZQAz+GHcNwOYwffzkBlwOYOZAbfXfzWw+0dlwJfqvw4ZcN8Mxj0zgBn8cBnc6fQwHI0vZAAz+Me6qSkmXvjVT8O+PWFxKcAM5xy/JEmQRPt/Xdd1LJdLRJxwA4ByqQi/3+d+I8L55nz5YguCIEAAkEmnMZ5MLwwGXDFNE6eNJv7621ucnJ496x/660iiiMViidmls86r+ouiCEmy629ZFiaTKeLxqPvn0ukUMukUjo9P3QeGdCppd9wlCQCQTMahKArUa7Z1WgDanS7++ttb7B8crd3Wz9vqbxgmDNOA1+t1Pz6bzeGTZXi99mBHn0/G9nYdjbMWFs6Khc/nw9/+zWvEohHAORIiy95rrwMGgNl8jrfvP+Dd+4/Xbst97izLRL8/uPDAa1qW/ebmC/X3eCRsb9fRHwwxdmpn3zzzEtlMGnDmXUSikRtXeNa9/nCGEp9/gLYsC6ZlX3Xv9/vcj88XC4iCAL/P/tj3qL+iqPjwcR9v3v6Bft8+wrFemMGP6bYMYAY/jPtkADP4O2AGPK5b6v8QGbD29b9nBt83A5jBzOB19FM2xXRdx8Hh5xtaQqEgfLKM0djupHokCV758wPJYrGEzwnDcDiEdDqBPz7swXCuLpUkCa12Bz5Zxp//4e/w53/8O3gkEcfP7Brw78UwTRwdn7oDAH0+GfFYFN1eH5qmw7IsBPx+988vFkt4vV5IogifT0alVMDHT/tYLJcQnBuSBsMRVFXFP/793+LP//B3SCYT2Ns/fLarbPdxW/0ty8JisUQ4/Pnm19WLpddjX0Feq5TR7fbR7nQBp/6KoqDZauOX3Rf4x3/47/hldwdHJ6dXVk7J1uvZ26DhrCRkM2kMBkNomnZr/QGgkM9DUzX39UWSJBiG/YBR36jiz//wd/jv/+1XdDpd98plumgyneHo+NS9ISedSmE2n2O5VOxbxUJBd4XHNE3ohuFmAut/f8zgx3VbBjCDH8a3ZgAz+PtgBjyu2+rPDPjx7pPBzID7Ywavp5/y+OR5kiThxXYdZ802RuMJLNNEMpWAoevuNsVYLApZ9qLXG6C+UQUgIBoNY3Ozho1qGV6vB51uH612F81WB6enZ2ifmztAN3O3QE+m6HR6ME0TkXAYsiy7K2zBYADRSBidbh+FfA7BQAAerxebmzVs1msIhYLo9gbodHtotto4a7Zw1myv3crDt7hc/9XHstk0ul27SeaRJGRz9jBZn09G2RkmW6tVsLVZQzabxng8QX8wxGmjiXa7g+OTBhbObSl0u2wmjVg86obXbfUXRBH1egWLxRLlYh5bmxvu9vPBcIRG4wwtp/6rFWy6XTQSRrlcwKc9Z/u4BeRz9hFiXTcgiiJymTQmznZz1v/7YgY/rssZwAx+eF+TAczg748Z8Lgu158Z8LC+NoNLxTwz4DtiBj8/Nx2f/OmbYlubNZim6a4mWJYFy7KQz2XRdW4mKeSyGA5HUBQFmXQKpmFgOBzj4PAYBwfHFwafmqbJF+GvUCzkEY1G8Gnvczdb03WUiwUMhmPouo50OglV0+yBs5k0REHAeDLF8XEDewdHaJ+7qtc0rSd9E89Du67+uq4hnUrCNO3rrMOhIKKRMBrNFoKBAKLRMBZLBY3GGQ4Oj3FyYg9nXDm/HZ5uFwoFsbVZs2/XcVb0b6u/T5aRiMegahqa7Q72D45weHTirvaB9f8qsizj5YstnDaaGI3thw9d1xGNhp1V0wlk2Yd0KoGzZhtej4f1/86YwY/rugxgBj+cr80AZvD3xQx4XNfVnxnwsL4mg2ezOTPgO2MGPz83NcWEjc2dr/7KrL6wweDn7eM/QjIZR6Vcwpu376HrBgJ+PwRBwHyxwGa9ikw6DcA+9/7x0wE7rt9ZKBTEy50tvHv/EYvFArJPhizLmEymKBXzqFRKsEwL8/kc7z98uvDQR/d3W/0j4RBevtiGJEkwLRMfP+5jMBxd/ivoHkRRxC+vdtDtDdBsteHxeBAMBjCbzREM+Fn/B7C9tQHTNLG3fwSPR0IgEMByqUAUBey+3IHf74NlWTg8OkWzZR91ou+HGfy4bssAZvCPxwx4fMyAx3VT/XVdZwY8AGbw42IGP0/zuX0s9sk0xQRBwO6rHQQCfkiiBFn2Yulc59s4swc3iqJ9CwdXHH6M+kYVmXQSpmnB7/dBVTW02h2cnDRgmCYEQYAgCFx1+0G+VH+4szIYgj9CPBbFq1c7WC4VhIIBWM7g2f2Dz3MeWP8fJxDw40+vd6FpGgIB+0FwMpli/+DInfPA+v84zODH96UMYAb/WMyAx8UMeFx3qT8z4MdhBj8+ZvDz9OSaYpIk2XMZVBXD0RjLxRJf/T9K91IuFWBZFoajMebz53v19M+K9X9csWgEyWTCvXr6uhuS6McJBgPI5zIYjScYj3j19ENjBj8+ZsDjYgY8LmbA42L9Hxcz+PExg5+nJ9cUIyIiIiIiIiIiuq+bmmLihV8RERERERERERGtATbFiIiIiIiIiIho7bApRkREREREREREa4dNMSIiIiIiIiIiWjtsihERERERERER0dphU4yIiIiIiIiIiNYOm2JERERERERERLR22BQjIiIiIiIiIqK1w6YYERERERERERGtHTbFiIiIiIiIiIho7bApRkREREREREREa0fY2NyxLn/wSyzL/pRgMHT5t4iIiIjoifJ4JPyy+xKxaOTyb2E0nkDTNMxmcxwdn17+bSIiIqKf1nw+AwAIgnDh42yKEREREdEVkUgYuy+38fb9R0wm08u/TURERPRk3NQUk+KJ1P974SNfweuVL3+IiIiIiJ4Bn09GJp1Et9eHqqoAgFcvtxEMBjCbz/Hr610EgwHsvtpBvVYBABQKOey+2kE+l0W324dhGPB4JPz6ehcvdjZRq5Yxny8wXywu/WtEREREP46macA1TTHOFCMiIiKibxKJhPFv//5/8fbdB7fh9S//+u9YKgpyuQwAYHurDlVV8b//6V/x9t0H7OxsIhIJX/6riIiIiB4cm2JERERE9E2GwxF03YCiqpjN5mi1OtB1w91Z5pNlRCMRdLt9+8+PRpjN5vDJPG1AREREj49NMSIiIiL6JvP53Y5B7r7awf/6n3/G//jz3yMWjSAYDFz+I0REREQPjk0xIiIiIvphdF3Hf/71d/zvf/pX9z/eXklEREQ/AzbFiIiIiOiHUFQV88UCpWIecGaQ/Y//5++RTiUv/1EiIiKiB8emGBERERH9MB8/7UOWZfyv//ln/O3fvMbp6Rm6PXvGGBEREdFjEjY2d6zLH/wSy7I/JRgMXf4tIiIiIiIiIiKin8Z8PgMACIJw4ePcKUZERERERERERGuHTTEiIiIiIiIiIlo7bIoREREREREREdHaYVOMiIiIiIiIiIjWDptiRERERERERES0dtgUIyIiIiIiIiKitcOmGBERERERERERrR02xYiIiIiIiIiIaO2wKUZERERERERERGuHTTEiIiIiIiIiIlo7bIoREREREREREdHaYVOMiIiIiIiIiIjWDptiRERERERERES0dtgUIyIiIiIiIiKitcOmGBERERERERERrR02xYiIiIiIiIiIaO2wKUZERERERERERGuHTTEiIiIiIiIiIlo7bIoREREREREREdHauVdTzLr8ASIiIiIiIiIiop/Ebb2r+zXFLPPyh4iIiIiIiIiIiH4Kt/Wu7tUUMwzj8oeIiIiIiIiIiIh+Crf1ru7VFNN1/fKHiIiIiIiIiIiIfgq39a6+qSkmCAIAwDJNaLp2+beJiIiIiIiIiIgelaZrsEz7+OSql3XeNzXFzlMV5dataERERERERERERA/JMAyoinL5wxd8c1Ns1WETBAHL5YI7xoiIiIiIiIiI6NFpuoblcnGhd3Wdb26KnScIAlRFwcJpjpmWCeu2Oy+JiIiIiIiIiIi+A8sCTMse8bVYLqAqyo2NsPOEjc2de7WvrEvdr8u/JiIiIiIiIiIiegiXm2GXf33evZtiK2yGERERERERERHRz+C2ZtjKdzk+Cecfu8s/SERERERERERE9CN8TX/qu+0UIyIiIiIiIiIieiq+204xIiIiIiIiIiKip4JNMSIiIiIiIiIiWjtsihERERERERER0dphU4yIiIiIiIiIiNYOm2JERERERERERLR22BQjIiIiIiIiIqK1w6YYERERERERERGtHTbFiIiIiIiIiIho7fz/XvVhLclg0rIAAAAASUVORK5CYII=;" vertex="1" parent="sY0r-H6f3rgbmZUliDn9-19">
          <mxGeometry x="98.88" y="114" width="212.25" height="80" as="geometry" />
        </mxCell>
        <mxCell id="sY0r-H6f3rgbmZUliDn9-24" style="edgeStyle=orthogonalEdgeStyle;rounded=0;orthogonalLoop=1;jettySize=auto;html=1;" edge="1" parent="1" source="sY0r-H6f3rgbmZUliDn9-7" target="sY0r-H6f3rgbmZUliDn9-4">
          <mxGeometry relative="1" as="geometry" />
        </mxCell>
        <mxCell id="sY0r-H6f3rgbmZUliDn9-26" style="edgeStyle=orthogonalEdgeStyle;rounded=0;orthogonalLoop=1;jettySize=auto;html=1;" edge="1" parent="1" source="sY0r-H6f3rgbmZUliDn9-5" target="sY0r-H6f3rgbmZUliDn9-6">
          <mxGeometry relative="1" as="geometry" />
        </mxCell>
        <mxCell id="sY0r-H6f3rgbmZUliDn9-27" style="edgeStyle=orthogonalEdgeStyle;rounded=0;orthogonalLoop=1;jettySize=auto;html=1;dashed=1;" edge="1" parent="1" source="sY0r-H6f3rgbmZUliDn9-12" target="sY0r-H6f3rgbmZUliDn9-5">
          <mxGeometry relative="1" as="geometry" />
        </mxCell>
        <mxCell id="sY0r-H6f3rgbmZUliDn9-31" value="&lt;font style=&quot;color: rgb(135, 145, 150);&quot;&gt;&lt;b&gt;User&lt;/b&gt;&lt;/font&gt;" style="sketch=0;outlineConnect=0;fontColor=#232F3E;gradientColor=none;strokeColor=#232F3E;fillColor=#879196;dashed=0;verticalLabelPosition=bottom;verticalAlign=top;align=center;html=1;fontSize=12;fontStyle=0;aspect=fixed;shape=mxgraph.aws4.resourceIcon;resIcon=mxgraph.aws4.client;" vertex="1" parent="1">
          <mxGeometry x="630" y="702.5" width="75" height="75" as="geometry" />
        </mxCell>
        <mxCell id="sY0r-H6f3rgbmZUliDn9-33" style="edgeStyle=orthogonalEdgeStyle;rounded=0;orthogonalLoop=1;jettySize=auto;html=1;entryX=1.002;entryY=0.497;entryDx=0;entryDy=0;entryPerimeter=0;" edge="1" parent="1" source="sY0r-H6f3rgbmZUliDn9-31" target="sY0r-H6f3rgbmZUliDn9-19">
          <mxGeometry relative="1" as="geometry" />
        </mxCell>
        <mxCell id="sY0r-H6f3rgbmZUliDn9-37" value="" style="shape=image;imageAspect=0;aspect=fixed;verticalLabelPosition=bottom;verticalAlign=top;image=data:image/png,iVBORw0KGgoAAAANSUhEUgAABwsAAAgACAYAAADZv9wBAAAABGdBTUEAALGPC/xhBQAAACBjSFJNAAB6JgAAgIQAAPoAAACA6AAAdTAAAOpgAAA6mAAAF3CculE8AAAAB3RJTUUH5godDycrmS/JxAAAAAZiS0dEAAAAAAAA+UO7fwABEM5JREFUeNrs3Xm0ZFdB73F6TodMhBAIYyIB+t4EKZAkVbU38gRlkCEKKIgiZ59+KDgrPjTwfE4MojxBEH36AJGpq5nCYuYpGkDDIBCJCAJBArWrqjNWCEknPfr2DbkQIEMPd6hT9fms9V33D9YKSQ3nnLt+655zu6qbH1TF/sPr2N9UtUdrbgcAAAAAAADMhir2H1XHvKuO/Tem7vD0Og42V62x0RAAAAAAAACm3Y1j4X/d2OV1HDw3tUenppA3e3UAAAAAAABgin3XWLjQ3hT7/5ZCrlLMJ5X/fZNXCQAAAAAAAKbQzYyFi12VYn5L6fF1yCdW7dF6rxYAAAAAAABMkVsZCxfLdch/mkKOdRgeX7XGa71qAAAAAAAAMAUOYCxcaHfpgjoMzkmdYWtrZ3ikVw4AAAAAAAAa7gDHwsWuqUN+b+npKeTvq7p5g1cQAAAAAAAAGuogx8LFdqSY/6YO+Ql1Z3inqjVe45UEAAAAAACAhjnEsXCxL6aQ/6iOg4eX3JoUAAAAAAAAmuQwx8KFdpU+nkL+7fLPmiut86oCAAAAAABAAyzBWLjY1aW3pZifWXWGJ1btkRcXAAAAAAAAJtkSjoWLDUqvrUM+u2qNj/AKAwAAAAAAwIRahrFwsQtTyC8r//zgVQYAAAAAAIAJtIxj4UI7Sx9JIf9W+f85xasNAAAAAAAAE2SZx8KF9pUuKb27jv1UtUfHedUBAAAAAABgAqzAWLjYntLFpTfWYfiwqjXe5NUHAAAAAACAVbSCY+Fi15U+k0L+49Lp3gEAAAAAAABYJaswFi7emvSq0j+lmH+5/DvczTsBAAAAAAAAK2yVxsKb3pr0itJ76+7g8VV7dJR3BAAAAAAAAFbIKo+Fi+1OMQ9Lr6njwK1JAQAAAAAAYCVMyFi40P4bRsOQv1J3B+ds7Qzv7N0BAAAAAACAZTRBY+FN25tiviCF/OTUzceks3asqVpjbxYAAAAAAAAspQkdC79dyO9PneGZVXdwZPl3XeMdAwAAAAAAgCUy8WNhKcX+N0r/O4V8Svn3PaLkjQMAAAAAAIDD1YSx8FujYcjDFPtbU8x3r9qj9d49AAAAAAAAOAxNGgu//ZeG+fwUBo+s4+DEqjVe510EAAAAAACAQ9DEsfDGrqvj4OWpO4gp5OO9kwAAAAAAAHCQGjwWLrQ/xf7XUsjPLT2g/Lcc5R0FAAAAAACAA9TwsXCx61PI56eYn1XH/paqPdronQUAAAAAAIDbMCVj4WJXld6SQn5SHYb38DxDAAAAAAAAuBVTNhYutLd0UR0Gf5a6g0emkO/oXQYAAAAAAICbMYVj4bduTVr6ZIr5d0pnep4hAAAAAAAAfJcpHgsXu7L0d6VfqTvDU9yaFAAAAAAAAG40A2PhYjmF/LoU80/VceDWpAAAAAAAADBDY+FCe0r/kUL+87o7eNjWznCzTwAAAAAAAAAza8bGwsV2lj6eYn5+FfJpVTe7NSkAAAAAAACzZ0bHwsWuKJ1Xh/zM9ODLjqtaYx8IAAAAAAAAZseMj4WLfTXF/jvKa3G2TwQAAAAAAAAzw1j4Hc8z/GIK+W/Ka3KaTwYAAAAAAABTz1h4s88zvKCO/XOq9ugEnxAAAAAAAACmlrHwZttfurL0T3UcPKlqjY/0SQEAAAAAAGDqGAtvtb2lHQvPM0whd3xaAAAAAAAAmCrGwgNqd+mrKeSXltfr3j41AAAAAAAATAVj4UHdmnRP6TN1yFur9ug4nx4AAAAAAAAazVh4SF2fYv77OgwfW51x6dEp5LU+SQAAAAAAADSOsfCwuiqF/DelB5eOqLp5jU8UAAAAAAAAjWEsXJK+nGJ+Tgr5PnVnuKlqjX2wAAAAAAAAmHzGwiXtY6k7+MkUBveo42C9TxcAAAAAAAATzVi4tKXY31l+vi2F/LDy2h5fcmtSAAAAAAAAJpOxcJlGw5AvSzH/fumsqjM8smqPfNgAAAAAAACYLMbC5f5Lw/y5OgyeWYc8X7XGbk0KAAAAAADA5DAWrlAhvzOF/JTyep/iUwcAAAAAAMBEMBau6PMMxynmV6WQH1Fe9zv69AEAAAAAALCqjIUr3t4bbk0a8x/WsR+q9uhIn0IAAAAAAABWhbFw1dpZ+lDpN+owXHie4QafRgAAAAAAAFaUsXDVu6L0lhTy1tLdfSIBAAAAAABYMcbCiWhf6eLSX6aYH13ek+N9MgEAAAAAAFh2xsKJ6prSp0p/VHcHZ1Tt0RE+oQAAAAAAACwbY+Fk3po0xfwPpWfX3dGpVWu8zicVAAAAAACAJWcsnNj2lgYp5HfW3cFTtnaGx/q0AgAAAAAAsKSMhRPfrtKXUsyvTiHHqps3+dQCAAAAAACwJIyFjXqe4efrkP8knbXjHlVrvManFwAAAAAAgMNiLGxcV6XY/0R5336utNEnGAAAAAAAgENmLGxk+0qXp5A/VN6/rk8xAAAAAAAAh8RY2Oj2li5NMb++ao/u6tMMAAAAAADAQTEWTkW7S8M65P9RtcZH+VQDAAAAAABwQIyF0zUaptj/TAr5MaV15b1d4xMOAAAAAADALTIWTmXXppDfnmK/Xcf+EVV7ZDQEAAAAAADgexkLp7pL6tj/49Qd3K8OwyOq1thoCAAAAAAAwLcZC2eiz9Zh8HOpPbpXCnmTTz0AAAAAAAA3MBbOTNekkN+VYj67dOfyvm/w6QcAAAAAAJhxxsKZa5Bi/svSD9Wd4bFuTQoAAAAAADDDjIUz27+nkJ+dwqBVx8Fm3wQAAAAAAIAZZCyc6a4v/WMKOdXdwalbO0O3JgUAAAAAAJglxkKVrqpDfn2K+QlVyHepunmtbwYAAAAAAMAMMBbqJl1cemkd8g+lB1+2uWqNfUEAAAAAAACmmbFQN9NHU8i/VT4bD/QNAQAAAAAAmGLGQt1C16WY351C/vnyGbm7bwoAAAAAAMAUMhbqNrq09JoU81Oq9ugY3xgAAAAAAIApYizUAbS39IXSn9Zx0Kla402+OQAAAAAAAFPAWKiD6NrSh1LI/6t0P98eAAAAAACAhjMW6iDbX7qs9K4U8jPK5+ck3yIAAAAAAICGMhbqENtd+mppWx3y46r26Pa+TQAAAAAAAA1jLNRhtrP02RTzS+ru8EFVa7zBtwoAAAAAAKAhjIVagvaVrqpD/ngK+Tmlu/tmAQAAAAAANICxUEvY3tIVKeb3p5DPrrrZrUkBAAAAAAAmmbFQy/Q8w0vrkN9Qt0enV63xOt80AAAAAACACWQs1DK2K8X+18rPF9dxcEffNgAAAAAAgAljLNQyt3/hLw1TyF+qu4Onbe0MN/rWAQAAAAAATAhjoVayFPP5qTP8/jrkjVVrvMY3EAAAAAAAYBUZC7Uqf20Y8svTWTtOLp+/I3wLAQAAAAAAVomxUKs1GKbYH5aenUI+qXwO3Z4UAAAAAABgpRkLtcrtSSF/KsX+j9exf+eqPVrvWwkAAAAAALBCjIWakL5ex/7rUhg8tA7DO1at8VrfTgAAAAAAgGVmLNSE9bU6Dn4/dQdnppCP8Q0FAAAAAABYRsZCTeStSWP/kynmZ5XuVz6jm31TAQAAAAAAloGxUBPcFSnmt5WfT627g3t6niEAAAAAAMASMxaqAV1ch/znKeZH193RnTzPEAAAAAAAYIkYC9WQdpcuSGHwh3V30N7aGbo1KQAAAAAAwOEyFqphXVOH/IHy85dTyPeputmtSQEAAAAAAA6VsVANbUdpex3yz6azdhxftcZrfJsBAAAAAAAOkrFQDe+iFPIr6zh4XMlfGQIAAAAAABwMY6GmoF2lf00hv7h8nu/rWw0AAAAAAHCAjIWaqucZxvyBFPNvVO3R8b7dAAAAAAAAt8FYqClrf2lUensd8pOq1nizbzkAAAAAAMAtMBZqSttT+kKK/deUz/hDfNMBAAAAAABuhrFQU/5XhteWPp1C/t3yWT/FNx4AAAAAAOAmjIWagfaVrix9qI79rVV7dKxvPgAAAAAAwO2MhZq5W5NeVjq3DsMfqlrjTY4AAAAAAADATDMWagbbVfpKCvmlpfs5CgAAAAAAADPLWKgZfp7hwmj4mRTzL5fvwYmOBgAAAAAAwMwxFspomPeWzkvdwWOrzvCoOg7WODIAAAAAAAAzwVgofbMU+9eWn2+q4+D0ujvYtLUzNBoCAAAAAADTzVgofddoGPIldXfwO3UYnFKFvKnqZgcKAAAAAABgOhkLpVv6S8P8mRTy0+qQ755+4PJ1jhYAAAAAAMDUMRZKt1HI70vdwQ+W78oJjhgAAAAAAMBUMRZKB/Q8w6tLL0khP7B8Z4525AAAAAAAAKaCsVA64PankL+cYv6l0v2r9miTIwgAAAAAANBoxkLpoNuVYj6vDoOfKt2rao3XO5IAAAAAAACNZCyUDrkrSn+VQn5c6URHEwAAAAAAoHGMhdJhtTfF/KXy8wUp5IeU79OxjioAAAAAAEBjGAulJWln6fzSc+qQW55nCAAAAAAANIKxUFryW5O+I8Vc1d3hyVVrvM5RBgAAAAAAmFjGQmnJ21O6qA75VSnkHysd70gDAAAAAABMJGOhtGxdV/rXFPOLS6F81450xAEAAAAAACaKsVBa9salf65DPie1R/esWuO1jjwAAAAAAMBEMBZKK9YoxfyOOg7q0lGOPgAAAAAAwKozFkor/jzDr6SQ37i1M3xYaZ2jEAAAAAAAsGqMhdKqdH3pcynml1fdfKojEQAAAAAAsCqMhdKqdnXpM3XIz6pa49s7IgEAAAAAACvKWCitevtLl6TY/2D5Pj7eUQkAAAAAAFgxxkJpop5nOEwhbyvfy3lHJwAAAAAAYNkZC6WJa3fpojr2n1e1Ryc4SgEAAAAAAMvGWChN7K1JF0bDT9Vh+MSqNd7saAUAAAAAACw5Y6E08e1Ksf++FHIobSzf2TWOXAAAAAAAwJIwFkqN6bIU8stT7J9edwebqvbIaAgAAAAAABweY6HUuC6sQ/6FFAYn193Rpqo1NhoCAAAAAACHxlgoNbLrSu9P3eGTUmd41xTyekczAAAAAADgoBkLpUZ3ZQr5NSnmh5afx1XdvNZRDQAAAAAAOGDGQmkq+lKK+Xl1yA9KZ16yuWqNHdwAAAAAAIDbZiyUpqqPppCfXsfBXMmzDAEAAAAAgFtnLJSmqxT7O8vPd6SQz97aGd7VUQ4AAAAAALhFxkJpSkfDkC+vw+ClKeaHV+3R7R3tAAAAAACA72EslKa6faUL65CfU/qBqjXe4KgHAAAAAAB8i7FQmomuK703hfys8p2/ryMfAAAAAABwA2OhNDPtL12aYn5DCvmJ5bt/J0dAAAAAAACYccZCaebaVfpc6WV17D+sao+OdCQEAAAAAIAZZSyUZrZrSh8r/a86DE/3PEMAAAAAAJhBxkJp5rus9IEU8i+V7uaoCAAAAAAAM8RYKKm0r/S1FPPrS48vx4XjHB0BAAAAAGAGGAsl3aRrS/9Rh/zy1B08uGqPNjpKAgAAAADAFDMWSrqZvp5i/5Pl5/NSe8fJVWu81tESAAAAAACmkLFQ0q3cmvTyFPKH6+7gyVs7w82OmAAAAAAAMGWMhZJuoz2lS1LMb61CPqPq5nWOnAAAAAAAMCWMhZIOsF2lS+uQX1E96IrjHD0BAAAAAGAKGAslHexomGL/P8uxIzmCAgAAAABAwxkLJR1iu1PInyjHkE6KeV3VHjmgAgAAAABA0xgLJR1mO1PMb0qd4X3qkDdVrfEaR1YAAAAAAGgIY6GkJWpUh/y81B7dM4W80dEVAAAAAAAawFgoaQnbk2L/EynkJ5dOLMeXDY6yAAAAAAAwwYyFkpahr6eQt6fYf0Qd8glVe7TO0RYAAAAAACaQsVDSMtYvvaQOg7Pq7vBYzzMEAAAAAIAJYyyUtAJ9ug6DX03dwekp5M2OvAAAAAAAMCGMhZJWqKtTyO9KMT+1dLLnGQIAAAAAwAQwFkpa4XKK+dV1yI9N7dEd3JoUAAAAAABWkbFQ0ir12RTy79RxEEsbHY0BAAAAAGAVGAslrWLXlz6cQv6VrZ3hXMlfGQIAAAAAwEoyFkqagL5eh/zWFHNVdfOJjswAAAAAALBCjIWSJqivlf66DvkRVWu8yREaAAAAAACWmbFQ0oS1r/SJFPILyvHpDEdpAAAAAABYRsZCSRPY/tI3Sh9MIf9mOU7dw9EaAAAAAACWgbFQ0oT/leGO0ttSzD9btUfHOGoDAAAAAMASMhZKakC7S//5zecZDkPVGm909AYAAAAAgCVgLJTUoK4pXZBi/4Up5Ps6ggMAAAAAwGEyFkpq4PMMryx9KIX8rHIMO9GRHAAAAAAADpGxUFJD21O6tPTWujv4kao9OtIRHQAAAAAADpKxUFLDuz7F/sUp5lfUndH9q9Z4vSM7AAAAAAAcIGOhpCm5Nel1KeQvlH67dIKjOwAAAAAAHABjoaQpGw13pZjPr0J+VNXNmxzlAQAAAADgVhgLJU1tIb8jnbVjS90dbqzjwAEfAAAAAAC+m7FQ0jSXYv/qOg5elkK+09bOcKOjPgAAAAAA3ISxUNJMjIYhf3Vrd5BSzCdW7dE6R38AAAAAALidsVDSTLU3xfz3qTt4aB3yCVVrvNZZAAAAAACAmWYslDSDXV2H/IrUHZxZjoF3cCYAAAAAAGBmGQslzWj7Uux/OcV8Tgp5rhwLj3RGAAAAAABg5hgLJc14O1PIH0wxV3Xs37tqjzY4MwAAAAAAMDOMhZJ0Q5eX3lCHwdl1GJ5UtcbrnCEAAAAAAJh6xkJJ+o4uKv1JCvnhpWOdJQAAAAAAmGrGQkn6nvaUPpFi/s1SqxwnNztbAAAAAAAwlYyFknSLXVZ6V+kZqTs4pWqP1jtrAAAAAAAwVYyFknSbXZxifk35+cTU3nFC1RqvcfYAAAAAAGAqGAsl6YDaXbowhcGf1d1B2NoZbnQGAQAAAACg8YyFknRQXVv6cIr5eVXIp1bd7K8MAQAAAABoLmOhJB3y8wzfX4f8rKo1PtLZBAAAAACARjIWStJh9bUU+2+o4+BsZxQAAAAAABrHWChJh92u0udTyK8ox9T7OrMAAAAAANAYxkJJWpL2l75R+miK+ber9uh4ZxgAAAAAACaesVCSlrR9pctLf1eH/BNVa7zZmQYAAAAAgIllLJSkZWlPKafYf30K+UHONgAAAAAATCRjoSQt661Jry99IYX8h+V4ey9nHQAAAAAAJoqxUJJWbDT8dB1yVbVHRzv7AAAAAAAwEYyFkrSio+HC7UnfW3eHD60efNkRKeQ1zkQAAAAAAKwaY6EkrXwp5CtKryzNp5g3lmOx0RAAAAAAgJVnLJSkVRwNY/6P0m+WTkndwcaqPTIaAgAAAACwcoyFkjQBhfyhFPKTUhicVMfBWmcnAAAAAABWhLFQkiblrwz715afb0whn7m1M7xDyUkKAAAAAIDlZSyUpIl7nuEldRj8Xor5+6tuPtKZCgAAAACAZWMslKSJfZ7hv6aQn1GHfGrVGq93xgIAAAAAYMkZCyVpottdh7w9hXx2OV7fw1kLAAAAAIAlZSyUpIlvf4r9S1LMr0ghP7wct+/g7AUAAAAAwJIwFkpSY9qTYv5c6XmlTtUeHeEsBgAAAADAYTEWSlLjurZ0Xh0Hz6zD8D6eZwgAAAAAwCEzFkpSY9tRekMK+amluzijAQAAAABw0IyFktTo9pa+mEJ+eekR5Zh+rDMbAAAAAAAHzFgoSVNza9JP1LH//DrkB1Xt0UZnOAAAAAAAbpOxUJKmqitS7L8/xfwLdWd0r6o1XudMBwAAAADALTIWStJU3pr04hTym0s/WTrG2Q4AAAAAgJtlLJSkqe360hdSzH9RjvWx5NakAAAAAAB8J2OhJE19V5c+W4f8B+mMS0+sWuM1zn4AAAAAANzAWChJM/U8w4/UcfDMksEQAAAAAABjoSTN4PMML00hv3trZ/gQZ0EAAAAAgBlnLJSkmWx3qZ9ifmXVHt3Z2RAAAAAAYEYZCyVppru+9MU65F+sWuPbOysCAAAAAMwYY6EkzXz7SztT7J9fzgmPcWYEAAAAAJghxkJJ0k3amUJ+Wzk3PKCO/Q1Ve7TGmRIAAAAAYIoZCyVJN1O/9LupOzy5DsONVWtsNAQAAAAAmEbGQknSrfQvdRg8LXWGd00hb3DWBAAAAACYMsZCSdJtdH2K/XekkB9ZOqGcN9Y7ewIAAAAATAljoSTpALskxfzyUid1B8dU7dFaZ1EAAAAAgIYzFkqSDrILUsi/lsLg/qm940jPMwQAAAAAaDBjoSTpELqu9P7UHTy9dGoKeZ0zKgAAAABAAxkLJUmH0ZWl16WYf7Tq5hNKTqwAAAAAAE1iLJQkLUEXlV5Qh/yDVWu80dkVAAAAAKAhjIWSpCXsYynkX6zjoOUMCwAAAADQAMZCSdIS943SO1PITyvnmLs40wIAAAAATDBjoSRpGdpXyqVXppjPrtqjo5xxAQAAAAAmkLFQkrSM7S5dWHph3R10PM8QAAAAAGDCGAslSSt0a9J/SLH/W+W8s8XZFwAAAABgQhgLJUkreGvSS1LMb08h/0w5/9zJWRgAAAAAYJUZCyVJK9yu0pdKr6lD/uGqPdrsbAwAAAAAsEqMhZKkVeqa0mdLL6q7o9Oq1ni9szIAAAAAwAozFkqSVrkrU8wfTyH/WulEZ2YAAAAAgBVkLJQkTcjzDC9NMZ9bOrucm27vDA0AAAAAsAKMhZKkCer60qgO+f+m7uD7q/bIrUkBAAAAAJaTsVCSNIFdl2L/y3Uc/G7JXxkCAAAAACwXY6EkaULbv/CXhinkz27tDJ9QWuOsDQAAAACwxIyFkqQGjIZ7Uszvr7r5AXXI66rW2AkcAAAAAGApGAslSY16pmHIr6zOvOSu5fy1wVkcAAAAAOAwGQslSQ1rX4r9/yznr2elkO9oNAQAAAAAOAzGQklSQ9uVQv5wiv1Hp5hPqNqjdc7qAAAAAAAHyVgoSWp4V6WYX5vCoFN3B3eoWuO1zu4AAAAAAAfIWChJmpK+Uof8u6k7eEAK+fbO8AAAAAAAB8BYKEmaonanmD+SQq5L9y7nuE3O9AAAAAAAt8JYKEmawsYp5u117D+pDvlunmcIAAAAAHALjIWSpCnuq6WX13Hw8LozWnie4RpnfgAAAACAmzAWSpJmoE+mMHhuCvmM0hHO/gAAAAAANzIWSpJmpKtL70sxP6Oc++5TcmtSAAAAAABjoSRpxhqUttUhPzmdcenRVWvsYgAAAAAAmF3GQknSjPb5FPJL6jj4EVcDAAAAAMDMMhZKkma4XaWPp5Cft7UznHNVAAAAAADMHGOhJEn5qtJ7UszPqrr5Lq4OAAAAAICZYSyUJOmG9pW+VurVIT+mao2PcJUAAAAAAEw9Y6EkSd9za9ILU+y/opwjz3SlAAAAAABMNWOhJEnf0/7S1aVPpJD/ZzlX3sMVAwAAAAAwlYyFkiTd6q1JLy99MMVcVe3R0a4cAAAAAICpYiyUJOk221PaUXp9HYadqjXe6AoCAAAAAJgKxkJJkg6460oXp9j/4xTyKa4iAAAAAIDGMxZKknTQzzPcmUL+TOmZ5Tx6vKsJAAAAAKCxjIWSJB3yaLirjv3zUsgPr9qjTa4qAAAAAIDGMRZKknR4pdj/Rvn5qtTecXo6a8emFLILDAAAAACgGYyFkiQt0WgY8qj0Oynmk6pu3lByoQEAAAAATDZjoSRJS/2XhvmTKeQfr0M+oWqN17raAAAAAAAmlrFQkqRlKuS3ps7wB+o4uKMrDgAAAABgIhkLJUla1ucZXl7HwZ+mkOe3doZHu/IAAAAAACaKsVCSpGVvbwr5c3UY/HKK+b5Ve7TRFQgAAAAAMBGMhZIkrVg7U8zvq8PgCXV3cM+qNV7nSgQAAAAAWFXGQkmSVrxL65D/MoX8yHIePtHVCAAAAACwaoyFkiSt0q1JY/8/UszPTyF3yvn4KFclAAAAAMCKMxZKkrSqXZdi/kgd+79ShzzneYYAAAAAwIoyFkqSNCG3Jo35LXUc/HTdHd2tao3XukoBAAAAAJadsVCSpInqiynmv0ohP6Z0jCsVAAAAAGBZGQslSZq49pQ+lUJ+Yemscq7e5IoFAAAAAFgWxkJJkia2r5fOq0P+1dQZ3qtqj9yaFAAAAABYWsZCSZImvn6K/bctPM8wnXHZcVVr7AIGAAAAAFgaxkJJkhpza9IvppD/dmtn2HEFAwAAAAAsCWOhJEmN6rrSBSnm51fdfC9XMgAAAADAYTEWSpLUyK4snV+H/ItVa3ykKxoAAAAA4JAYCyVJamz7SqMU+++q4+DHXNUAAAAAAAfNWChJUuPbXfpqCvmvy3n9vq5uAAAAAIADZiyUJGkq2n/j8ww/n2I+p2qP7uAqBwAAAAC4TcZCSZKmcjT8aN0dPKFqjY9wtQMAAAAA3CJjoSRJUzsaXpNi/x3lXN9OIa8tP134AAAAAADfyVgoSdLUtyOF/KIU+6fWIW+o2qM1roAAAAAAgBsYCyVJmpk+W4f8jBQGd02dHRuq1tiFEAAAAADMOmOhJEkz17tTd/jo1BneKYW8ztUQAAAAAMwwY6EkSbNXCvny0itTzGeUa4FjS25NCgAAAACzyFgoSdIMj4Yxf7703Drk06vOcHPVHrk4AgAAAIBZYiyUJEl1yOelkH+2joN7uzoCAAAAgBliLJQkSd/8K8P+teXnm1LID9/aGZ7oKgkAAAAAZoCxUJIk3aT9KeRch8ELU8wPqbr5GFdLAAAAADDFjIWSJOlm2pNi/pfy8zl1yA+qWuMNrpoAAAAAYAoZCyVJ0q10TR3ye1LIVblmOMWVEwAAAABMGWOhJEm6jfalmHPp1SnkHyvXDse7ggIAAACAKWEslCRJB9ju0mdTzH9SemjVHm12JQUAAAAADWcslCRJB31r0pj/uQ75nLo7OK1qjde7ogIAAACAhjIWSpKkQ+zS0rtTyHXpRFdVAAAAANBAxkJJknQY7S19OYX82tKPluuKo1xdAQAAAECDGAslSdIStHPheYZ17L8shfyAqj3a4CoLAAAAABrAWChJkpawq1Lsn19+/no665K7Vq3xGldbAAAAADDBjIWSJGkZbk26I4X8/0pPLm10xQUAAAAAE8pYKEmSlqndpWGK+fXleqPjqgsAAAAAJpCxUJIkLXPXLYyGdcjPr1rjo119AQAAAMAEMRZKkqQV6toU+xfWcfAMV2AAAAAAMCGMhZIkaQXbX7omhfzBrZ1hdCUGAAAAAKvMWChJklapr6eYX11181zdHayvWmMXZgAAAACw0oyFkiRplbu4DvnXqvbopHJdssHVGQAAAACsIGOhJEmagHan2D+/9BMp5OPL9cl6V2kAAAAAsAKMhZIkaYJaeJ7hm1Ls/2Ad8nFVe7TW1RoAAAAALCNjoSRJmsD+s/T7dRg8oO6Ojqpa4zWu2gAAAABgGRgLJUnSBHd+CoOfT93B/VLIm1y5AQAAAMASMxZKkqQJ7/oU89tTyE8s1y338DxDAAAAAFhCxkJJktSQdqSY/6IO+YfTWTvcmhQAAAAAloKxUJIkNawLUnfQrTpDf2EIAAAAAIfLWChJkppWiv2fKdcwnmEIAAAAAIfLWChJkoyFAAAAADCjjIWSJMlYCAAAAAAzylgoSZKMhQAAAAAwo4yFkiTJWAgAAAAAM8pYKEmSjIUAAAAAMKOMhZIkyVgIAAAAADPKWChJkoyFAAAAADCjjIWSJMlYCAAAAAAzylgoSZKMhQAAAAAwo4yFkiTJWAgAAAAAM8pYKEmSjIUAAAAAMKOMhZIkyVgIAAAAADPKWChJkoyFAAAAADCjjIWSJMlYCAAAAAAzylgoSZKMhQAAAAAwo4yFkiTJWAgAAAAAM8pYKEmSjIUAAAAAMKOMhZIkyVgIAAAAADPKWChJkoyFAAAAADCjjIWSJMlYCAAAAAAzylgoSZKMhQAAAAAwo4yFkiTJWAgAAAAAM8pYKEmSjIUAAAAAMKOMhZIkyVgIAAAAADPKWChJkoyFAAAAADCjjIWSJMlYCAAAAAAzylgoSZKMhQAAAAAwo4yFkiTJWAgAAAAAM8pYKEmSjIUAAAAAMKOMhZIkyVgIAAAAADPKWChJkoyFAAAAADCjjIWSJMlYCAAAAAAzylgoSZKMhQAAAAAwo4yFkiTJWAgAAAAAM8pYKEmSjIUAAAAAMKOMhZIkyVjYiGu2NVV3sLZqj1zAAgAAAHDYwpbt67pbtq03FkqSJGNhA5T/3i0p5E7qDu9Sd0brq9bYFS0AAAAAB6172pvXxbneMWHL9v/e3bJtq7FQkiQZCxugjv1Hl//2T5fek7rDR6fO8IQU8jqXtwAAAAAciNbJ564J873jwmnb/1uc670vzvd2x/ltLzAWSpIkY2ED3GQsXPjv35li/j+lHyivwzELtyh1uQsAAADALYnz24/tbHnz/cN875Vxvvf10n99M2OhJEkyFjbCTcfCb78O+fOlc+qQ51NnuNnzDAEAAAC4qbhl2xFhrnfvOL/9uXG+d1Fp77eHQmOhJEkyFjbGzY2F3yrk81LIT6vj4Puq1ni9y2AAAACA2dbesm19nOvdq/SUMNf7xzjfu/47R0JjoSRJMhY2yq2Ohd98Ta4tP3upM3zM1s7wRJfEAAAAALOndfK5a7tbtt85zPUeFed6r4vzvStvfiQ0FkqSJGNho9zWWPit1ybkYR0GL0gxd6tuPtolMgAAAMBsiHO9Y8Pc9oeEud6Lbrzl6H/ddsZCSZJkLGyEAx0Lb2xvivmTdcjPLj2wao03uFwGAAAAmE43Ppfw9Djf+43Sx0u7D2woNBZKkiRjYWMc5Fi42M465PekkKs6Du7r0hkAAABgerS3bFsX5nr3jHO9Ks73zr3tW44aCyVJkrGwsQ5xLFxoX2lUel0K+ezyuh3vUhoAAACguVonn7umfb+33CHOb39cnO+9uvS1gx8JjYWSJMlY2CiHMRYutrv07ynmPyo9tGqPNru0BgAAAGiWsGX7hlK48bmEFxz6SGgslCRJxsJGWYKxcLFrSv9Uh/xbdXdwWtUar3eZDQAAADDZ4pZta0pb4lzv1+N877zSNw5/KDQWSpIkY2FjLOFYuNilpXeW1/Lny2t5N5fcAAAAAJOpvWXb8WG+9/Q433t3acfSjITGQkmSZCxslGUYCxfaW/pKivm1KeQfLa/p0S6/AQAAACZHnN/+qDjfe03poqUdCY2FkiTJWNgoyzQWLrazdGH5/3hpCvmBVXu0waU4AAAAwOrpzG0/Pcz1XnzjcwmvX56h0FgoSZKMhY2xzGPhYleVPlnHwbNTe8fdqtZ4rUtzAAAAgJXTPe3NJ8W53m/E+d6HSleV9i/fUGgslCRJxsLGWKGxcLEd5TX+UAr5qaUjXKYDAAAALK/WyeceEeZ7T47zvffd+FzCvcs7EhoLJUmSsbBRVngsXHyeYU4x/215rbulNS7bAQAAAJZenOudEed7ry59pbR7ZUZCY6EkSTIWNsoqjIU3fZ5hvw75RVV7dJLLdwAAAIClEbdsu3uY6/1+nO99vrRz+W85aiyUJEnGwsZaxbFwsWvK635hHQc/X7XGR7mcBwAAADg07S3bjgpzvafH+d6/lK5ZnZHQWChJkoyFjTIBY+FC+0pXp5A/uLUzfIhLewAAAIAD1zr53A3dLW8+K8733ly6trRv9UZCY6EkSTIWNsqEjIWL7S+NU8yvqrr5PnXIa6vW2BU/AAAAwHeJW7bdLsz11oYt2+8V53ovjfO9r0/GSGgslCRJxsJGmbCx8KYN65CfW521407lPVnvVwAAAACAG241ervuXG9dnNt2lzjX+5Uw3/vK5AyExkJJkmQsbJwJHgsX2l3ek4+V9+QnUsjHlZ/r/EoAAAAAzKLWyefe7oxT37ouzPeOD3O9x8a53kcncyQ0FkqSJGNho0z4WLjYNSnkbSnmh9wwGrZHa/2KAAAAAMyKsGX7Qsd27rfwXMLtr4nzvWsmeyg0FkqSJGNhYzRkLPzWrUlTzC+qw+ABdWd4VNUar/HrAgAAADDNuqe9+Yg417t3mNv+B2GuN5r8kdBYKEmSjIWN0rCxcLFP1yH/YuoO7ptC3uTXBgAAAGDatE4+d+GWoyeH+e0/Hed6n2jOSGgslCRJxsJGaehYuND1KeZzU8g/Xrp7ed/W+zUCAAAAmAZxfvvdunPbHxHme2+N871dzRsKjYWSJMlY2BgNHgsX25Fi/ovy3/GI1B0cX7VHbk0KAAAANFJnbvvxYa4X4nzvFaWFW47ub+ZQaCyUJEnGwsaYgrFwsc/XIf9eHQdnpjMu21y1xn7DAAAAABqhvWXbpjjXe2CY750T5nr/Fud7e5o7EhoLJUmSsbBRpmgsXOzvU3fwCynkuZLfNgAAAICJtfBcwu6W7aeG+V6K870PlK5p/khoLJQkScbCRpnCsXChcWl7ivmJ5f28q189AAAAgEkT53p3CXO9J5Vee+MtR/9rujIWSpIkY2EjTOlYuNhF9cLzDEN+RNUeHe3XEAAAAP4/e3ceJ9lZ0Ps/3TOZmUwy2SEECGlCljpnWIospKqeB1HCDrIrCIh1zrB5WUVERUBAcy+KyFWUTREUpJ7qAA1XbpB9UwIG5LIHAoQwp7qzd5KZTCazvX5Pk4EfKIRkepZe3p/X6/2a/0l31TnPlz5HOtDF1mBdKNIvxTL9RXZRtmPpDYXGQgDAWLhoWuJj4Zzt2eer2LyyjqOz3JJIkiRJkqQDUac1ODgU6R6xSC+JZfrM0nrkqLEQADAWLtqWwVg4Z1d2bfahKjTP3tCdnnCLIkmSJEmS9kftianxbmvyTrFMT8vOz65c2iOhsRAAMBYuqpbJWPgjO7JRNqhi88R+rznaLYskSZIkSdpXhdbw0FAMHxPLlLLvLo+R0FgIABgLF1XLbCz8kZuyi7K31L3Rr/Tbs6vcvkiSJEmSpL1VbA0Ozs6OxQ/fS/i1bPvyGgqNhQCAsXDRtEzHwh/ZnF2Y/7u/Iv93P9WtjCRJkiRJmk+d1mCsWwzuHMr0h7FMF2azy28kNBYCAMbCRdUyHwvn7MyuqmLziSo0T8///Y9xayNJkiRJkvakWA5/K5bpo9nly3ckNBYCAMbCRZWx8Me2z73PsIrN+6owenC/M7PGLY4kSZIkSbo1dYthJxQ/fC/hxmyHodBYCAAYCxdNxsL/Zmv2gzo0b6i70+v77dkVbnkkSZIkSdLPqrd+ciIW6bWxTN/OthoIjYUAgLFw0WUs/LluyD8P365C8zvZkW5/JEmSJEnSj2pPTK0NZXpeLNNXs83ZLuOgsRAAMBYuyoyFt2hXtrkKzQX55+JRy+1nQ5IkSZIk/fdikR4Yy/SR7Npsp1HQWAgAGAsXdcbCW2VndmP+3+p9VXe61e/MjLk1kiRJkiRpeRVbg1NCkd4Wy3S1kdBYCAAYC5dMxsI9+WvD0bn9M688rgqN9xlKkiRJkrREa09MHRSKyRXdYnBcLNLLYpmmDYDGQgDAWLjkMhbu4c9KaC7ONlSxOTz/zKx0CyVJkiRJ0tIptIYrOqeed0woho+LZfqs4c9YCAAYC5dsxsJ5uamKzQfzz83D69Ac2W/PejypJEmSJEmLuNgajIciHR6KYYxFGsYybTX6GQsBAGPhks5YuFdcW4fm9VV3+u51HB3h1kqSJEmSpMVVpzUYC0U6LBbp3tmfxTLNGPuMhQCAsXBZZCzca3bkn59v13H0B1VoTt7QnV7rVkuSJEmSpIXd3HsJO6eetzqU6ZRQpP8Ry/RVI5+xEAAwFhoLmY+tdWg+VYfRU6vYTPR7zSq3XpIkSZIkLbxCazjeaw3vkj0+lun92RYDn7EQADAWGgvZW66uYvPPdWgeVfdGx/fbs+NuwyRJkiRJOvDF1mDO7WKRfjkU6S3ZVYY9YyEAgLHQf/995ft1aF5Thea++WfL+wwlSZIkSTqAtSemDg5lOjMW6U+ziwx6xkIAAGOhsXB/2JZ/tj5XxeZFVWjusdx+xiRJkiRJWgjFcliGYtgPZfqkIc9YCABgLNydsXC/2lzF5v3Z06owOrHfmVnhVk2SJEmSpH1btxjeKRRp7r2Ek9l1RjxjIQCAsfAnMhYeEDPZP9Rx9Iiqc/lR/fbsmFs3SZIkSZL2bp3W4NBYpAeFMv11dmks004DnrEQAMBY+F8yFh5Q/1mF5i+ykK10GydJkiRJ0vybey9hr0hnhDK9NJbpC9lWw52xEADAWPhzMhYecDdln6xC8wf5Z++0zF2dJEmSJEl7WCzS3bLnxjKdn11rsDMWAgAYC39BxsIF4+rsA/m/x9P7nZmj3N5JkiRJknTri63BMaFIvxHLNMxGHjlqLAQAMBbeyoyFC87388/hW+s4eki/PXuI2z1JkiRJkn5+ndZgTSjSfWOR/iaW6aJsm5HOWAgAYCy8DRkLF6Qbsy9VoXltdoZbP0mSJEmSfrr2xNTKXmvytFiml+9+L+H1xjljIQCAsXAPMhYuWLuya7PPVLH53fxzeVe3gpIkSZIkHXRQaA2PCcXwWbFMn8yuMMoZCwEAjIXzyFi44O3ILsv+te6Nfq3fnl3jtlCSJEmStByLrcHa7CGxSO+KZWq8l9BYCABgLDQWLifbskuq2Ly9jqPoFlGSJEmStFzqtAYrusWgDGX661im72dbDHHGQgAAY6GxcLk+mnRLdlEVmnM3dKdPcssoSZIkSVqqtSemDjrr5PccG8vh78cyfS3bZIAzFgIAGAuNhdw8Gm7OLqxi8/R+rznaLaQkSZIkaanVLYYPC0W6MJbp+myX8c1YCABgLDQW8tN2Zjdk/6fuTod+e/Zgt5KSJEmSpMVeb/1kKxbpvN0jofcSGgsBAIyFxkJ+0WiYf3avzd6Yf35PqkIznv91dylJkiRJWjTFIo2dcdJ7jgxl+rNYpuuMhMZCAABjobGQPfkZDs0VVWxekH+Wj6t6oxX9zow7TkmSJEnSwh0JW4MVoUiHxiL1Y5m+bSQ0FgIAGAuNhewVGz9bhdHD6zA6ujrryvF+e9YdqCRJkiRpwdRpDcZjkQ6PxeCXQ5E+Gst0k3HNWAgAYCw0FrLXjf6h6k6fXYXmCLeikiRJkqQDXXtiaqzXGq7rFelesUhvimW6xqhmLAQAMBYaC9m3P9ebqtC8Ijsl/3wf6tZUkiRJknQgCq3hml5reFoo0u/FMl1sTDMWAgAYC42F7N/3GX6tis3T69BM9Dszq9ymSpIkSZL2R7E1WBWKdEL2xFimj2XbDGnGQgAAY6GxkANjax2ad1eheVQdR3fut2dXuG2VJEmSJO2LOq3BilCk28ciPSyW6R+zqw1oxkIAAGOhsZADb2f+WZ+u4+hvqt7onCo0t3MLK0mSJEnaW829l7B72nmHxzKFWKRX53+/ZzgzFgIAGAuNhSw826rQfL2Kzcuz0/u9Zq1bWkmSJEnSfAqt4apea3jPUAxfEMv0WYOZsdBYCAAYC42FLHybqth8uA7Ns+re6DSPJpUkSZIk3dZiazCe3TUW6cnZ+2KZrjOWGQuNhQCAsdBYyOJyRR2ad1aheUIdR3dyqytJkiRJ+kW1J6YOOvPk96wNZXpkLNM/ZD8wkmEsBACMhcZCFq/t2cXZ6+ve6IEbutNHuPWVJEmSJP28YjmMoUiviGX6inEMYyEAYCw0FrJ03FiH5j/yv6+swuie/c7MwW6BJUmSJEk/qlsMTwlFmnsv4SezrYYxjIUAgLHQWMjSdE32wTo0v113Zu7cb8+OuyWWJEmSpOVbb/3k7WOR+qFM58UyXW0Qw1gIABgLjYUsD5dWsUn59+MJ2WFujyVJkiRpedWemFodivSAWKa3Zt/NdhjDMBYCAMZCYyHL732G36xC89b8e9LJVrpdliRJkqSlXyzSvWOZXp1dmN1oBMNYCAAYC42FLPf3GcbmC/ln55X97vSd+50Zd86SJEmStBRHwtbgjqFIL4xl+lQ2m+0ygGEsBACMhcZC+JGrsgvqOPrNfnv2ULfRkiRJkrQ06rQGh4UiPSaW6b3ZjEeOYiwEAIyFxkK4JT/IvzvnV6G5v1tqSZIkSVq8tSemDu4Vk2fGMr05uyTbavDCWAgAGAuNhXBrbMsurmLz2vw7VLrFliRJkqTFVWgNT4hFemUs0zezzYYujIUAgLHQWAi31a5sc/bVOjTP73dmjnW7LUmSJEkLu9gaHBmK1A9l+lws0/XeS4ixEAAwFhoLYb52Ztfm36eP12H6sf327CFuvyVJkiRpYdVpDVb1itQNZTpv90jovYQYCwEAjIWw10fDq6vQ/NOG7vQ93IpLkiRJ0oGvPTE1fvap503Ecvi6WKYrjIQYCwEAjIXGQvaHURWbV1W95sS6N1rRb8+6Q5ckSZKk/Vhv/eR4KNK6XjF8Rv63MWRhLAQAMBYaCzkQvlr3Rr9VdWaOreNopdt1SZIkSdq3tSemxkKZDgvrhw+IRfq8AQtjIQCAsdBYyIF2Y/avdRw9uArN4fl3btztuyRJkiTt/WI5XNc5bbIIZXpnLNMu4xXGQgAAY6GxkIXkmio2f5GdXoXRYf3OzJhbeUmSJEnaCyNha7AmFGnuvYTnxjJdbijEWAgAYCw0FrKQXVyF0XPr0LSqsy9b432GkiRJkrRndVqDg2ORTsx+IxTpS7FMOwxWGAsBAIyFxkIWi49WvdET+6G5q0eTSpIkSdKtrz0xNd5rpeNDkR4SizQVy7TZUIWxEADAWGgsZDH+Dm7J3lmF5gH5d/FYt/ySJEmSdMuF1vDIXmsYQ5FeF8s0Y6DCWAgAYCw0FrL4fxdD84MqNn+Sfz47/c7MWrf/kiRJkvTTxdZgbSjTvUKRXhjLHz5ydLtxCmMhAICx0FjIUvP5OoyeV8dR2W/PHuw4QJIkSdJyb+69hKFIJ8ciPS2W6YPZ9UYpjIUAAMZCYyFL2dbsvCo0VXaiowFJkiRJy7Gb30s4eVws02Ozf/LIUYyFAADGQmMhy8mu7PLsjVVsHpp/T2/nqECSJEnScim0hodlvxKK9OexTF83QmEsBAAwFhoLWc5/Zfil7NV1aHreZyhJkiRpKRdbg1XZvWKRXpz9WyzTDQYojIUAAMZCYyHE5vrsY1VsXlSH6fXeZyhJkiRpKdVpDca7xeBOoUzPiGU6P7vC8ISxEADAWGgshJ+2M5upQzNV9Ua/taE7fZwjBUmSJEmLvVgOV2aPi2V6R3aJwQljIQCAsdBYCLdsW/bt7O+q2Dyo32sOc7wgSZIkaTHWLYanhyL9VSzT17JtxiaMhQAAxkJjIdx6m7P/V4fmNXV3+h799uwKRw2SJEmSFkO99ZMnxCK9JJbp372XEGMhAICx0FgI8zNbxeYz+Xf5edntHTtIkiRJWqi1J6YOCUV6YizTh3e/l3CXgQljIQCAsdBYCHvnfYbTVWg+mD0i/14f4hhCkiRJ0kIqFumXY5nelX0v22FYwlgIAGAsNBbCvnmf4aVVbP6535u+e78z49GkkiRJkg7sSNga3C0U6XWxTN/MbjQoYSwEADAWGgth37sx+34dmj+pzrzy2H571gmFJEmSpP1apzU4MhbpBbFMX8w2eeQoxkIAAGOhsRD2v8359/yiKjSPd1QhSZIkaX/UnphaHYrJB8QynZ9dl+00ImEsBAAwFhoL4cDZlW2ae59h/n0/y9GFJEmSpH1VaA2LWKS/j2W6KttuPMJYCABgLDQWwsKxM7su/w68od+duXMdR+MeTypJkiRpPnVag4N6RRqLrcEdQ5H+KJbpUn9JiLHQAQQAYCw0FsLCN1PH0XOr+1x++yo0Kx1xSJIkSbottSemDuqedt6KXpGO7pXp8bFMFxiKwFgIABgLjYWwuGytQvPp7DFVbI7InwVGQ0mSJEm/sNAajndPmzyi15q8XyzTMLvBSATGQgDAWGgshMXr6io2b8+fB/erQ3NEvzMz7vhDkiRJ0n+tt35yLJTDQ2KRylCk12ZXGIfAWAgAGAuNhbB0XFKH5pVVGN2rjqNDHYVIkiRJ+lFn3O09K0OZTgrl8OmxSF81CoGxEAAwFhoLYWm6Kftc9rS6N5rY0J1e7VhEkiRJWt7FcnjnXmv44FCmjxiDwFgIABgLjYWwPFxfh+a8OoweXYXmjv1e432GkiRJ0nIbCVuDI0KRurEcvjWWaZMhCIyFAICx0FgIy09Txeav69A8oO7MHNlvz445MpEkSZKWdp3WYE0s0hnZ74YiXRLLtMsIBMZCAMBYaCyE5e2rVWj+oB+aM5bbZ4YkSZK0XGpPTK0MRTotlKmORfq3WKabjD9gLAQAjIXGQuBHtlax+dcqNM/Inxt3zcYdp0iSJElLo1ikE0IxfEIo0rtima41+oCxEAAwFhoLgZ/n2uxtVWye1O9OH+VYRZIkSVrEI2FrcGQo0zmxTH+dfT/bafABYyEAYCw0FgK3xqXZ6+rQ3L/fnvVoUkmSJGkR1WkNVocinRmL9PJYpv/Ithh6wFgIABgLjYXAnrigCs3Ls/WOXCRJkqSFXXtiakWvmDwplunZ2YeyWQMPGAsBAGOhsRCYr03Z+6vQPCt/ppzgCEaSJElaeIXW8Jjs10OR3hHLtNGwA8ZCAABjIbA37cw2Zv+cf88e3+/MHO44RpIkSTrwxdbg0FikX87+dyzT17OtRh0wFgIAGAv994d95absa1Vs/rIO071+e3aV4xlJkiRp/9dpDVb2itQKZfrjWKYLs+uMOWAsBAAwFhoLYX/YlV2b/XsVmpdmpzqqkSRJkvZfsRyuy347lumj2RVGHDAWAgAYC42FcCDsyK7Izq9iU+XPm+Mc20iSJEn7rm4xXJE9KBTpPbvfS7jDgAPGQgAAY6GxEBbCo0mbLNW90S/127MHO8aRJEmS9m699ZOnxiK9OZbpO9lNhhswFgIAGAuNhbDQbKli863sdXUcneI4R5IkSZp/7Ympw0KZ/iiW6VvZZoMNGAsBAIyFxkJY6O8z3FyF5st1b/ScDd3pYxzvSJIkSXtWLNJjYpn+PbvWUAPGQgAAY6GxEBaTndmmKjafrELzsH6vWeOoR5IkSbqVI2FrcPdQpPfGMl3lvYRgLAQAMBYaC2Gxj4Y31qF5a3X2ZXftt2fHHf1IkiRJP7tOa3C7WKTXxDLNGAnBWAgAYCw0FsJS+0y6Ln8mvaIKzRH5X6OhJEmSlAut4fhZJ7/7yFAMnxLL9I1sl1EGjIUAAMZCYyEs3c+m0GzMn0+PrmJzeL8zYzSUJEnSsiy2BuOhTIeGYnhOLNOHs23GGDAWAgAYC42FsFzsqmLz8ao3OruOo3UeTypJkqTlUqc1GAtFOjQWgzNDmd64+72EhhgwFgIAGAuNhbAsbarj6H9W3el7VqE5zNGRJEmSlmrtiamxXmvykFCkU7MXxzJdbHwBYyEAgLHQWAjEZmf+vPpOFZrnZHfLn1uHOEqSJEnSUiq0hgf3ThueGIrhk2OZPpJtNbyAsRAAwFhoLAR+2pYqNB/Ln11Pyr/LJ/Y7Mwc7VpIkSdJirrd+cjyUw2NikR4UivSOWKZZgwsYCwEAjIXGQuCWXZ29vQrNg+owfZz3GUqSJGmx1Z6YOug+p563NpSpG8v0quy7hhYwFgIAGAuNhcCttz37Rh1Gf1r1RqEKzRGOnCRJkrQYiuVwPLtnKIbPjGX6DwMLGAsBAIyFxkJgfo8m/bcqNs/P7u59hpIkSVrIdYvhCaFIT4xl+r/ZFuMKGAsBAIyFxkJg77iyis1U/rdfd6fv5NGkkiRJWkh1WoPDYpEeFsr0hlCkq40qYCwEADAWGguBfeOSKjR/k//91TqOPJpUkiRJB7T2xNSqUKROKNPLY5m+nu00qICxEADAWGgsBPatbdn/q0Jzbt0bdTZ0p1c7ppIkSdL+LhapDEX6nVimj2RbDSlgLAQAMBYaC4H9a3Mdmo9Xsfm9fm/6zv3OzJgjK0mSJO3zkbA1OC6U6UmxTJPZldkuIwoYCwEAjIXGQuDAuTx7dx2aJ1dnXHWY4ytJkiTtizqtwaGxSA+OZXpT9u1sm/EEjIUAAMZCYyGwcHwrf+69LX/uneMoS5IkSXur9sTUwaGYvFcs07nZF7MbjCZgLAQAMBYaC4GF+z7D/6xC89r8+Xeqoy1JkiTNp9Aa3jkU6YWxTJ/IrjaWgLHQWAgAGAuNhcDicH32ifyZ8Jx+Z+Zox1ySJEm6LcXW4MhYpMdlw1im6WynoQSMhcZCAMBYaCwEFped2XT2L3UcPbzfnj3EsZckSZJuqU5rsLpXpLNDmd4cy/TdbIuBBDAWAgDGQmMhsPgfTfrd/Jn49io0pzsCkyRJ0s8qlsM7ZK+IZfpKtskwAhgLAQBjobEQWDp2ZVuyr1aheWX+bDzRcZgkSZLm6hbDtb1i+ORQpAtima71yFHAWAgAGAuNhcDSfjTp5uzTdWie2O/MHO54TJIkaXnWWz+5IpTDTizSv8QyXZPtMIYAxkIAwFhoLASWhx3Z1VVsJuve9H377dlVjsskSZKWT6ef9N6jQpneEst0fbbdCAIYCwEAY6GxEFimf2lYheby7K+yk7Oxfq9xeiZJkrQEi63BWCjSilikZ8YyzXjcKGAsBACMhcZCgJ/4zGy+VYXmmdlxdWdmRb8960RNkiRpCdRpDcZikQ6JrcH9Q5G+bCQEjIUAgLHQWAjw84XmU1Vv9MCqN310HUfjjtckSZIWZ+2Jqbm/JDy0V6R7xCJNxjJtMXYAxkIAwFhoLAS4NZ+fm/O/76xCc+8N3enDszHHbZIkSYun0Boe0j1t8pRQpFfEMl1m5ACMhQCAsdBYCHDbP0dDc3ndG72sik2r35lZ5dhNkiRpYRdbg9WhTHcOxfA3Y5m+kG03cADGQgDAWGgsBJjv+wy/XIXRr9WhObHfnl3hGE6SJGlh1WkNVoQi3SEW6VdDmd4Ty3S9YQMwFgIADreNhQB70846NIOqN3pI/my9oyM5SZKkA197Ymq8V0weFcoUY5FeF8s0MmgAxkIAAGOhsRDYV3blz9Yrq9i8rgpNzJ+xRziikyRJOjCF1nBtrzW8dyiGL45lujDbZswAjIUAAMZCYyGwP+yoQvPNKjYvyp877X5nZo3jOkmSpP1TbA1WxSKdnFWhSB+MZdpkxACMhQAAxkJjIXAgbM4+WIfRhjpM363fnl3p+E6SJGnf1J6YGuucNnl0KNPjYpHeEcs0bbwAjIUAAMZCYyGwEFyWva0Kza9lxznKkyRJ2rvFcrg6u38o0rmxTN80WgDGQgAAY6GxEFhwjybNvlXF5s+yX/I+Q0mSpPnXLYbj2T1CkebeS3hBttVgARgLAQCMhcZCYCG7LvtM9pK6N7pHvzOzyjGfJEnSba/TGhwZi/SsUKb/E8t0vaECMBYCABgLjYXAYnJ5FZv3Z8+oezMn9tuzKxz5SZIk/eLaE1NrQpEeHsv099nIQAEYCwEAjIXGQmCx2p59rwrNO+ve6Fc3dKfXOf6TJEn6+cUidWKZ/jL7z2yncQIwFgIAGAuNhcBSsDX7chWb11WhOaPfaw52FChJkvQTI2FrcGIo0ktjmT6TbTZKAMZCAABjobEQWKrvM/x8HZqXVWdfdod+e3bM0aAkSVrOdVqDI2KRnhJvfi/hlf6aEDAWAgAYC42FwHJwRf6M/kgdR0/PVjomlCRJy632xNTqUAx/KZbpn7JLsm2GCMBYCABgLDQWAsvJjmxUheb9+bO67chQkiQtl0Jr2IpFem0s09ezGwwQgLEQAMBYaCwElrNt2cVVbP6635k5zvGhJElaqsXW4A6xSM+KZfp0dl22y/gAGAsBAIyFxkKAm92Qfb0OzW/327OHOk6UJElLpU5rsLZXpofEMv1Ldk223egAGAsBAIyFxkKA/25Xdm3+/P50/vx+uKNFSZK0mGtPTK3stibvFcv05mzGewkBYyEAgLHQWAhw6+zMrqxC89b8Od5y1ChJkhZb3WJ4dK9ILwxF+r6/JASMhQAAxkJjIcCe/6Vhkz/bXlZ1p4+vw/SKfnvW6aMkSVpwtSemDrrPKeeNhfXDdaEcPjYW6UveSQgYCwEAjIXGQoC954t1GP1G1Zk5tgrNCkeSkiRpoRSLdFBoDdd2TptshzJ9wKAAGAsBAIyFxkKAfWNr/mx/fxWaX65ic3j+jDcaSpKkAzsUtgarQ5FOiEV6dSzT9cYEwFgIAGAsNBYC7Hs/qGLzmuyMqjc6rN+ZGXNUKUmS9med1mBl/OFIOHhyKNIPjAiAsRAAwFhoLATY/75UheY5VRi1qu5lh/Tbs0ZDSZK0T2tPTK0IRTo+e3As0idimXYYEABjIQCAsdBYCHDg3JidX/VGv1F3p0/Y0J32aFJJkrRPCq3hUb3W8L6hSG+KZdpkOACMhQAAxkJjIcBC+cwPzTV1GL2xis05/dAc0+81/spQkiTtlWJrcFgo071CkX4/luk72U6jAWAsBAAwFhoLARami6vYvKIOTa9/+tWrHG9KkqQ9rdMarIpFOi17ZizTp7ItxgLAWOimEwAwFhoLARaHC6rQPD1/D5zmqFOSJN2Wbn4v4eSdQpl+PZZpmF1tJAAwFgIAxkJjIcDi+x64oYrNoArNE/L3wXGOPiVJ0i9q93sJHxSK9LpYpu8ZBwCMhQCAsdBYCLC47apiM8pelz2s35k51DGoJEn6r8XWYG0s0pnZH2Wfj2W60TAAYCwEAIyFxkKApWNb9uU6/PB9hmf327PeZyhJkuYeOTrebQ3vEsv0nOxDHjkKYCwEAIyFxkKApW1T9uEqNC/0PkNJkpZ3sRwekT0hlOntsUw/MAQAGAsBAGOhsRBgediZXVbFZrIKzRPzd8XtHJdKkrR86hbDVb1i+EuhSK+PZfpGts0IAGAsBACMhcZCgOXnpuyi7E11aM7pd2bWOj6VJGnp1ls/ORbK4amxSK+KZfpctsXhP4CxEAAwFhoLAdi0+7PzT+re9Pp+e3al41RJkpZW7YmpQ0ORnh7L9EnvJQQwFgIAxkJjIQA/y1VVaD6a/XZ2nGNVSZKWRrFID41lend2qcN+AGMhAGAsNBYCcEu2Z6Mfvs8wNo/M3yPrHLFKkrRIR8LWoAhFekss00XeSwhgLAQAjIXGQgBuixuzS+vQvLHqjdr9zoxHk0qStEjqtAbHxCK9KJbpC9kN2S6H/ADGQgDAWGgsBGBPbM7fJ9/I/76sjqPDHb9KkrRwa09MHRKK4aN3v5fwmmynw30AYyEAYCw0FgIwX7uyTVVovrChO/3YbIXjWEmSFlahNTwzlmkyuzzb7lAfwFgIAGAsBGBv23nzXxo2/7ffa+7uWFaSpANfbA0mQpleHcv0fSMhgLEQAMBYaCwE2F+j4ZY6NH/VP/3qo/J3zZijWkmS9k/tiamDeq3JsW5rcFQo01Njmf4z2+EQH8BYCABgLDQWAuz3x5Pm75pL83fNM6rQHJr/9XhSSZL2Yd1iOHafU85b1ysmHxzLdH52o8N7AGMhAICx0FgIcKBtq0Lz7/l755wqNkf0OzPjjnMlSdp79dZPjoVyeEivGN4jFOmvYpmucWgPYCwEADAWGgsBFprrqti8veqN7l33Rof327MeTypJ0jyae+Ro57TJVaEcnpy9IBbp2w7rAYyFAADGQmMhwEL3/To0L616o6IKzSGOeiVJuu3FcrgiFMMTesXwMaFMn3FID2AsBAAwFhoLARbXo0njxn+rQvOb2YnL7ftIkqQ9HglbgzlHhSLdL5ZpmN3ggB7AWAgAYCw0FgIsVrNVbAb5O+mRdWiO73dmVjgGliTpZ9dpDdbEIp2VvTQU6QoH8wDGQgAAY6GxEGCpuDT7yzqM7lf3Zo70PkNJkv7/2hNTK0ORilCmOhbpKw7kAYyFAADGQmMhwFJ1YRVGv1f1RqdXoVnjeFiStNwLreGdQjH89VCk98YybXcYD2AsBAAwFhoLAZa667MPVLHp5++pu2UrHRVLkpZbsTU4JpTpgbFI/zuW6fJsl4N4AGMhAICx0FgIsJw02T/VoXlsdZ/LD++3Z50cS5KWfJ3W4JBYpG72ylj+8JGj2xzAAxgLAQCMhcZCgOXs61Vozq3j6P7ZuGNkSdJS7Ob3Eg5bsUwvyD6ebXbwDmAsBAAwFhoLAbjZ1uyzVWhevKE73XKkLElaSoXW8I691vApsUyD3Y8cdegOYCwEADAWGgsB+Bmuq0MzVcXmaf1ec5zjZUnSYi62BkfGIj04+5tYpm9lNzlsBzAWAgAYC42FANyyXdmlu99n+NB+e3aN42ZJ0mKqPTG1olsM7x7LdG72hWyTQ3YAYyEAgLHQWAjAbXPT3Gd6/j57bf4+O8vRsyRpUfw1YTk8PnteLNOHsqscrgMYCwEAjIXGQgDm91eG12X/VoXmD/P32gmOoSVJC7FuMTysVwwfG4r03limJtvhYB3AWAgAYCw0FgKwd+zMrsjOr2Lz1H5nZp1jaUnSQqi3fvLgUA7vE4v097FMF3svIYCxEADAWGgsBGDf2ZZtzN5Wh+luvz27yjG1JOlA1J6YGjvr5HffPhTpZbFM38w2O0gHMBYCABgLjYUA7B83ZN/K33WvrkJzkiNrSdL+LBZpLKtimS7MrnGADmAsBAAwFhoLATgw7zPcVIXmwuxZ+TvvGMfXkqR9PhS2BmeEIn00lunqbKfDcwBjIQCAsdBYCMCBf5/hpvwd8OEqNA/sd2bWOMqWJO3tOq3BHXa/l/DybIdDcwBjIQCAsdBYCMDCsiN/912V//3bqnPZqf327ApH25Kk+daemDo0lsMNsUzfz7Y7LAcwFrr5AgCMhcZCABb440mr0ExnL8mOzd+FKzKn3ZKkW11sDcZCmVaF1vChsUxfMBICYCwEAIyFxkIAFuV3YfOF/H34pDo0R/bvfc2Y429J0i3VuXkkXBOLwX3yv4NYpusdjgNgLAQAjIXGQgAWu9BMVZ2Z9XUcHe4oXJL0X2tPTI2FYvKQXpFODWX6o1imSxyKA2AsBACMhcZCAJbW9+JsHUevqUJz0obu9KGOxiVJc4XWcFX3tMkTQ/HD9xJ+NrvJgTgAxkIAwFhoLARgadpZheaiujd6VhWbu/Z7zWrH5JK0POutn1wRyuHtYpEeEYr0Xo8cBcBYCAAYC42FACwfN1ax+VAVmsfXobljvz27wrG5JC2P5h452m0NDw9lCrFMr8k2OgAHwFgIABgLjYUALE9X1qH5myo0v5K/M491hC5JS7tYDleHYtjOnh/L9GUH3wAYCwEAY6GxEAB25O/Mi6rY/HEVmjPzd+dhjtMlaYmNhK3BeHaXUKTfjGX6aHajQ28AjIUAgLHQWAgAP2lrFZtP53+fVYfmtH5n5mDH65K0uOu0Bgd1W4MjY5Eelb0xlmnWYTcAxkIAwFhoLASAW3JFNqjj6Nfr3szc+wzHHbdL0uKrPTG1KhTpvqFMfxrL9D2H3AAYCwEAY6GxEABui29XsXl9FZqHZIc7dpekxVMs0j1DkX43lukzDrcBMBYCAMZCYyEA7Klt2X9UoXlFdlb+Xl3jCF6SFvBI2BrcMZTpqbFM78s2O9gGwFgIABgLjYUAsDdcm32kDs2zq97oxH5nZoUjeUlaOHVag3WxSI+MZfq77PvZTofaABgLAQBjobEQAPa2S6vYvKuOoydU97niqH57dswRvSQduG5+L+Hw7Fimv8i+nN3kMBsAYyEAgLHQWAjAvn406Teq0Lwlu3827rhekvZ/oTU8ORTpRbFMH8uud4gNgLEQAMBYaCwEYH/aMvedU8XmVf1ec6Jje0naP8XW4PaxSE/O3hvLNJ3tcIANgLEQAMBYaCwE4EC5OvtkHZpn9duzax3jS9K+qdMarO2V6f6xTG/LvpttdXANgLEQAMBYaCwEYCHYlW3M373vqePoUY70JWkv/zVhOTw1lunPsq9kmx1YA2AsBAAwFhoLAViIbsq+U4XmzRu60/dyvC9J86tbDI/tFelZoUgXxDLNZjsdVgNgLAQAMBYaCwFY6H9leEP2lSo2f9DvzBztuF+Sblu99ZOHhHL4kFik82OZrvJeQgCMhQAAxkJjIQCLzc7s+uzTdW/02H57do3jf0m65doTU+Nnnzp5UijSG3aPhNscTgNgLAQAMBYaCwFYzHZk1+Tv5fPy9/J9TAGS9LOLRVqb/UEsU5Pd5FAaAGMhAICx0FgIwFL7S8Mrq9D8ef5+vksdmrF+Z8Y6IGlZ12kN5kbCFbE1eGgo0nc8bhQAYyEAgLHQWAjAcvC1OjR11Zs+tu7OrOi3Zy0GkpZV7YmpsVgOV3eLQRmL9HEH0AAYCwEAjIXGQgCWow9UvekHVd3po6rQjJsPJC2HQmu4pnPqeSfFcviKWKYtDp8BMBYCABgLjYUALOfv6y1VbN6Y3St/bx+WjZkSJC3FYmuwKpTp+FAMnxbL9N1sp4NnAIyFAADGQmMhAPzwe7v5ZvbiOjSnVd3pNd5nKGmp1GkNVsYi3SF7dCjTR2KZbnTgDICxEADAWGgsBICfJTSfqELzG3UcTfTvfc1KM4OkxVp7Ymo8FMOjQ5FiLNLfxTJd7aAZAGMhAICx0FgIAL/4O3xz/vddVXf6wRu608eaHCQttkJruK7XGp4RiuFLY5m+nm13yAyAsRAAwFhoLASA2/JdHprpOoxeWcXm7H6vWWd+kLTQ662fXBWLdLfsGaFIn4pl2uJwGQBjIQCAsdBYCAB7bkcVmwvr0Dw/u2e/PevRpJIWXHOPHO0Ww+NDmR4Xy/TO7AqHygAYCwEAjIXGQgDYe7bUofmXKjRPqePoZNOEpIVSLIeHh3L4gFCm18QyfddhMgDGQgAAY6GxEAD2jZ3ZTPa2KjQPz9/zR5spJB2ousVwda+Yey9h+qNYpi9kNzlIBsBYCABgLDQWAsC+ty37ahWbP81ivzOzxmwhaX/VaQ3Ge0W6cyzSs0OZPhjLtMkBMgDGQgAAY6GxEAD2v83Zp+rQ/G7dG5XeZyhpX9aemDrorJPfvS4U6fGxTP+YzTg4BsBYCABgLDQWAsCBd3k2lb/7n5a/++9o0pC0L4pF+pVQptfHMn3NgTEAxkIAAGOhsRAAFpYd2feq2Ly1Cs1D8jXAOtOGpL0yErYGdwtlekks0+e8lxAAY6EbDwDAWGgsBICF7YbsS/k78TVVaNr9zszBpg5Je1KnNTgqFunpsUznZ1c5JAbAWGgsBACMhcZCAFg8ZrPP1XH0O1Xnsjv127Pjpg9Jt6b2xNSaWA4fHMs0zC7NdjogBgBjIQBgLDQWAsDiNJ2vCT5WheaJ2RoziKRbKrSG945leuPu9xJ65CgAGAsBAGOhsRAAlsj7DC+tYvMP+dqgl/krQ0k/VWwN7hKL9MJYps9mm7JdDoUBwFgIABgLjYUAsPTeZ3hJHZpz+52Z480jkjqtweGhTL8Wy/Th3e8l3OEwGACMhQCAsdBYCABL2/X5OiF/X46e3m/PHmYukZbpXxOWw7Nimd6RjbJtDoEBwFgIABgLjYUAsHzszK6tQvPhDd3paDaRlk/dYnhCr0ivjGX63u73EnrkKAAYCwEAY6GxEACW8fsMr6xi86Z+rznJjCIt3XrrJw8P5fCpsUhfMhICgLEQADAWGgsBgJ+0KxvVofn9/llXHJWvIcZNK9ISeNRokcbOPvW8Nd3W8L6hTB83EAKAsRAAMBYaCwGAW7ItX0NckK8hHlOF5rD87wpzi7QIR8LWYM7qWKRTsr+NZdrskBcAjIUAgLHQWAgA3Fqbq9C8K19PdPO/6/qdGX9pKC2COq3BQd3W4OBYpBOyZ4ciXeZwFwCMhQCAsdBYCADsqekqNudWYbS+7k4f2m/PjpljpIVZe2JqPBTpuOwRu99L6GAXAIyFAICx0FgIAOwVX6zD6JlVb3S3KjSrzDLSwiq0hkf1WsMQivROh7kAYCwEADAW+u8PAPvC1io276lC86vZ8fk6Y6WJRjqwxdZgXSjTPUMxfFks05UOcgHAWAgAYCw0FgLAvnZZFZvX5+/dc6re6Kh+Z8ajSaX9XKc1WB2LVGT/I5Tpi7FM2x3iAoCxEADAWGgsBID96Rt1aF5ax9EZ1X2uOKTfnrXgSPu49sTUilAM7xLK9PhYpPfHMm12eAsAxkIAAGOhsRAADqQPV73RM6rQnJb5K0NpHxVaw9v1WsOHxHL4t7FMl2Y7HdwCgLEQAMBYaCwEgIXgmuxdVWwena8/jjfrSHuvufcSxiJ1sldkX45lusmBLQAYCwEAjIXGQgBYiC6u595nGJpz+p2Zw8w80vweOdorhqfGMv1O9rHsOge1AGAsBAAwFhoLAWCh25FdUMXmZXPvMzT5SHvw14Tl8A7Zk0OZ/jmWacYBLQAYCwEAjIXGQgBYTHZl12bnV6F55obu9InmH+kX1y2G63pFelAo0htimb6dbXc4CwDGQgAAY6GxEAAW818ZNtk7qtj8Wr/XHG0Okv57ndZgZShSGYt0bizThdmNDmUBwFgIAGAsNBYCwFKxNftG9oa6N7pfvz27yjwk/fC9hGNnn3recaFIz45l+kh2jcNYADAWAgAYC42FALBUbco+l69TXpavU041FWlZv5ewSKuyX49lmsp+4BAWABb6WNiZObkKzadc1AMAxkJjIQAwLzuzK6rYfKQKzYZ8vXKM2UjLbihsDU4PRXpnLNPF3ksIAItlLDzjqoPzBew98oXsS6q48Zsu7AEAY6GxEACYl+3Zxio2767C6EH9zswaE5KWwbsJbx+L9MexTF/Jtjp4BYBFNBbO1Y8bx7Ijq7jxrDo0f5td5cIeADAWGgsBgHmZe5/hJXVoXl93p9f327MrTEpagu8mPDSWwyfFMn3eewkBYBGPhT8+hOo1K+ru6PZ1b/SwfDH7ARf1AICx0FgIAMzbpnz98o0qNM/PjjIvaakUWsP7xTKdn81kOx22AsASGAt/+FeG7dmDqu70wVUY3SlfwD49X9B+zUU9AGAsNBYCAPOyK7uuCs1n8nXMI5fbtYyW3HsJT4tF+otYpu9l2xyyAsASGwt/PBp2ZsaqXrOqihtPyRey/zNf0F7mwh4AMBYaCwGAedkx95eG+bv93VV3ujV3/mJ60iJ6L+HRoUzPjmX6+u73Eu5ywAoAS3gs/PFoGDeOVaFZWfeae9dh4zBf0G7Z/f+Gc4EPABgLjYUAwJ7Zma9prqzj6JX9068+ugqN0VALsm4xHDv9pPeuDcXwUbFMn8i2GAkBYJmNhf/lEaVrqu7osXVoLqhvfkm30RAAMBYaCwGA+VzbhObirF/FZm2+xllhntJCqLd+ciwWaVWvGN47FOkfY5mud5gKAMbCn3xE6VFV3PiH+YL2ouxGoyEAYCw0FgIA87Ktis35+TrnwXVo1vXbs/7SUAek9sTUQd3WcHUoh6fEMr0su9QhKgAYC2/pEaWn5AvYt+QL2h/MXdS6sAcAjIXGQgBgXq6rQ/NXc+8zrONonelK+7NYpJW91vCOvWL4lFimLzo8BQBj4W05vHp09oF8QXvZ3DP3XdgDAMZCYyEAsMd25Oudb9dx9OIqNBMbutOHmLG0T0fC1mA8FOmYWKRzYpkmsxsdnAKAsfC2/5Vhe3ZtvoB9dr6gnXuf4awLewDAWGgsBADmZWsdmk/WYfSkKjYn9HvNKrOW9mad1mCs1xocFot0dva/QpGudmAKAMbC+Y+GvebEKm48N1/Qfqm++X2GLu4BAGOhsRAA2HNXV7F5RxWah9a90e367dlxM5fm+17CM+/2nlWhSHfPnhuL9C0HpQBgLNzrbehOd+rQvCNf0F6cbXdhDwAYC42FAMC8XFyH5lVVaLr5Wuhwk5f2tNAa3iUUwyfHMn3YASkAGAv32UVHvz17UHXmlUfUceOTs/fmC9rGRT0AYCw0FgIA87ItXwtdUMXmBVVo1i+3ayLN+92Ex4YyPSgW6Y2xTDc4HAUA9ulY+OPRsDMz3u9On5gvYF+QL2g/mV3nwh4AMBYaCwGAedlUxea9Wb8Ko7v0OzMrTGG6hXcTro1Fum/2p6FM34ll2uVgFADYb2Phj0fDuHF1FTeeXYfmf+UL2i96NCkAYCw0FgIA8zadvaWOo4dWncuP7Ldnx0xj+ol3Ex4cy+HdY5l+N/tsts2BKABwwMbCHx909ZrD69A84uYL2ebbLuoBAGOhsRAAmLcvVKF59dz7DLODzWQKreGJvdawH8t0Xna9g1AAYMGMhbvfZzhe90Z3yheyT8nenV3hoh4AMBYaCwGAebkp+1gVmhfla6VTM39luEzfSxiL9IjszbFMl2TbHYICAAtuLPyJ9xmuqnpNWcWNz8sXs5/JbnRhDwAYC42FAMC8XJW9L18/bOh3Zo4yny2fR472iuF9Yplek30p2+LwEwBY8GPhT7zP8LA6NL3s3Hwxe1G2w4U9AGAsNBYCAPNySb5uenMdRw/qt2fXmNOW8F8TlsOTs7n3En40u9ahJwCw6MbCHx+Cheb22UOzN+UL2std1AMAxkJjIQAwL3NPcZp7n+GfZ6eb1ZZW3WJ4bK9IT45lel82ne1w4AkALOqxcPf7DFdU3dGJ+QL2yVXc+KF8QbvFhT0AYCw0FgIAe2xXNpt9sorNc/u95g5mtsVdb/3k2lAOz4lFelss03eybQ46AYAlMxb+eDTsNYdUcWNRh9Hz6tB8w6NJAQBjobEQAJiXubOVUfb+ujd6XL89u9rstujeSzjeOW3ybqFI58YyfT27wQEnALBkx8IftaE7fXgdmrvXceNfZlft/n/DucAHAGOhsRAAYM/clH2nis1b6zgKJrhF8l7CIh2ePSeW6XPZNQ42AYBlMxb+xAHZsXV3+qwqNOe5qAcAY6GxEABg3o8mvSH7WhWaP9nQnb6rOW6BjoStwcrsgaFIn4hluiLb6VATAFiWY+Hu9xmO5wvY21Vx41OzL7qwBwBjobEQAGBedmbXZxdUoXlKvzNzmHlu4dRtDSZikf4hlumybLvDTABg2Y+FPx4N48ZVVdh4fB2al2WXubAHAGOhsRAAYF7m3md4Xfbeujvd67dnDzbVHdB3E66L5fD5u/+ScKtDTADAWPizDsx6zUFVZ2Z1Nvc+w7e7qAcAY6GxEABg/qNhvta6Knt9vt460Wy3/wut4SNjmS4yEgIAxsJb91jSg6qzLzuo351eXfWac6qw8VP5onbb7ufuu8AHAGOhsRAAYM/sqkJzWRWb5+Zrr2Or3mi835mx5O2DOq3BWCjT3HsJO/nfDxoJAQBj4fweT3pUvpB9Vh2ar+aL2huNhgBgLDQWAgDM18Z/r8LoIXUYHVGddeX43P95W3vlUaNjoRiu7hXplFCmV8cyXeWwEgAwFu69R5RO1GHja/IF7Q+yrS7qAcBYaCwEAJiv0Vur7vQZVWjWmfrmV7cYrjr71MkTQjF8TizTV7PtDioBAGPh3n9E6aqqO7pfHZrJfEF7ebbdRT0AGAuNhQAA87oO21SF5uXZXfP12Fqz322rt35yZSzSsb1i+PBQpPNjmbY4oAQAjIX7ejTszKzLF7K/lS9oP55dne10cQ8AxkJjIQDAPK7H/j/27j1a06ug73jOmUsukwuEEAKJOMQA551oeAlM8p5nb0FAqqIItAiIF87eBy0iRapFq1BQ0CVWAe8XRAoVfM8ENK0CIgjSGgooLC5BghQTYO/3fXM/CZPbXFf34KzV1bqqFQjJZH++a33Wmf/nn2fv33qfJ9RPpFhTDvVr1iaLbWbAf/qVo8Noz73Crj3fGHdt/FZzjYtJAMBY+NX/nuE57QH2xUcv2fZm3zMEAGOhsRAA4Mux78gbnVKoT8hx9oC18eYWs+A/LO7asyOM9jwsjDZ+Mu7a+LQLSQDAWHjXX7R9Y/Nb7YH2ima/B3sAMBYaCwEAvmSH27PZPMfZr6Rh9k0p1PuYB4+OhCvTbWG08aC4a+PZzWXNPpeRAICx8O7zPcMT2sPrU9sD7ZHvGRavJgUAY6GxEADgy7L/6KtJX9Q8bG2o3X7PcLIyXQ6jjfvF0cZTmjfEXRs3u4QEAIyFd9fRcKhnpVie2x5o397c5MEeAIyFxkIAgC/L3hTrn+VQn92c29tdUxhtnNA8Ju7a+MXm8y4fAQBj4THS+up8lIfZy9sD7Qe/+L59D/YAYCw0FgIAfDmubX60v+8TbpzT/JVLRwDAWHiMvpo0x/L45tfbw+ynPNQDgLHQWAgA8GX51Q7Hwge7cAQAjIXH8mA4WRy3tjo/I4X69PZAu6e53oM9ABgLjYUAAMZCYyEAYCzsaTSMZUuK5SE51Oe1B9t3ejUpABgLjYUAAMZCYyEAYCzsrDzU45uLc6g/3R5wP+QhHwCMhcZCAABjobEQADAW9vUtw6W0Or93e8D95hzqr7W/n/OwDwDGQmMhAICx0FgIABgL+/qe4ZY01LNTLN/VHnb/qLnFQz8AGAuNhQAAxkJjIQBgLOzre4bHp1CPfM/wh9tD7web/R7+AcBYaCwEADAWGgsBAGNhTxd2oZ6Sh9mFKdSXtoffKx0AAMBYaCwEADAWunAEAIyFfX3PcDmtzk5PoT42xfKm9hB8k4MAABgLjYUAAMZCAABjYU+j4VC3pVjOzMPsqTnU97WH4X0OBABgLDQWAgDGQmMhAICxsKPWV+fbc6j3zbG8sPlseyg+5GAAAMZCYyEAYCw0FgIAGAv7usw7Pl189Tkp1N9oD8a3OxwAgLHQWAgAGAuNhQAAxsK+vmd4XAp161osj06x/Fl7QD7okAAAxkJjIQBgLDQWAgAYC3v8teFQvz+HekX2PUMAMBYaCwEAY6GxEADAWNjdLw2X0u5rz8yxvKw9LF9nNAQAY6GxEAAwFhoLAQCMhb2NhpPFljTMximUaXtovqbZ7/AAAMZCYyEAYCw0FgIAGAt7Gg1j2ZFCfUoO9Z1Hf2l4yCECAIyFxkIAwFhoLAQAMBb29S3DM3Oo/7Y9QH+ouclBAgCMhcZCAMBYaCwEADAW9vU9w61pMn9YDvXV7UH6iuZ2BwoAMBYaCwEAY6GxEADAWNjX9wxPTKF+W4r1je2B+qrmgIMFABgLjYUAgLHQWAgAYCzs63uG982h5vZQ/ae+ZwgAxkJjIQBgLDQWAgAYC3v8nmEs39C8uD1cX9bc4pABAMZC//8AgLHQWAgAYCzs63uG29Mwe3R7wD7yPcNPNPscNgAwFhoLAQCMhcZCAABjYU+j4VBPT7E8JYf62vawPfNqUgCMhcZCAABjobEQAMBY2Fnrq/MH5mH2r9sD91tzLHsdPAAwFhoLAQCMhcZCAABjYWevJs2xXJhDfWF78P6AwwcAxkJjIQCAsdBYCABgLOxtNJwsTk6hPir9/fcMZw4hABgLjYUAAMZCYyEAgLGwp8EwliPun0N9cvOmHMvtDiMAGAuNhQAAxkJjIQCAsbCnC8ShbmkenENdbw/j73IgAcBYaCwEADAWGgsBAIyFfX3LcClNFie1h/ELUqg/0f5e4WACgLHQWAgAYCw0FgIAGAv7+pbhchrqvVIssT2Y/2ZzkwMKAMZCYyEAgLHQWAgAYCzs63uGW1Oo982hfmd7QH9Hs89BBQBjobEQAMBYaCwEADAW9nS5GOr2vDr/mjTMnt3+/TGHFQCMhcZCAABjobEQAMBY2Nv3DFdnx6dQRymWV7YH9mscWgAwFhoLAQCMhcZCAMBYqJ5Gw6EupVi2rw/zIYf6x+3B/TaHFwCMhcZCAABjobEQADAWqqPWV+dHXk+6lGN5evOh9gB/e3PYQQYAY6GxEADAWGgsBACMherrFaU7Uqg/3h7iP9vsc5gBwFhoLAQAMBYaCwEAY6F6Gw1juSDF8pr2MD9v9jvUAGAsNBYCABgLjYUAgLFQnZWH+m051He0h/rrHGwAMBYaCwEAjIXGQgDAWKj+Xk16co7lOe3B/vLmZgccAIyFxkIAAGOhsRAAMBaqp8FwslhaW53vTKG8sj3g/01zm4MOAMZCYyEAgLHQWAgAGAvV17cMt6VYHpVDfX170P+fzUEHHgCMhcZCAABjobEQADAWqq9vGZ6SQ/3u9rD/tmbu0AOAsdBYCABgLDQWAgDGQvX1LcPlNJk/KIX6wvbQ/999zxAAY6GxEADAWGgsBACMheptNJwstqdQd6dY/uPRi8t9DkEAGAuNhQAAxkKXjgCAsVA9jYaxnJpCfUI7APyn5nO+ZwiAsdBYCABgLAQAMBaqs3IsO3Ooufmjdhi4wYEIAGOhsRAAMBYaCwEAjIXq6VeG482taZhdkEL9d+1A8JfNrQ5GABgLjYUAgLHQWAgAYCxUT6PhUE9OscQc6subT7XDwQEHJACMhcZCAMBYaCwEADAWqqPWV+f3zcPsie1w8Locy7Xt72EHJQCMhcZCAMBYaCwEADAWqqNXk+ZYzs2hfk8K9a3toLDfYQkAY6GxEAAwFhoLAQCMheppNJwsTkihjlKs/zaH+mkHJgCMhcZCAMBYaCwEADAWqrfRMJZTc6gXNr+UY7nVwQkAY6GxEAAwFhoLAQCMherpsnOoRxz5nuHjcyxThycAjIXGQgDAWGgsBAAwFqqnXxiON49Lu6/dmkN9QAr1u1Mof+0QBYCx0FgIABgLjYUAAMZC9TQaThZLaZgdn2L5uhTri3Ko1ztMAWAsNBYCAMZCYyEAgLFQPY2GsSylUE/IoT68HSbemGO53aEKAGOhsRAAMBYaCwEAjIXq6SI01KW0+9qT0ursW9q/39sOFoccrgAwFhoLAQBjobEQAMBYqN5+bTjUM1Isz2+Hi082+5vDDloAGAv9/wMAxkJjIQCAsVAdtb46f3AO9VfaIePzR0dDBy4AY6GxEADAWGgsBAAwFqqzS9LHNn/UDhuL5oBDF4Cx0FgIAGAsNBYCABgL1dOrScebJ6RQv78dOC5rbvRNQwBjobEQAMBYaCwEADAWqrfRMJbzUiwvOXppeovvGQIYC42FAADGQmMhAICxUL29mnSoqznU17QDyKeafQ5iAMZCYyEAgLHQWAgAYCxUX68mPTHH8pTmknYQmTuMARgLjYUAAMZCYyEAgLFQvY2Gk8UZKZQfa4eRv2hucigDMBYaCwEAjIXGQgAAY6F6GgxjWWq+IYf6c+1Q8sFmv8MZgLHQWAgAYCw0FgIAGAvV04XqULc335xD/d12OPm0AxqAsdBYCABgLDQWAgAYC9XTrwzHm0vp4sWZKdTvbQeUI98zvM5BDcBYaCwEADAWGgsBAIyF6mk0nCy2plAfnGJ5QTuovLO51YENwFhoLAQAMBYaCwEAjIXqaTSM5cQU6u4c6s+0A8tHmgMObgDGQmMhAICx0FgIABgLpZ4uW0M9vfmW5jfbwaU6vAEYC42FAADGQmMhAGAslHr6leF4c0saZl+bQn1mivXSdoC5ySEOwFhoLAQAMBYaCwEAY6HU02g41BNSLCs51B9qPtAOMvsc5gCMhcZCAABjobEQADAWSh21vjo/Ja/OL2oHmZ/PsVzV/h5yqAMwFhoLAQCMhcZCAMBYKPXzatLlHOp9U6iPbV7fDjV7HewAjIXGQgAAY6GxEAAwFko9jYaTxdYU6lkplqc3f9EONwcc8ACMhcZCAABjobEQADAWSj2NhrEcn2I5K4f6/BzLjQ55AMZCYyEAgLHQWAgAGAulzspDPSFdfPWDcyy/6qAHYCw0FgIAGAuNhQCAsVDq7VeGD79xKYd6QhpmkxTKexz4AIyFxkIAAGOhsRAAMBZKPQ2Gk8Vxa6vzI68nPSnF8swc6md9zxDAWGgsBAAwFhoLAQBjodTj60lDvV/z8zmWeTsA7XMIBDAWGgsBAIyFLhwBAGOh1NOvDcebW9NkPk6h/ud2CLreLw0BjIXGQgAAYyEAgLFQ6u8VpSemUJ/UDkLvbm5sDjkUAhgLjYUAgLHQWAgAYCyUOmp9dX52HmY/3g5EH2q+0Bx2OAQwFhoLAQBjobEQAMBYKPV1oXth86vtYPQ3ze0OiADGQmMhAGAsNBYCABgLpZ5eTTre3J6G2ZGL3T3N55r9DooAxkJjIQBgLDQWAgAYC6WeRsNYzkmx/EA7JL29uc73DAGMhcZCAMBYaCwEADAWSr29mnSoX9+8pB2WLmv2+p4hgLHQWAgAGAuNhQAAxkKpr1eTHp9jeVTzqnZousKvDAGMhcZCAMBYaCwEADAWSr2NhpPFaSmUp7eD0+831zhAAhgLjYUAgLHQWAgAYCyUehsNY3lgDvU57QD11uYOB0kAY6GxEAAwFhoLAQCMhVJPl79DXWoenkN9SfMhh0kAY6GxEAAwFhoLAQCMhVJPvzAcbx6Xdl9zchrq49th6sj3DItDJYCx0FgIABgLjYUAAMZCqafRcLJYTsPsfimWpx39nuEXHC4BjIXGQgDAWGgsBAAwFko9jYaxbEuhnpdD/YF2uHpPs88hE8BYaCwEAIyFxkIAAGOh1NPFcKgnNUe+Z/jidsj6tIMmgLHQ/z8AYCw0FgIAGAulnn5lON5cSsPs9BTqY1Osv90OW9c4cALGQmMhAICx0FgIAGAslHoaDYe6NcVyVg6zJ+VQ394OXbc5eALGQmMhAICx0FgIAGAslDpqfXV+fJ4sHpRDfX6O5fJ2+DrgAAoYC42FAADGQmMhAICxUOrlV4bjzaUj3zNMw2xXCvUX2gHsWodQwFhoLAQAMBYaCwEAjIVST6PhZLGcQj1xLZZvTLG8pR3EbnUYBYyFxkIAAGOhsRAAwFgo9TQaxrKUYtmWh/rUHMtn2oHsoEMpYCw0FgIAGAuNhQAAxkKpt+FwvHlKjuUF7VB2o+8ZAsZCYyEAgLHQWAgAYCyUehwNJ4tzUij/+eho6JeGgLHQWAgAYCw0FgIAGAulrgbDWLakWB6XQ/0fR0fDQw6rgLHQWAgAYCw0FgIAGAulni6YQz25eX6O5SPtsHaTAytgLDQWAgAYC42FAADGQqmnXxmON5fTxYtzU6ivaAe2TzW3ObgCxkJjIQCAsdBYCAAYCyX1NBpOFttTqCHF+sZ2cLuq2e8ACxgLjYUAAMZCYyEAYCyU1FHrq/P75GH2fe3w9rbmat8zBIyFxkIAAGOhsRAAMBZK6qwcy9c1/74d4t7re4aAsdBYCABgLDQWAgDGQkmdtTbe3JaG2UXtIPfq5uO+ZwgYC42FAADGQmMhAGAslNTbaBjLGSmWJ7UD3e81n20OONwCxkJjIQCAsdBYCAAYCyX1dCE91J15mD27Hewuba5rDjvkAsZCYyEAgLHQWAgAGAsl9fIrw/HmthzqBTmWH2sHvP/R7HPQBYyFxkIAAGOhsRAAMBZK6mk0nCx2pFAek2L9hXbQ+0xzyIEXMBYaCwEAjIXGQgDAWCipp9EwlvvmUL+j+Z0cyy0OvYCx0FgIAGAsNBYCAMZCSZ2Vh/q1OdRnNe9y8AWMhcZCAABjobEQADAWSurtV4YX3rA9DXWcQ31BiuXTDsCAsdBYCABgLDQWAgDGQkk9DYaTxdLaMDslxRK/+D3DUG90EAaMhcZCAABjoUtHAMBYKKmn0TCW5fT33zP81nYQfHOO5XYHYsBYaCwEADAWAgAYCyX1dIkd6rY8zB6Yhtmz2oHwww7FgLHQWAgAGAuNhQAAxkJJPf3KcLy5lFbnJ6RQd6VYXtoOhp9zOAaMhcZCAMBYaCwEADAWSuppNBzqcgrlpDzMdudQX98OiF9wSAaMhcZCAMBYaCwEADAWSuqo9dX5ctp97Wk51KfmWC5rB8X9DsuAsdBYCAAYC42FAADGQkm9/MpwvHnke4ZLa5PFfVKoz2uHxb9tDjaHHZwBY6GxEAAwFhoLAQCMhZJ6Gg9jeWiK5VXt0Pj5o6OhAzRgLDQWAgDGQmMhAICxUFJXl95DfXSO5Z3t8Hhdc8ghGjAWGgsBAGOhsRAAwFgoqadfGY43d+RYvqcdID/c3OTVpICx0FgIABgLjYUAAMZCSb2NhpPFmSmUl7WD5N80+xyoAWOhsRAAMBYaCwEAjIWSehsNY7kgh/rmdqC80vcMAWOhsRAAMBYaCwEAjIWSOiuHuqV5Ro7lbe1gWR2uAWOhsRAAMBYaCwEAjIWSevqF4XhzKV10zZlpqD/SDpfvbTYdsgFjobEQADAWGgsBAIyFknoaDSeLLWmYjVIs//HoBfntDtuAsdD/PwBgLDQWAgAYCyV11Prq/OQ8zL41h/q77bD5meaAQzcYC42FAADGQmMhAICxUFJfF+VnNc9qB849zdUO3mAsNBYCABgLjYUAAMZCSR21Nt488mrSh6RYX3j0e4Y3O4CDsdBYCABgLDQWAgAYCyX1NBrGcmqKJbTD58/mUD/e/u5zEAdjobEQAMBYaCwEADAWSurp8nyoZ+Zh9sR2CP3tHMvn2t9DDuRgLDQWAgAYC42FAADGQkm9/MpwvLk1h7qz+e4U6p+0A+leh3IwFhoLAQCMhcZCAABjoaSeRsPJ4vgUyjekWJ+fQ/1wO5judzgHY6GxEADAWGgsBAAwFkrqaTSM5dQc6iOan8mxXNMOqIcd0sFYaCwEADAWGgsBAIyFknq6WB/qGXmYPSaF+kbfMgRjobEQAMBYaCwEADAWSurtV4bjzS1pqGenMPvOFMtHHdbBWGgsBAAwFhoLAQCMhZJ6Gw0ni20plnNTrM/LoV7j0A7GQmMhAICx0FgIAGAslNTTYBjLcSmWE3Ooo+Y3cyy3OryDsdBYCABgLDQWAgDGQknq6cI91KW8Oj8lrc6/KYX6Fw7wYCw0FgIAGAuNhQCAsVCSevqV4XjzuDRZLK0N9fQUSkqxfLIdZA87zIOx0FgIAGAsNBYCAMZCSeqs9dX52XmYvTyHWtuB9oBDPRgLjYUAAMZCYyEAYCyUpL5+bbg9D7OQY/mDdqi9xmgIxkJjIQCAsdBYCAAYCyWpt9Fwsjglhfq0drB9d7PZHHTIB2OhsRAAwFhoLAQAjIWS1NNoGMsDUywvbAfcv2pu8U1DMBYaCwEAjIXGQgDAWChJnZWH+vAcy++2g+7fNvsc+MFYaCwEADAWGgsBAGOhJPX0K8Px5glHL+r/sCleTQrGQmMhAICx0FgIABgLJam30XCyuHcK5Tnt0PvO5maHfzAWGgsBAIyFxkIAwFgoSb2NhrGcl0N9xdHvGe53CQDGQmMhAICx0FgIABgLJamzcqiPaV7TDsFXuAgAY6GxEADAWOjCEQAwFkpSb78yfMT1J6ehPr0dhP+gudqFABgLjYUAAMZCAABjoST1NBhOFktrw+zsFMsLcqh/1g7Ft7gYAGOhsRAAMBYaCwEAjIWS1FHrq/Pt68Nsdw71pUcv9X3PEIyFxkIAwFhoLAQAMBZKUmeX+qd+8WI/1Fe3A/KVLgnAWGgsBACMhcZCAABjoSR11Np4czmtzu+fQn1G+vvvGV7rsgCMhcZCAMBYaCwEADAWSlJPo+FQt6dQHpJDfW7z39uB+TaXBmAsNBYCAMZCYyEAgLFQknq66B/qqXmYXZxD/ekcy9+0g/MBlwdgLDQWAgDGQmMhAICxUJJ6+ZXheHM5h3pG85gUyu+1w/P1LhDAWGgsBACMhcZCAABjoST1NBpOFltTKGenWL4rh/ouryYFY6GxEAAwFhoLAQCMhZLU22gYywk51Ac2z8mxfKYdpg+5UABjobEQADAWGgsBAIyFktTTCDDUk9LqfCXH8rJ2oN7rUgGMhcZCAMBYaCwEADAWSlJPvzIcby7lWE5Kw3ycYvnzdrA+7HIBjIXGQgDAWGgsBAAwFkpST6PhZLGUYjlxLZZvz6EWFwxgLDQWAgDGQmMhAICxUJJ6Gw1jWcqhHvmm4U/lWK5rB+2DLhvAWOj/HwAwFhoLAQCMhZLU02g43lxOF199bgr1Te2w/QWjIRgLAQCMhcZCAABjoST1NhoO9YQUyrekWN7VDt03NYdcPmAsNBYCABgLjYUAAMZCSeqo9dX56XmY/VAO9cNHf2l42CUExkJjIQCAsdBYCABgLJSkvoaD85pfagfwTza3uojAWGgsBAAwFhoLAQCMhZLUUWuTxUlpmD2uHcJ/v/lcc4cLCYyFxkIAAGOhsRAAwFgoST2NhrGcmWL5vnYY/+PmOq8mxVhoLAQAMBYaCwEAjIWS1Fl5qA/Oob6kHcrfd/R7hi4oMBYaCwEAjIXGQgAAY6EkdfMrw/Hm9hzqpB3Mf7m5vNnnkgJjobEQAMBYaCwEADAWSlJPo+FkcUoK5SntgP76o98zPOiyAmOhsRAAwFhoLAQAMBZKUk+jYSxn51DX20H9T5q9LiwwFhoLAQCMhcZCAABjoSR1Vg513Pxkc5lLC4yFxkIAAGOhsRAAwFgoSb39ynC8eXwa6qPbof0VzVUuLzAWGgsBAIyFxkIAwFgoSeptNFyd3yvF8l05zH6/HeBvcomBsdBYCABgLDQWAgDGQklSR62vzpfXh9l5OdScY3lPO8jf4TIDY6GxEADAWGgsBACMhZKkvgaI43Ooj2x+rB3mP+5CA2OhsRAAwFhoLAQAjIWSpI5aG28upcnitBTqN6VYX9kO9cXFBsZCYyEAgLHQWAgAGAslST2NhkPdkkK5Xw71yc2l7XD/BRccGAuNhQAAxkJjIQBgLJQk9TRKDPX4vDr/uhzqD+ZY3t8O+ftddGAsNBYCABgLjYUAgLFQktTLrwzHm0t5mO1IoZ7f/Gw76FeXHRgLjYUAAMZCYyEAYCyUJPU0Gk4WyynUU1IsIYf6B+3Af7NLD4yFxkIAAGOhsRAAMBZKknoaDWPZkkPdkYf6xBzLX7eD/0GXHxgLjYUAAMZCYyEAYCyUJPU0WAx1OT3yunvnWJ5z9NWkh12CYCw0FgIAGAuNhQCAsVCS1Flrk8VZKZbX5VhvaA65DMFYaCwEADAWunQEAIyFkqTeRsNYHpFDfW+O9Sa/NMRYaCwEADAWAgAYCyVJHZZDfVaO5fIc614XIxgLjYUAgLHQWAgAYCyUJHXU2njzuLVHXndGCvUXc6x/19zmggRjobEQADAWGgsBAIyFkqSeRsOhbl0LdXeK5Q051qua/S5KMBYaCwEAY6GxEADAWChJ6qj11fmO9WH2L3Oof5JjnTcHXZhgLDQWAgDGQmMhAICxUJLU18hxVvNjOdb/1tzg0gRjobEQADAWGgsBAIyFkqSOWpsstqdhdmGK9RdyrB9p9ro8wVhoLAQAjIXGQgAAY6EkqafRMJbT0t+PHr/TXOnVpBgLjYUAgLHQWAgAYCyUJHVWHuoDcqjPzrFe2lzjIgVjobEQADAWGgsBAIyFkqSOWhtvbs2hjnKs/+7o9wy9mhRjobEQADAWGgsBAIyFkqSuRsPJ4sQUSkyx/lyO9fJmv4sVjIXGQgDAWGgsBAAwFkqSehoNY7lPDvUJOdbXNtc2h12wYCw0FgIAxkJjIQCAsVCS1NMoEuq5zfc1/yXHus8lC8ZCYyEAYCw0FgIAGAslSR21Nt7clob69TnMnpNi+ZiLFoyFxkIAwFhoLAQAMBZKknobDY98zzCWSQ6zV+RQr3PhgrHQ/z8AYCw0FgIAGAslSZ21vjo/M4f6uBzLm5vbXLwYC42FAADGQmMhAICxUJLU11iynEN9UB5mT02hXubyxVhoLAQAMBYaCwEAjIWSpI5aG28ely6++vgU6krzoymWT7uEMRYaCwEAjIXGQgAAY6EkqafRcKhLKZQdOdTdzWuaG13GGAuNhQAAxkJjIQCAsVCS1NOAMtQtabI4PQ+zb8+xvD3HeodLGWOhsRAAwFhoLAQAMBZKkjrpyKtJ8zDbkobZmSnU5+ZYvZrUWGgsBAAwFhoLAQCMhZKkrkbDyeK4NNSltVgelEP9xRzrvDnkksZYaCwEADAWGgsBAIyFkqTOykN9ZI7lD3P84vcMD7qsMRYaCwEAjIXGQgAAY6EkqaPWxpsn5lCfnGP9y2avXxoaC42FAADGQmMhAICxUJLU22g4WdwnxfLTOdZPNLc1h13eGAuNhQAAxkJjIQBgLJQkqafRMJZRDvV1OdbPNPtd4BgLjYUAAMZCYyEAYCyUJKmzcqjfnmP5rznWuUscY6GxEADAWGgsBACMhZIkddbaeHNHCvVHcqzvazZd5hgLjYUAAMZCYyEAYCyUJKmnwXCoRzw4xfLzOdYPNbe71DEWGgsBAIyFxkIAwFgoSVJHra/Ot60Ps0fnUH87x/q3zQGXO8ZCYyEAgLHQWAgAGAslSeprkDml+d4c6yVNdcFjLDQWAgAYC42FAICxUJKkjlqbLLamYXZeCvUFOdY/b25w0WMsNBYCABgLjYUAgLFQkqSeRsNYTkqxXJRjfWnzEa8mNRYaCwEAjIXGQgDAWChJUmflod47h/odOdbfaq506WMsNBYCABgLjYUAgLFQkqSOWhtvbsmhfk2O9Znt71u8mtRYaCwEADAWGgsBAGOhJEm9jYaTxfYUyq4U6w/nWD/Q7HMJZCw0FgIAGAuNhQCAsVCSpJ5Gw1hOyaFe3PxcjuXIq0kPuQwyFhoLAQCMhS4cAQBjoSRJPQ04oZ6Zh9njUqivybHe7ELIWGgsBAAwFgIAGAslSeqoI98zTEM9J4XZE1Ms78mx7ncxZCw0FgIAGAsBAIyFkiT1NBpOFttSLOeuD7Pn5VA/63LIWGgsBACMhcZCAABjoSRJnbW+Ot+RQz03x/KbzV6XRMZCYyEAYCw0FgIAGAslSeqsHMtpaXX+iBTq21wUGQuNhQCAsdBYCABgLJQkqaPWxpvHre2+djmFep8US2o+6sLIWGgsBACMhcZCAABjoSRJPY2GsRyxJYd6/+ZlzSLHetjlkbHQWAgAGAuNhQAAxkJJknoaDsebW/Pq/BtyLK9tbsixHnSJZCw0FgIAxkJjIQCAsVCSpJ5Gw8nixDTUJ6ZY/iLHurc55DLJWGgsBACMhcZCAABjoSRJPY2GsdwvhfojOXxxBLrF60mNhcZCAMBYaCwEADAWSpLUWXmoD82h/HKO9TPN7S6WjIXGQgDAWGgsBAAwFkqS1FFr483j0+rsX+RQL8mxzpoDLpiMhcZCAMBYaCwEADAWSpLU02g4WZyWYvnBHOs7m+t9z9BYaCwEAIyFxkIAAGOhJEm9jYaxfG0O9aU51vf7nqGx0FgIABgLjYUAAMZCSZI6LIc65Fh+Lcf6yeagSydjIQCAsdBYCABgLJQkqaPWxpsnpFCflmOdNtVYaCwEADAWGgsBAIyFkiT1NhoO9f4plufmUN+eY91rLDQWAgAYC42FAADGQkmSOmp9dX7EBTnMXp5j/WCzz1hoLAQAMBYaCwEAjIWSJHXS2njzuLT72lNyLN+SY/2V5lPGQmMhAICx0FgIAGAslCSpp9FwslhOw+ysFOrTc6x/0MyNhcZCAABjobEQAMBYKElST6NhLNtTLA9pfiDH+u57+qtJjYUAAMZCYyEAgLFQkiT934PSUE9qLs6h/occ60eNhcZCAABjobEQAMBYKElSR62NN5fzMDs9h/rYFOqv51hnxkJjIQCAsdBYCABgLJQkqafRcLLYmoZ6dorlX+ZQ35pjvc1YaCwEADAWGgsBAIyFkiT1NBrGcnwO9dzmuTmWI68mPWAsNBYCABgLjYUAAMZCSZJ6GptCPTkPs/PTUF+WY50bC42FAADGQmMhAGAsdHMqSVJHrY03l9IwO7V5RIplT471VmOhsRAAwFhoLAQAjIWSJKmn0XCyWE6xnLY+zI58z/DIq0kPGguNhQAAxkJjIQBgLJQkSR21vjrfkkPdkWP5qeY6Y6GxEADAWGgsBACMhZIkqbNyLEtrF95w7xTqa3Os+5pDxkJjIQCAsdBYCAAYCyVJUketxbLcPC7F8mdHv2d4yFhoLAQAMBYaCwEAY6EkSeppmBrqic0P5lA/kmPd2xw2FhoLAQCMhcZCAMBYKEmSOmltvLmcJoudOZaXN3+bY73NWGgsBAAwFhoLAQBjoSRJ6mk0nCy2p6EOKZQ35VjL0W8aGguNhQAAxkJjIQBgLJQkSd2MhrHcK4X6jBzq23KsV9+V3zM0FgIAGAuNhQAAxkJJknRXjFZDPSeH+sIc6/ubm4yFxkIAAGOhsRAAMBZKkqSOWhtvbkurs9051FflWD/R3G4sNBYCABgLjYUAgLFQkiT1NBpOFjtSLN+ZY319c1Vz0FhoLAQAMBYCABgLJUlST6NhLPfLoT47x/pfm+uaw8ZCYyEAYCw0FgIAGAslSVJPg1ao5zc/nmO9rLnDWGgsBACMhcZCAABjoSRJ6qi18eb2FOpjcqy/1FxxZ7ya1FgIAGAsNBYCABgLJUnS3Xk0HOrpKZYn51Bf01xnLDQWAgDGQmMhAICxUJIkddb66vyBOdTvybG+I8dyu7HQWAgAGAuNhQAAxkJJktTX0HXEhTnUF+ZY/9pYaCwEAIyFxkIAAGOhJEnqqLXJ4ri11fmpKdRHpVhflWO90lhoLAQAjIXGQgAAY6EkSeppNIxlubl/iuUJOdSNHOsdxkJjIQBgLDQWAgAYCyVJUk/j11C35WF2Xg415Vjfayw0FgIAxkJjIQCAsVCSJHXU2nhzKa/OT8qhnp9C/ckc6/80FhoLAQBjobEQAMBYKEmSehoNJ4vlNNRTUyyTHOpv5VivNxYaCwEAY6GxEADAWChJknoaDWPZkkI9LYf6nTmWI68m3W8sNBYCAMZCYyEAgLFQkiT1NIyFujVdfPWZaZg9J8f6aWOhsRAAMBYaCwEAjIWSJKmj1sabx6XV2Za11fkDUiyvPvpq0sPGQhePAICx0FgIAGAslCRJnbW+Or84h/rWHOvNKZZnGgsBAIyFxkIAAGOhJEnqrBzL96dQL1ob6lZjIQCAsdBYCABgLJQkSTIWAgAYC42FAADGQkmSJGMhAICx0FgIAGAslCRJMhYCABgLjYUAAMZCSZIkYyEAgLHQWAgAYCyUJEkyFgIAGAuNhQAAxkJJkiRjIQCAsdBYCAAYCyVJkmQsBAAwFhoLAQBjoSRJkoyFAADGQmMhAGAslCRJkrEQAMBYaCwEAIyFkiRJMhYCABgLjYUAgLFQkiRJxkIAAGOhsRAAMBZKkiTJWAgAYCw0FgIAxkJJkiQZCwEAjIXGQgDAWChJkiRjIQCAsRAAwFgoSZIkYyEAYCw0FgIAGAslSZJkLAQAjIXGQgAAY6EkSZKMhQCAsdBYCABgLJQkSZKxEAAwFhoLAQCMhZIkSTIWAgDGQmMhAICxUJIkScZCAMBYaCwEADAWSpIkyVgIABgLjYUAAMZCSZIkY6GxEAAwFhoLAQCMhZIkScZCAABjobEQAMBYKEmSZCwEADAWGgsBAIyFkiRJxkIAAGOhsRAAwFgoSZJkLAQAMBYaCwEAjIWSJEnGQgAAY6GxEADAWChJkmQsBAAwFhoLAQCMhZIkScZCAABjobEQADAWGgslSZKMhQAAxkJjIQBgLJQkSZKxEADAWGgsBACMhZIkSTIWAgAYC42FAICxUJIkScZCAABjobEQADAWSpIkyVgIAGAsNBYCAMZCSZIkGQsBAIyFxkIAwFgoSZIkYyEAgLHQWAgAGAslSZJkLAQAMBYCABgLJUmS9JUshfrQFMtrcqybLh4BAGOhsRAA4Ms2ml4edm08wc2bJEnSMdDaULenWM7JoebmAznWfS4gAQBjobEQAOCfK4ym1zavjKPpBcP5l+xw8yZJknQMlYd6Up4sHppjfVGO5cr295CLSADAWGgsBAD4p39JuHFb3DXdGFY2Hru6snHGsDJdctsmSZJ0DLY23lzKsZychtnDUii/n2O9zWUkAGAsNBYCAPwjvya8rHlac9bFD7lk63jnpS7ZJEmSjvnRcLJYTqHsWIvlXxx9NalfGQIAxkJjIQDA/x4Jd23UMNp4cRxNdw6j6baJXxNKkiTdA0fDWJZzqNvzUNdyLDfmWA+7nAQAjIXGQgCgW4fjaOPWMNr4T8PKdFf7uzUaCSVJkvooPeL6++RYXp5jvaU56JISADAWGgsBgI5Gwl0bdzR/GkYbjxnvvHS72zJJkqQOO/J60rUj3zOM5R051pu8nhQAMBYaCwGAe/xIeFtzeRxN/81kZXqaGzJJkiQdeT3piSmWp+ZQP3R0NPR6UgDAWGgsBADuWY78kvDKMJq+Oq5MH+RGTJIkSf+gHOr9mhfnWC7Pse51cQkAGAuNhQDAMe9AU+Jo45Iw2niUGzBJkiT9o62NN7emyfyCFOpv5FivbG53gQkAGAuNhQDAMedQc33znmG08YzxzktPdPMlSZKk///RcKinpFCenGN9S1ObAy4yAQBjobEQADgm3NJ8MI6m/2E4/5Jz3HRJkiTpS259df6APMyem2P98+b65pALTQDAWGgsBADutq8cvSKMpr++OtrzcDdbkiRJ+oqVY7mg+Zkc6weaW1xqAgDGQmMhAHC38rk42nhT3DX9V26yJEmSdKe0Nt7cnobZY3Ksv9N8qtnnchMAMBYaCwGAu9R1zbvCaPrcR573ltPGOy91iSVJkqQ7eTSM5awUyzNyrNNm4dWkAICx0FgIAHzV3dq8P46mL4or04c1W91aSZIk6ataHupD8jB7fo71Hc0XXHQCAMZCYyEAcKfb31weRhu/PKxMH9ec6JZKkiRJd1lHXk2aY9ndvDjH+tHmsAtPAMBYaCwEAO4U8zjaeEMcTZ+6urLnzPHOS5fdTkmSJOnuMRpOFienUL4tx/przdylJwBgLDQWAgBfMTc3f9r80NCeIyZeOSpJkqS77WgYywNyqE9rNnIst7v8BACMhcZCAOBLdiCONj4cdm38RBhtXBhXpie5fZIkSdLdvjzU5WYlh/rDzWUuQAEAY6GxEAD4Z7sqjjZ+MaxsPHZYmd7LjZMkSZKOqdbGm0vpoqt3pKFenEJ9SY71KhehAICx0FgIAPyTvhBH0z8MuzaeGEYb9x/vvHSLmyZJkiQdu6PhZLGcQj09xfLNOdbfbm5yIQoAGAuNhQDAP7A/jKZ/FUfTtea8ycp0m5slSZIk3XNGw1i2plCPfM/wqTnWdzT7XIwCAMZCAICNQ3G08fkw2nhxGE1HvksoSZKke3Q51OPzMPu6FGbPz7Fe4XIUADAWAgAduyOMpm9YfeglF4bRhu8SSpIkqY+++D3DYbYjhfrwFMurcqxXuyQFAGOhsRAA6Mpo+pdh155vDaPpGeOdly67MZIkSVJ/o+FQl1MsJ68Ps0fnUP9LjvVWl6UAYCw0FgIA92RhNJ0Noz0/GEfT04fzL9nqhkiSJEndt746X86hnphj+d7mYznWAy5NAcBYaCwEAO5ZvyTc2Bt3TX+9OXN1tGebGyFJkiTp/yrHsrQ2WZyVQn1xjnXWHHR5CgDGQmMhAHAMO9zsD6PppcNoetHqaLot7pq6BJIkSZL+qdZiuSDF8ns51muNhgBgLDQWAgDH4Eh4WxxN39d8d1yZnuy2R5IkSfoSykN9Qg713TnWG12kAoCx0FgIABwDbguj6RXDyvRFzf3d7kiSJElfZmvjzZNzLP86x/qZZq8LVQAwFhoLAYC7oX3NvPndYWXj4eOdl/ouoSRJkvQVHQ1X5w9Mofza0dHwdherAGAsNBYCAHcDB5qrmz8Zdm08abIy3eEWR5IkSbqzBsNYtqZYHpVDneZYr/I9QwAwFhoLAYC78LuENzbvDbs2nhdXpme5uZEkSZK+SuWh7sihfk+O9c+bq12yAoCx0FgIAHw1v0vYfDSMNl4xrExX3NRIkiRJd0Fr483ldPFiZwr1J3Os72++4LIVAIyFxkIA4E5+5eiVYdfG61ZHG48f77z0eDc0kiRJ0l09Gk4W21OoF6VYfjnH+rFmn0tXADAWGgsBgK/wK0evbd4SR9M0WZme6kZGkiRJuruNhrGcmkJ9Yg71DTnWK33PEACMhcZCAOAr4Nbm3WE0fWFcmT7QDYwkSZJ0Ny+Hek7z7BzrHzc3uIAFAGOhsRAA+BJ9PIw2fra5yI2LJEmSdAy1Nt7cmobZw1KoP5VjfV9zq4tYADAWGgsBgP9PpXltGE2f5LuEkiRJ0rE8Gg71lBTLN+VQf6H5VI71gAtZADAWGgsBgP+Hm8OujTfH0fRZw/l7HjCcf4nLFUmSJOme0Prq/Mwc6nfkWF+fY7mm/T3sYhYAjIXGQgDgqH3NZWE0/TfDaGPX6mjPFrcpkiRJ0j2wHMt5OdTUvD3HeofLWQAwFhoLAaB7nwyjjZ+Lu6aPak50eyJJkiTdw1ubLE5IoV6QYv2JFMtH/MoQAIyFxkIA6NI8jjZeF0fT7xhG0zMnK9NltyaSJElST6NhLPdKsezOob6yudZFLQAYC42FANDJK0dHG+8Ko+kz42i6M65Mt7slkSRJkjouD/V+eXX+rTmWPS5rAcBYaCwEgHu0j4fRxo8OK3u+fljxylFJkiRJrbXx5nHpkddty7F8bQr1+1IoH3JpCwDGQmMhANyjLMKujVeF0cbu5tTxzkuX3IhIkiRJ+j9Hw8liaW11dkIKZSXF+lM51M+7vAUAY6GxEACOaXvDro0/iqONx7e/p09WplvcgEiSJEn6x0fDWJZSLDtyqLtzrG/MsdzmEhcAjIXGQgA4phyMo41PhNFGCrs27hNXptvceEiSJEn6Z5VDXU6Txb3S6uzb27//m4tcADAWGgsB4JhwwzDaeMnFD37zA8JoY7sbDkmSJElfcl/8nuFkvpxW56enUJ+bY/275rBLXQAwFhoLAeBu5/Y4mr5ldWX6oGG0sXW881IXG5IkSZK+wuNhLF+TQ/2lHOs1zUGXuwBgLDQWAsBd6nBzRxhNPxxXphe7uZAkSZL0VSnH8tjmj3Os1xsNAcBYaCwEgLvql4Qbfxd3TX/CTYUkSZKkr3pr480T0jB7Vo71/c3NzSGXvQBgLDQWAsCd7o5mHkbT39h93pvP8rpRSZIkSXftaDjUs1MsL8mxfqy51TcNAcBYaCwEgDvFgSMjYRxN3xx27QnD+ZdscyshSZIk6W7T+up8nEP9vRzrZ5p9Ln4B+F/s3Xm0ZGdB7296SCedeSZAAocASe3T4CoSklTt90UQQUBRREAQh7v3bi4gFwcUcAThyuAIAiKK4JVB9+42cHBkEJkEBAQRiEEuJATqrXMyHzJ0ujs9/H7vCY0XFUKGHs7Z53nW+qz+y7Xuzbur6lR9qdoyFhoLJUnaL+3JXRWK9v1l0f3ouNhyjE8hAACAZakaLh7ZxMnjc29vYpr48FeSJGOhsVCSpDvVV2PRfTwW7a+OB1vuO5yZW+fTBwAAYPmPhqOFk+uQntnE9OHcNT4EliTJWGgslCTpdrUtd3EsuleVRXvBaNAe7tMGAABg5Y2GcXL/Ok7+dxPTJ3O7fBgsSZKx0FgoSdK3/cnRSSy6N8Wi/cE4aE/w6QIAALCiNWVan3tEE9Mbc5/zgbAkScZCY6EkSd+0a3LvCIPup8pBe4ZPFAAAgN6ohotr6gsuP6mJk6c0Mb01t+CDYUmSjIWSJOk/fnL0o7kXhKL7juHM3GE+SQAAAPo5Go4W1tVluk8dJs9uYnp37jofEEuSZCyUJGmVtjt3ae4VYbb77tGgPconBwAAwOoYDeNkYx3S+U1IS/cz/Ff3M5QkGQuNhZIkraL27vvJ0T8PRfsjcdCe6pMCAABgVWpCOjH3mNwfNDFd5sNiSZKx0FgoSVLP2xWKpfsSbnlG/vdsnwwAAACrXjVcXFePp2fUIT153/0MF31oLEkyFhoLJUnqXUX7uTDb/XxZdOe6LyEAAMB/HQ1HCxvqOJmtY/rJJqYP5Xb48FiSZCw0FkqStNILRXtNmO1eHYt26b6ER/oEAAAA4NZGwzg5ugnp3CamlzVxcmn+d7cPkSVJxkJjoSRJK++bhN32/O9fhaJ97LjYco+cN/0AAAC3VRMnd23K6UPrkP5PE9N1PkiWJBkLjYWSJK2gPhYGXRWLbhBn23Xe5QMAANwBt9zPMKTTc4+v4+Q9TUw7faAsSTIWGgslSVrGXZL71TDbPXB01paNw5m5Nd7dAwAA3NnRsEyH13Fyr83l9OlNSJc0Me31wbIkyVhoLJQkaRn11VC0b8o9JMx2x5ebtq71bh4AAGA/2zyeP7IeLcw2cfJ7uRt8uCxJMhYaCyVJOsTtyL0nFN0TR2dvOa0ctOu9ewcAgEOoKdM5dUg/nDvDf41+qoaLa5o4Oboup2U+57/0AbMkyVhoLJQk6RB1cSjaZ5VFe89y0G3wk6MAALAcxsI4eVQT00frmP55aTSsynS0/yo9HAxHC3epxvNr8xkfV8fJj+b+xQfNkiRjobFQkqSD1LVhtnttHLSbyqI9bDRojYQAALCMxsJHNzF9fTja04T0zno8/6B6dPnhTZz6471vo2GcLLWmKdNJ+axfkM//2nzuu33oLEkyFhoLJUnaz+3N3RSL7l3loA1htlsbB6035gAAsMzHwluqv3Zvu9flZqo42bA0MNHD4XC4uK4ezy/dz/D1+ayvz+3y4bMkyVhoLJQkaT+MhNtznwpF+6ThzNyR3oEDAMAKGwv/YzQMab6Ok6aO6W7VaMENx/s6Go4WNtZlenQdJu/O537dLd8w9SG0JMlYaCyUJOn2tzP3hTDb/dpo0J7iHTcAAKzwsfD/fdMwfaIupw9rQjqlGi6u9V+tp6NhnJxSh/Sz+Zw/nc996dule30YLUkyFhoLJUm6De3OpVC0W+Ogvb932AAA0LOxcF+7mpDeUJfTURUnJ/kv1+NrIqRN+br4vXzm/567yQfSkiRjobFQkqRb6YpYdP8Qiu5x3lEDAEC/x8Kl9tZxspD733VIm6o4Odp/wX6qhosb6vH0u5uQ3pLP/Su5m30wLUkyFhoLJUn6hq7LfaIsup8Zzswd5Z00AACsjrHw6+2sQ/qnOqb/mf/vz6pGCxv8l+zpaDhaOLaOkzqf+TtzV7mfoSTJWGgslCSt+nbkPhuL9pXjQXuv0aBd490zAACsvrHw612Xe2sTpk9owvzp1XBxnf+i/bR5PH+/JqTn5/P+J/czlCQZC42FkqRV2a7cpaFo31wW3SPGxRb/w2EAADAW/kepCdPfq8vpI+qQ3M+w39fLd+Zekc/8s7ndPqyWJBkLjYWSpFXRQiy6uVi0m+Nse7x3xwAAYCz8Zu3IfbKO6VdyD3I/w/6qhotH1CH9UD7vN+27n6EPrSVJxkJjoSSpn301974w2/3C+OwtZw5n5tZ6VwwAAMbCb9di7l25ZzXldOl+hof5r9zT0bBMp9Vx8tR81u/IXe+Da0mSsdBYKEnq1X0JPx2L9jfDbHdBuWnrRu+CAQDAWHh7m9Yx/VnuKU2cnuy/dI+voTKd05TTpfsZfiS30wfYkiRjobFQkrRi2/21+xJ2ry8H7eNy3s8DAICx8E61K/e5OqRXNuX0uzaP54/0X7x/quHiXerzrjwqX0vf3YT02/nML/YhtiTJWGgslCStuBZzfxmLrgpFd+/hzNw673gBAMBYuL+6KfdPdUwvrEK6f1Wm9f7L93A0HC2srcbzp+67n+Fbclf5MFuSZCw0FkqSln3bcx/NPTfMdsPRoD3cO1wAADAWHqiuyb2nCeln6/OvOLkaLq5xAj0cDePksDqk++Vzfuq++1f6aVJJkrHQWChJWn7tiUX3pVB0LwmzXYyD9jjvaAEAwFh4sEp1nFxYxckP5tY6hZ5eW2XamDu3CekX85l/0gfbkiRjobFQkrRsui73ujDY8phy0N7VO1gAADAW/ssh+JBv6X6G/16H9CdVnGxyEv1UDRfXNuX0hCakB+ezfkU+84kPuCVJxkJjoSTpkLU7Fu2Hw2z3pDjb3tN9CQEAgEM5Fn697blP1DG9uBotnOJEejoajhbW1WU6rY6T729Cens+820+6JYkGQuNhZKkg1co2hSL7pmxaDe5LyEAALCcxsKl9uYWcx9s4vSJ1XDxSCfT09EwTjY0Id0r9z/ztffJfd8w9aG3JMlYaCyUJB2oiu7GUHSvCkX7gDhoj/bOFAAAWI5j4dfbnZvWcTJXh1Q6nR5fdyEd2Yznz67L9Pyle1j60FuSZCw0FkqSDsS3Cbu58dlbvjP/e3LOm1EAAGDZj4Vfb2fu0qV73FVxcl+n1E/VcHFNPZ4eXZfT76jj5M/ymd/ow29JkrHQWChJ2h/fJmwvCrPd/yhnu7udd98L1w1n5rwJBQAAVtRY+PWfJt2Ruyj/v/GnqtHCCU6rp6PhaGFtHSdHbS6nS/cz/OS+b5j6IFySZCw0FkqSbv99Ca8qi+6FuZkwu2VDuWmrN50AAMCKHQu/cTS8sY7pnU2Yf1R1zjUb65AcXA9tHs+vbUI6PF+Tz8nN7zt7H4hLkoyFxkJJ0q23d+m+hPnfLs62DyiLbv242LLGu0wAAKAvY+E39tU6pDfmzskdVpXJm5+eqoaLx+Yz/v185tt801CSZCw0FkqSvml7cjty7y8H3SOGM3OHeTcJAAD0fSz8epfWMT2vDunezXh+QzVcdJB9HAzLtNQ5dZz8TT7z63N7fDguSTIWSpLU7c1tz/1rLNpnx0F7N+8gAQCA1TYWfr2PNeX0iXU5f7cmTtc7zZ5eo2U6Itc0If1zPvPrjIaSJGOhJGkVj4RL3yS8JBTtq8pBu8k7RgAAYLWPhf9fHSc35X/flntoU05PWrrvnVPtn2q4uLYeLZyRr9cX5C7K532DD8olyVhoLJQkraJ25aax6LpQ3PKTo4d7pwgAABgLv3E0DOnqJkx/q47pvGo8f2Q1WnC4fRwNRwuH1eX03Hzer83nfllupw/MJclYaCyUJPX8voTXLN2XMMx2TxsN2uO9MwQAAIyFt/pNw3RxHaZPa0IaVA+81k+T9nU0jJNj65CekM/57fncp36aVJKMhcZCSVIPuyn38TDbvSgO2jO9EwQAAIyFt6eQ/rYup4+v4uReTrnH12+Z7p7P+mfzmb8/d7UPzyXJWGgslCT15NuEF8Wie305aM/3zg8AADAW3vH7GV5fx/THdUiPrOLkJKfdT9Vw8bAmpAfkM39x7pO5G32ILknGQmOhJGmFdkXuwjjbPmY4M7fROz4AAMBYeOfbU4d0WR3Tr+X/v46r0YI3W30dDUcLR9Zh8vB85kv3M7wkt8uH6ZJkLDQWSpJWSDfm3hWL9rmjQXuid3gAAICxcP+3I/eB3M80YVosfRvN6fd0NIyTU5uQfiKf9YW5K3J7faguScZCY6EkaZl28y33JSzal8ZBuym3xrs6AADAWHhguza3pQ6pzp3uCujxtR3SIPfs3LvzmW/zwbokGQuNhZKkZdYloeh+P/c9ucO9iwMAAIyFB/GnSXOX5V5Tx/SoKk78xEtPVcPFDXWZLshn/ZLcRbndPmCXJGOhsVCStAzuS7glFN1PjM7acspwZs63CQEAAGPhIerG3CdyL23K6XnVaOEIV0RPR8MynVDHyfc1Ib0md4UP2SXJWGgslCQdgraF2e7dseielf89u9y01e0xAAAAY+Ey6Zrc39cxPbspF+5XDRfXuzL6afN4/vQmpCfm8/7rfO1v92G7JBkLjYWSpIN0X8JPx9n2+WXRnTcuthzp3RkAAGAsXH4t/TxlqkOaa8rpkzeP509wdfT6uv+OJqSn5TP/qGtfkoyFxkJJ0gFsEoruNblHxdn2JO/GAAAAY+Hyb2fu83VMr6tDenBVJj9N2kPVcPEu1XlXHpHPuMxn/Zv5zL/o2pckY6GxUJK0H1uMRTuX+5GyaO85GrR+chQAADAWrrBuyH22Cek369HCTDVcXOtq6eFoGCdrc6fWcfLwfNZvzGe+6NqXJGOhsVCSdCfaEYr2Y7lnxqK9Xxy0G73zAgAAjIUru8U6Tj5SxcnTcu4r0dfHQZnWN+PpvZpy+iP5MfGufO47XPuSZCw0FkqSbmcLuReNz+4eWA7aY7zTAgAAjIX9aU/u8jqk91Rx8p25Na6c/qmGi2ua8fzGJqSz8ln/3NLP0br2JclYaCyUJN2Gbgyz3Z+Hoothtj1hODPnl2kAAABjYU/blZuvY3pLNVq4u6unp6PhaGFNXaaj6zh5UBPSq/OZX+XalyRjobFQkvRN2h1mu4/Gov3B/O/Jo0G7zjsqAADAWLg62pmbNCE9rxouHu0q6uloGCfr6pCOzuf8Xflx8rf7zt31L0nGQmOhJOn/i0V3TTlonxFmuxPjoD3MOygAAMBYuDrbXsfJp+qQHu1K6vFjpEzr6vOvOLEJ6Sn5zD/jupckY6GxUJJWd2XR/fH5973w9NJICAAAGAu1rxvrkOaqpZ+tjJP1Sz9j6crql2q4eJcmpDX5bE+p4+Rl+cwX9t3L0vUvScZCY6Ek9b+9uZtj0f5jOWiH46Jb98B7z3mjBAAAGAv137oq//f8nbqcv08T5jdUw0WjYV/HwziZbULams/8mtxu174kGQuNhZLU25Fweyjaf4+D9odzR3g3BAAAGAt1W/pcE6b/sx4t3KMOaYOrrMePn5B+ID+G/jGf+WJur2tfkoyFxkJJ6k07YtF9KRTdi3KnevcDAAAYC3VHfpr0b3PfX8d0chUn611t/VQNF4+qy/SsfOYXL527a1+SjIXGQkla0e3MLYSi/bPx2d05w5k57+UAAABjoe5U83VMr819Z1NOj/XTpD0eDct0nzpOXpPP/JLcTte+JBkLjYWStKLanbsyFt3fhdnu8eWmrcd4lwMAABgLtT+7uAnp5+owfUATpxtdef20eTy/1MPyWb8tn3lyP0NJMhYaCyVpRdyXcDEU3UfLovu5cbHl7t7ZAAAAxkIdqHbk3pf7iaacnrl5PH+YK7C3j6sjck/PvSuf95WufUkyFhoLJWlZti336Vh0vxuK7rzhzJz3aAAAgLFQB6WvNiG9Of/72Cqk06oyrXUl9s/ST87WF1x+eh3SC/JZ/3PuOte+JBkLjYWStGzuS3hJ7k2haB89GrRHewcDAAAYC33oeCi6rI7pd5uQHlKfd+WR1XDRBdnH0TBONtZx8uDcK/KZX7TvG6auf0kyFhoLJenQ/OToNbm3x6Kt4qD1k6MAAADGwmXRR+qQnlPFyQNzLsq+PtbKdELuCfu+VXqp+xlKkrHQWChJB7XtufeHovu1ctAW3qEAAAAYC5db2+uY/qYO6alVnNzDldlP1XBxXVNOZ/Lj7mn5zP8md61rX5KMhcZCSTqg7cldlPvdONuWw5m5w70zAQAAMBYu567OvS6fy2Or0cIxrtCejoajhcPrMp1Tx/T8fN4fzd3k2pckY6GxUJL2ewu514fZ7nGjQXusdyIAAADGwpXS0s9Tfjb3202cjqrhov/la19Hwzg5rgnpYbl81ukLfppUkoyFxkJJ2i/tyP1dmO3qOGhP984DAADAWLhSW/q22XvrkH41d7artcePwzKd1oT0hHzef5K7yrUvScZCY6Ek3bHCbPfRMOieF4ru3Nwa7zYAAACMhSu9vft+mvTt++5neDdXbT9Vw8X1TUj3ydV1TO/PZ77D9S9JxkJjoSTd5r6ce1lZdA85735/cdRwZs6bDAAAAGNhr7o596XcnzYhPbIaLRzt6u3paDhaOKKOk3PrmH4+n/XST5Pucf1LkrHQWChJ37LrYtG9IRbtY8uiPWU0aNd6VwEAAHA7GAtXXNtyn6pj+q0mzJ9bDRcPcxX30777GZa538uP00XXviQZCw0CkvSf2pn7YJxt61C094qDdr13EQAAAHeAsXBFtvRNs2ubkD5Sh/Tc3D1dyT1+jIZ0t6acPjyf8ztc+5JkLJQk3dK/h6J7bu474mx7pHcNAAAAd2aIMBau5Hbnrqxj+ts6pMdVZTrGFd1P1XBxXT7je+eaOk4+49qXJGOhJK3SLs+9Osx2oRx0xw1n5tZ4twAAAHAnGQt70c7cfBPSm5rx/HBpWHJl909VpqU21iGd3ZTTF+TzvtK1L8lYuHoYCyWt8raFovur3KNi0Z1UbtrqPQ8AAMD+YizsVdvrOLk0//ubTZze1dXdT5vH82s2l9Oj8zk/MD9+/zy3zbUvyVjYf8ZCSau0XbHoPh2K7hkXnLX1HuNii3u2AwAA7G/Gwt6195bRMKSLqzj5odzhrvLePnbX5nM+qS6nj8v//qNrX5KxsN+MhZJWYVeEon1xWbT3CUW3wU+OAgAAHLjBwVjY39FwZx3TB6rx/P3rcrq2Gi664HumGi3c5ZazjZO713Hyc7nP7zt7jwFJxsKeMRZKWkXdEIu2jYP2/FC060eD1kgIAABwIBkLV0khvbY678q7V3HiZ3v6/Hgu0/3yWb8qn/lCbrdrX5KxsD+MhZJWQdtj0X22HLSP8Zc9AADAwRwXjIWrpjpOrqzi5OfrkE40GvZXNVw8vAnpofnM/zp3vdFQkrGwH4yFknrcjtw0zrbPGs7MHeMvegAAgIPMWLjq2lWH9KE6Tn4gn/3J1WhhnUdBP+WzPa4Ok835zD+6bzTc4/qXZCxcuYyFknrYrtxCmO3+eDRo7+EveAAAgEPEWLhquyGf/ZvrMA1NmD+hGi6u9WjopypO7t2E9Ov5zD+Tu8k9DSUZC1cmY6GkHrUnd0Uo2vfGQfvQnPciAAAAh5KxcNU3beL0hXU5PacOyU/+9PmxXqbz8uP9jfnML136hqlrX5KxcGUxFkrqSdfEovunUHQ/mTvKX+kAAADLYUAwFmrpp0nj5F/qmJ6eu28VJxs9MvqpGi5urMv0w/nM/zZ3hW8ZSjIWrhzGQkkrvBtznw5F96ILzto6M5yZ821CAACA5cJYqG/o2jqmC3NPasrpGdVoYb1HSD/lsz2xjpNfyGf+vq/9JK3rX5KxcLkzFkpaod2c+7+xaF8finY0GrQb/DUOAACwzBgL9U36chPSq+uQHtnE6YkeJf1VxclZ+axfns/8U7mbXfuSjIXLl7FQ0gprd24aZ9u3lkX35HGxxfsKAACA5cpYqG/RzfsGpF9pyum5m8fzR3q09PQ5IKSlHpXP+k9yX3LtSzIWLk/GQkkrqGtj0b079+w4297bX9wAAADLfSgwFurWu7EJ6V3532fWId2vKtNhHjX9Uw0X71Kdd+Xx+Yyfms/67fvuZ+j6l2QsXEaMhZJWQNtyH8+9uBx05w5n5tzWAAAAYCUwFuo2dnmubUL6sXq0cHI1XFzj0dM/VZnWVSGdVcfJc/JZ/0M+822ufUnGwuXBWChpGbcrd0ksutfGov2ectPWY/1lDQAAsIIYC3U7+0Id0quqOHl4boNHUD9tHs8fsbmcjpqQXpzP/NPuZyjJWHjoGQslLcP25q7MbSkH7U/k7ukvaQAAgBXIWKg70M7cR+uQXlzFSZHzQOrv88MJucc2If1RPvPLXPuSjIWHjrFQ0jJreyy6vw9F96ww224azsy5XQEAAMAKHgOMhbrj9zOM6R11TM+uRgsnejT1Uz7b9XU5ncnnXNVfu5/h1a59ScbCg89YKGmZtCfMdp+PRffCULTnjwbtkf5iBgAAWOGMhdoPLeS2NHH6vdVwcaNHVT9VcXJkHSf3b0L6mdxH8plvd+1LMhYePMZCSYe8orsxFN2rw2z38DhoT/IXMgAAQE8YC7Wf2p37TB0nf1SH9CCPrB4/Z5TpuKaclvvuZ/gl174kY+HBYSyUdIh7axhs+eFy0J7uL2IAAIC+ffBvLNT+bdu++xm+oIqTe3uE9VM1XFzbhHRq7pH5rN+Sz3zRtS/JWHhgGQslHYrCbPcvuafH2fasc858m/sSAgAA9JGxUAegPfvua/fefH1trkYLx3uk9VM+28PqMDmjjpMnNyG9P5/5Dte/JGPhgWEslHRQR8KivSYW7a+H2e6ccdEeNRq0/vgFAADoK2OhDmC7cqmO6c+aMP+warh4uEdcP1VxckQT0kzuWfk55cv53Pe6/iUZC/cvY6Gkg3Rfwu25NhTdQ+OgPSG31l+7AAAAPWcs1AFuaTTanvtCHdIrcoVHXY+fT8p0VD2en63L9Pv5zHe6/iUZC/cfY6Gkg/CTox8sB1senzstFN16f90CAACslg/3jYU6eKPhTUvXWh3TT1dxcppHXz9Vw8U1dZmOqcv5c+s4+ZBrX5KxcP8wFko6gF2W+6Uwu+XM0dlbNgxn5vxRCwAAsJoYC3UI7me445b7GY5v+WnSwzwK+6kaLayt4+To3BOakKaufUnGwjvHWCjpAHRdKLrXl8WW7wiz3YZy09Y1/ooFAABYhYyFOlTfNKzj5IZm6X6GcTrblNP1m8fzHpA9U8XJUmvy88zxuZfnrtk3GHsMSDIW3k7GQkn7qb25bbHo3hNn24eXRbd2XGzxhysAAMBqZizUoa4O6cqmnL4gd8+6nK6vRgsemD1UDRfX1qOFQT7vrfncl4bi3a5/ScbC285YKGk/jIQ7cp8pB209nJnb6C9UAAAAbmEs1LIZDWP6TB2mj2tCOqU+78p11XDRA7SHqjIdWYfJD9Rx8r587tf5pqEkY+FtYyyUdCdHwi/Gov2NOGjv5y9SAAAA/hNjoZZdIV1Yj+djFScneYT21+bx/ClNOf3ZfN6f3vdNw72uf0nGwm/NWCjpDnRzLoWi7cpBG/0FCgAAwDdlLNTy/Jbh5IbcK+qQNlVxcrRHaj9Vw8XDmnL6wPw89Mp87p/P3eT6l2Qs/OaMhZJu57cJr45F9+442z5pODN3pL88AQAA+JaMhVrm9zP8ch3TM/J1elY1WtjgEdtP+WyPqsvpo/KZd7mv5Ha6/iUZC/8zY6Gk29iNuU+G2e5XR4P2FH9pAgAA8G0ZC7UCujlfp+9swvSJTZyeUQ0X13nk9lMVJ6fVcdLkM/+73DV+mlSSsfD/MRZK+jbtyv1bmO1eGwft/f1lCQAAwG1mLNQK6qu519YhfW/uVI/eHj8vlWnQhMmL83n/U+5G174kY6GxUNKt9sVYdBeWg/bROf/DOgAAAG7nh/LGQq2s9tRxckn+90V1TOdXcXKsR3E/VcPFw5uQQj7r1+Qu/to3TD0GJBkLJekbujb3rjjbVuff7y9OGs7MrfFXJAAAALebsVArtBvrmN6f/312E9KmarRwuEdzP+WzPbYOkyfms35LLi0Nxq5/ScZCSau87bkPxaJ9UVm0Z498mxAAAIA7w1ioFd5Vua11TD/RhPkZ9zPsrypOzmhCeno+73fkbnLtS8bC1fY8aCyUtO++hBeFon1l7sFx0G70VyIAAAB3mrFQPWh37otNSK9ryun3bR7PH++R3ePnrJDOzT0/93HXvmQsXE2MhdKq7yuh6P5P7gm5k/xVCAAAwP774N1YqP60vQnpE/nfF9chnVeV6QiP8H5aup9hXaZH5LN+ee7Lrn3JWLgaGAulVdtXc+8Is93TxoMtM8OZOb+kAQAAwP5lLFQPW8y9twnpuc34lp8mXeuR3j/VaGFNNZ4/qY6TJ+fz/j+561z7krGwz4yF0qprR5jt/jkU3S/Goju33LTVT44CAABwYBgL1ePm65jemv+tmzg9zqO9n6o4WVfHyZlfu5/h5AP5vHe49iVjYR8ZC6VV0+7cl+Js+/JQtN85Lrac4C8+AAAADihjoXrertwldUhvrOKkzK33qO/tc9nGJqQLcr+Yz/zfXPuSsbBvjIXS6vjJ0VB0bw6D7vvibHsPf+EBAABwsD5gNxZqddzPMF/ndUwvr8bzZ1SjBQ/+HqqGi2vq8fwJdUjfnc/61fnMp659yVjYF8ZCqd8/ORqL9gOx6J4WivY+7ksIAADAQWUs1Cpr6b52H29CemY1XDzKM0A/VWVaX4fJ3fI5Pzb3tnzmN7r2JWPhSmcslHrZnlC0l+R+ORZtEQft0f6SAwAA4KAzFmqVtlDHybuWvoHmWaC/No/nD2/G8/dtQvpf+bnun/O53+zal4yFK5WxUOrfUBhn298fn73l/HLQui8hAAAAh46xUKv8foZfqkP64ypONnk26KelnyZtQjo6n/MDcr+ez/wrrn3JWLgSGQul/hRmuw+URfeIONueNJyZW+svNgAAAA4pY6FWeXv33c/w8/mx8KvVaOFkzwr9lM92bR3SMXWcfGfuzfnMF13/krFwJTEWSr0YCb8Yi/ap+d+7jQbten+hAQAAsCwYC6X/GA1vyn2iCfNPqIaLGz079FMVJ+vqODmqKdMP5ee/z+Qz3+36l4yFK4GxUFrBFd2NoWhfEorujFi0G+Kg9UcZAAAAy4exUPpvo+FX65D+IjeqY1pTxYknij4+95Vpbf2gq07Kz4E/nc/8qn1n7zEgGQuXLWOhtDLvSxiK7u2js7c+6Pz7/cXhpZEQAACAZfmBubFQ+lbN1zH9Th0nRVNO11fDRU8YPVWNFu5eh8kfLg3FvmkoGQuXK2OhtGLam9sRi/aToWgfOxq0R/hrCwAAgGXNWCh92y5qymlTjxdObeL0MM8a/VXFyflNSO/OZ369bxpKxsLlxlgorYiRcHso2i/mnhMH7Sn+ugIAAGBFMBZKt6kduXc1cfroppyesHk8v86zR0+fE0Nam3tGfm78t32joetfMhYuC8ZCaVm3MxbdJPeHoeg2+YsKAACAlfXBuLFQuj0tNmH62ty4Dum4qkxrPYv0TzVcXFOfd8VpdZlenM/8i7mbXPuSsfBQMxZKy7JduStzf1sOuscMZ+Y2+EsKAACAFcdYKN2hvljH9MtNSA+oL7j8CPcz7KdqtLC+LqfDOk7eks/80tzNrn3JWHioGAulZdWe3GLuA7Fon1lu2uonRwEAAFi5jIXSneq9dZj+aBUn98n5lmFP5bM9qg7psU1I78hnfnluj2tfMhYebMZCadncl3Bb7lOhaF8yLrac7S8lAAAAVjxjoXTnquPkptyf1yF9XxUn/lfl/X6+PD33vHzuH7jlJ2ld/5Kx8CAyFkrL4idHPx+L7g1xtn2Yv4wAAADo04ffxkJpf4yGIV1dx/TS3EOr0cKRnl36qRoufu2nSUP67Xzun8ptc/1LxsKDwVgoHdJvE05zfxmK9imjQXu8v4gAAADoFWOhtL+/aZguasL02U2c3r8aLh7mWaafqjIdU8fJo/KZvy73BfczlIyFB5qxUDok3ZD7h1i0Px0H7Zn+AgIAAKCXjIXSAWln7q11SE/NzXim6a/N4/nTmnJa5fN+m/sZSsbCA8lYKB30PhGK9jfKQfsgf/EAAADQa8ZC6YC1N3dF7vV1SI9zP8P+WvoGaRPS/fPz6c/n8/6H3A2uf8lYuL8ZC6WD1mW5pfsSfu+5Z771KH/pAAAA0HvGQumAt/TzlBfnfrsJKbqfYX8tnW0dUlnH9LJ9Z77L9S8ZC/cXY6F0wLsm9xdhtqvGRXvaaNCu8dcNAAAAq4KxUDpoXZ97Xx3TLzRh/gHuZ9hfS98ibUL6/twf5TO/et+3TD0GJGPhnWIslA5YO2PRvTfMdj8di7aIg9bfaAAAAKwuxkLpoLbnlvvahfSXdUhPy53uWajHz69lulc+66X7GV7oW4aSsfDOMhZK+78w2/1bKLqXlIOuLAetX38AAABglX6YbSyUDtVPk16a+9M6pkdVZTras1E/3XI/wziZbcL0WXWYfNK1LxkL7yhjobRfuyL3ulB03zs6e8spw5m5tf5qAQAAYNUyFkqHtG25zzQhvbwZz39HNVxc51mpn6rRwsY6TMZ1TC/O5321a18yFt5exkJpv7QtFu1f534kFO29RoN2vb9SAAAAWPWMhdKy6Kt1TB/O//5iE6d388zUT1WcrNl3P8NH5rP+8/z8e5NrXzIW3lbGQulOtSv32TjbPicU7dlx0B7hLxMAAADYx1goLav7GV5Zh/T3TTl98ubxvJ8m7evzbkjrcjNL55z/fZ9rXzIW3hbGQukOtxCK7rfLwZZz42x7vL9EAAAA4L8wFkrLrl25aR3TlrqcPqAaLfhp0h6qhot3qS9YOCKf8Vl1SD+Tz/wS175kLLw1xkLpdndDLNq/CLNbHl4W7cnuSwgAAADfgrFQWrbtyE2akF5SP+iqk5fGJfqnGi2sqUM6qgnT83KvXfpJWte+ZCz8ZoyF0m3/ydFQtJ8oiy0/HIv2lHLT1sP8xQEAAAC3wlgoLfu21XHyhSpOnuoZq782j+fXNeX0mPyc/Kjc3+8bi13/krHwPxgLpW/b3lh083G2/dULztp6r3GxZYO/MAAAAOA2MBZKK6K9uZuW7mdYxcn5nrl6/Zy8rr7g8hPqclrnM7/YtS8ZC7/OWCjdantC0b5hPGjPjrPthuHM3Bp/VQAAAMBtZCyUVtxoeGN+3L6uGs/PNHG6zs+T9s8t9zMsp2uqMp1ex8mv3/JztDHtcf1LxkKDkPTff3I0Fu374qD9rlC0a0eD1h8SAAAAcHsZC6UV2+VNnP5sfcHld6tDci+ePj9Pl2nUhLQ1n/lVud2ufclYKKnbEYtuUg7ap+f8HQQAAAB3hrFQWtHtruPkk3VIT6hjOqGKk/We1fqpGi4e2YT0xPyc/b587ou+aSgZC6VVOxLOdlfE2fZlF5y19XQ/NwoAAAD7gbFQ6kXX1jG9KfewJqTjq9HCOs9u/ZTP9uQ6pGfnM/9sbtu+n6b1GJCxcBUwFmqVd3Pu8jDbbSmL7oKRbxMCAADA/mMslHrVZU1Iv16H6TlNnB7tGa6/qjjZlM/6j/KZfyG3y7UvY2H/GQu1StuTuybMdu8JRfekOGiP9VcAAAAA7GfGQql33Zz7WO7pTTk9c/N4/nDPdD1+Di/Tw/Pz+DvyeX/FtS9jYb8ZC7UKuy4W3SdC0T0/d0+v+gAAAHCAGAul3nZDE9JbmzB9fB3SPaoyuZ9hT1UPvPbo/Fxe5zP/UO5q176Mhf1kLNQqanvuc2G2e9V4sOVBw5k5PzkKAAAAB5KxUOp9qY7p95uQHtmMFk6ohotrPPP1TzVaWFONp/eqw+RF+cw/ntvu2pexsF+MhVoF7cpdlvuzULQ/MBq0R3qFBwAAgIPAWCitmi6qQ/qVKk7Oy/lp0p7KZ7uhjpPQhPTH+cw/536GMhb2h7FQPW7v0n0Jc+8KRfu0OGjv6hUdAAAADiJjobSq2lHH9O46pJ+s4uQ+ubWeBXv63B7Scbkn59p87l927ctYuPIZC9XTbopF95HcC+Js+0Cv4AAAAHAIGAulVdl1uTfVMf1YNZ4/0TNhP1XDxbX1aP6eS+NwPu+/yy269mUsXLmMherhT45+LvfKULTfPZyZ2+CVGwAAAA4RY6G0qvvK0gfuTUgPr4aLfpq0p6rRwoY6pGE+6xfms166n+EO176MhSuPsVA9+snRK8Js9yexaJ9Qbtp6kldqAAAAOMSMhZJyH6tDelHuAZ4V+2vzeP74ppw+Ip/3q3OX5Ha79mUsXDmMhVrxFd32/O87ykH3k+Niy4xXZgAAAFgmjIWS9nVD7m/qkJ5ZxckZnh17/bx/ehPSE3NvyWd+tWtfxsKVwVioFd4nQtH9Upxtz/WTowAAALDMGAslfUN7cinX5eeGJ1WjhWM9S/ZTNVxcV5fTs+uQnl7H9J585ttc/zIWLm/GQq3QLo3FLfclfNho0Pq7AgAAAJYjY6Gkb9LO3MV1TK9swnx0P8P+qsp0ZB0nD2xCekHuc/ncd7n+ZSxcnoyFWmFtD0W3JRbtD8RBe/fcWq+6AAAAsEwZCyV9i/bmrsv9Ux3SC3Jne8bs8WtBmU5uxtOH5fN+TX5duHLf+XscyFi4jBgLtYJ6Xyi6p5WD7uxy0B7mVRYAAACWOWOhpG/T7txVuXfVMW2u4uQ0z5z9tPTTpPk14R51SI/Jvc23DGUsXF6MhVoB/d8w2/1KmG2H47O3HDWcmVvj1RUAAABWAGOhpNvx06Tzua1NOX1INVz0TYGeqkYLG+qQ7rk0Djch/V/XvoyFy4OxUMu462PRvj4W3YPLojt+5CdHAQAAYGUxFkq6nW2vY/rCLfczjNOzPIv2VxUnRzYh3S/36/m14kbXvoyFh5axUMuwnbHo/iEU3Q+Foj0lDtr1Xj0BAABgBTIWSrqD9zPcVod0UVNOf2bzeP4kz6Y9fY0oU256bDOevyC/XrzRtS9j4aFjLNQy63Nl0f3k+Oytp4ei2+AVEwAAAFYwY6GkO9GeW0bDmD5Yh/R9VZmO8KzaP9Vw8S71+VeszWd8fO6xdZx81rUvY+HBZyzUMunqWLQvL4v23uPBlsPdlxAAAAB6wFgoaT+NhjubkP60vuDy+1TnXbmuihNPsD1TjRbuUpfTtflsT61D+rl83lfs+5apx4CMhQeBsVCHuO2haN85LrbEWLSHjQatkRAAAAD6wlgoaX9Wx8n1VZz8eh3SifnfdZ5le/z6EdJ98mvIH+auyWe/2/UvY+GBZSzUIWjv0kgYi+5Tcbb9Ma98AAAA0FPGQkkHZDQMKdVx8oT8HHN8NVowGvZUNVw8rB5PH9KE9Nf53K83GspYeOAYC3WQ25H7cija5w9n5o72igcAAAA9ZiyUdADbm59j/qoup2UTp8dVw8W1nnX7qSrTSXWcPCOf+cdyN+z7aVqPARkL9yNjoQ5Su3KXx6J9Q7lp6/28wgEAAMAqYCyUdBC6sYnT36jH88M6pGM88/bX5vH8fZuQXpbP/OLcTe5pKGPh/mMs1AFuT+7KULT/UA7aH/CKBgAAAKuIsVDSQWpPHSeX1CH9TO5+VZwc6Rm4168tD8m9MZ/7pbmbXf8yFt55xkIdwK6NRffRONv+1IPuc+EJw5k5L2QAAACwmhgLJR3kttchva+O6UebkO5ZjRYO80zcT9Vw8Yh81k/OZ/7O3OXuZyhj4Z1jLNQB6Kbcv4Wifel40N5vNGj9XDgAAACsRsZCSYeoK5uQ/rgO6dFNmD+tGi6u84zcT1WcnFnHyc/nM//H3HV+mlTGwjvGWKj92O7cF8Ns98ZYtN8dB+0RXq0AAABgFTMWSjqE7cp9rgnTl9blNGwez7ufYZ9fb8p0XhPS7+57zdnp+pex8PYxFmo/lWLR/XUYdD9eDtoTvDoBAAAAxkJJy6GbmpA+kPupOqRNVZkO9+zcT9VwcePXXncmb8jn/hXXvoyFt52xUHeyxdz7cz9XDrozhzNzvtEPAAAAfI2xUNIy6urchU1I/6MZz59eDRfdO6mnqtHCSXWYPCOf91/lrnHty1j47RkLdQfbmfvX3MvK2e780aD1P8gBAAAA/jNjoaRl2GV1SH+Q/31sE6fHe6bupypO1tZxUjQh/UI+6/f7aVIZC2+dsVC3sz25y0LRvSEU7ffHQev1FAAAAPjmjIWSlmk35z5Th/QbVZycm9vgGbunr0Nl2pCLTUi/lc/8U659GQu/OWOhbkfXhKK7MFfl7uWVBgAAALhVxkJJy7xtuXfXMT2vKufPqEYLfpq0h6rh4pp6tHBiPuvH5P4kd7lrX8bC/8xYqNvQ9tyHwmz3U+NBd//hzNx6rzAAAADAt2UslLRCujI314T04/W5Vx9TDRc9gfdQNVpYV4c0U8dJs+9+hje69mUs/BpjoW6l3aHoLgmz3Uti0YbRoN3oFQUAAAC4zYyFklZYX6jj5M1VnDzCM3h/5fM9og7pAU1Iz8ln/vF9P0vr+pex0Cim/1rRXRtn2z8NRfs942LLqV5BAAAAgNvNWChphd7P8F/rkF5axcnZnsl7/BoV0nG5kHtpPvNLXfsyFhrH9B/tDUX7zjDY8rg4257pFQMAAAC4w4yFklZoe3OLuQ/m57GfrkYLJ3pG76dquLi2Hk9PrUP6vjpO2n3n7jEgY6FW8bcJ24ti0T0vFG3hvoQAAADAnWYslLTC25NbyP1dE6ffXw0X3aepp6oybajj5F5NmP54E9KH85nvdP0bC1cTY6FC0V6V+71YtOfEQXucVwYAAABgvzAWSurRT5N+sQ7pj3Lnenbvr83j+SObkO6dX79+OXfpvsHYY8BY2HvGwlV9X8Kb8r9by0H3PblTy0G7xqsBAAAAsN8YCyX17KdJt+U+Xcf0K1WczHiW7/Xr1zH1eL6oQ3ptPvMbXf/Gwr4zFq7SbxPOdp8KRfdjoWjvccFZWw8bzsx5AQAAAAD2L2OhpJ7+NOnSePThJqSnVKOFYz3b91M1XFxTh3RMnV/Lcn+fz3y3699Y2FfGwlU3EqZYdC/I3bcsusNHvk0IAAAAHCjGQkk9Hw0X65je2sTp+Z7x+6uKk3V1nBzZlOmpTUhfdu0bC/vIWLhq2h6K7o1l0X5H/ndDNBICAAAAB5qxUNIq+XnSq5ty+juby/kz65DWVWXyAtDH17QyrakfdNUp+bXtpbmr3c/QWNgnxsJetze3K/f3oegefu6Zbz2iHLSe1AEAAICDw1goaTVVx/T5OqRn5u7ejBbWV8NFLwQ9VI0W1lbj6QPqMHl7Pvcb/DypsbAPjIW9HQl35D4Xi/anR4P2OM/gAAAAwEFnLJS0Kgvpg3U5fVRVTk+s4mStV4N+yme7sY6TH8rn/eF87tfv+5ap699YuCIZC3vXztyXQ9G+Kg7ae3vGBgAAAA4ZY6Gk1fstw8m23B/XIZ1TxckxOfeF6utrXZlObkJ6Tn7N+9y+0dBjwFi44hgLe9PSz43Ox6J7ayi6h3iGBgAAAA45Y6GkVT8ahnRFHdNzcrPVeOFwrwz9VA0X1zfldDaf+Styl+V2uP6NhSuJsbAXPzl6be6DZdE9ZTgzt9EzMwAAALAsGAsl6T/uZ/iZOkyf3MTpGdVwcZ1XiH6qRgsb65C+N5/32/K5J/czNBauFMbCFd223Cdj0b6w3LT1DM/EAAAAwLJiLJSk/9SeJk7/pC6n31uHdFevEv1VxckpTUhPz2f+D7mrv3b2HgPGwuXLWLhif3L086Fo/2hcbDnXMy8AAACwLBkLJem/tbeOkyvzv79RhxSqODneq0WPXwdDKnIvyuf9T7kbXP/GwuXKWLjimsSi2xpn2yd4pgUAAACWNWOhJH3LdtUh/Wsd0y/k58pzqtHCEV41+qkaLm6ox9MHNyG9Jp/7v+d2uv6NhcuNsXDFdHXufaFof+pB97nwuOHMnCdZAAAAYHkzFkrSt+3G3DvqkOomzN+3Gi6u9+rRT1WZTqrj5Mn5vP88N++nSY2Fy4mxcNl3U+5jsWh/LQ7aYc5rBQAAALAyGAsl6bbeyzBNckv3M3x8HdJpXkH6a/N4/t5NSM/M5/2u3PVLP03rMWAsPNSMhcv6voT/Foru1eWg/Z7cRs+iAAAAwIpiLJSk29XSz1P+W+6365geWsXJcV5Jev0aeX7uhfm8P+5bhsbCQ81YuCxbiEX3lli0TxqfveWuw5m5tZ45AQAAgBXHWChJd6ilb5t9OPerTTmdrYaL67yi9FM1WjimDukR+az/IPcl176x8FAxFi6rrs+9O/dTZdGdNRq0h3m2BAAAAFYsY6Ek3amuzL29julpTZzezatKf1Vxcvc6Tp7QhLQln/mia99YeLAZC5fJT44W3b+E2e5XQtGdFwftUZ4dAQAAgBXPWChJd7rdS984q0N6c1NOv3/zeP4Yry49fc0s09pckc/5J/OZv9e1byw8mIyFh7wUiu73w6B7RDloT/CMCAAAAPSGsVCS9ls7cp+tY3pVXU7vX40W1nuV6Z9quHiX+oLLj8xnfX4T0q/lf//dtW8sPBiMhYfwJ0eLdi4U3ePHgy1nDGfm/Ow0AAAA0C/GQkna712X+2gT0nPr86+4azVcXOPVpn+q0cLaupyeWIfJ0v0MX5u7wrVvLDyQjIUHvZtD0f5zLLqnxqI9ezRoN3jmAwAAAHrJWChJB6zL6zh5bxUnP57zLcOeWjrbOqR7NCE9Lp/5X+V2uvaNhQeCsfCgtScW3VdC0f1aKNoHuC8hAAAA0HvGQkk64PczTHVIf1PFyTledXr8elqmw5tyet+6TP+rCenTrn1j4f5mLDwo7QhF++by7C0XhKI70TMbAAAAsCoYCyXpoHRz7pL8nPub1WjhNK8+/bT0k7P1eHp0XU4fUMf0W0vfLnXtGwv3F2PhAW1vLNoPhdktjwlFe9fhzNxaz2gAAADAqmEslKSD2o25i5s4rarhop+266lb7mcY0rF1nIQmpAvzmW9z7RsL7yxj4YEpFO18WWx5RizaU8tNWw/zDAYAAACsOsZCSTro7c1dV8fJB+uQHuaVqL+qOFnXhHR07ofz6+0n8rnvcv0bC+8oY+F+ruhuiLPtH4Sivfu42LLBMxYAAACwahkLJemQtSd3RR3Ta6o42dSEtKYaLXhh6uNrbUjr6vOuPKEO6flLZ75vMPYYMBbeLsbC/feTo6Fo/6Ys2jJ3RJxtPUkBAAAAq5uxUJKWRZc1IT2vGs/fownz66vhoheonqrKdJ86Tt6Qz/yafYOx699YeJsYC+/kPQlnu52xaD8WB+1Tckd7NgIAAADYx1goScumm+uYPtKE6Y/WF1x+yubx/DqvUv2Vz/c7m5Deu/STtEZDY+FtYSy8w+0IRfuFctC+IHc3zz4AAAAA/4WxUJKWXdc3If1ZU04fXId0bFWmtV6tev06/IzcZ/O53+DaNxbeGmPh7e7m3JW5PykH3TnDmbnDPOMAAAAAfBPGQklatn2ljukldUgPbMbzR1XDxTVetfqpGi2ckc/5t275OdqYbnLtGwu/GWPhbW537qrcO8rZ7gdHg/YozzIAAAAAt8JYKEnLvn+tw/TpubObOD3cK1c/VXGyPvfgOk7euDQUL/0srWvfWPiNjIW36b6EX819KMx2Px395CgAAADAbWMslKQV0fbcO+uQHl/Fyd1y7mfY19flMh2Ve0oT0t/lM19w7RsLv85YeKttz302FN3vlIO28EwCAAAAcDsYCyVpRXVtHdPv5R5elfPHVaMFP03aQ9VwcW09nr9nPu/n5j6W+6pr31hoLPym7cpdFma7N42L7nuGM3O+fQ0AAABwexkLJWlF9sUmpF/KnV+dc40Px3uqGi1sqMt0bh0mL89n/mn3MzQWGgf/00+OLt2XcC4W7ebRoD3OMwYAAADAHWQslKQV3fvrkJ6Ru49XtP6q4uTYfMbf14T0hnzml+R2u/aNhau4bbn3h6L9pTho7+UZAgAAAOBOMhZK0squjpNt+d8/rUN6QhUnp3ll6/Frdpnu1oTU5P4yn/lVxsLVxVh4SxeFovvN3MgzAgAAAMB+YiyUpF60N3dp7pX5ef2R1WjhaK9w/VQNF9fX4+n9m5Cel8/7Q7ltxsLVYZWPhSn3p6Fof2g4M3eEZwIAAACA/chYKEm96ubcJ3IvasL0nGq4uMErXT9Vo4WNdZw8pI7pZfm8P5fbZSzst1U6Fl4fZru3Ld2XsNy05R7lpq0e/AAAAAD7m7FQknrZ9bm/rUN6Vu5Mr3b9VcXJSU1IP5DP+/W5y/d9y9RY2EOrbCzcmftIKLpfGhdbHpBb59EOAAAAcIAYCyWpt+3OfSX3Z3VMT6zi5FSvej1+PQ/p3rkfy/1dPvMdxsL+WUVj4edC0f1GnG2/a3TW1mOHM3NrPMIBAAAADiBjoST1vu25i3N/0JTTshouHubVr59uuZ9hSMPcs+s4+VQ+8z3Gwv5YBWPhfCy6P41F+9iyaO86GrRrPaoBAAAADgJjoSStqp8m/Ugd0wuaOD3LK2B/VWU6po6TUROmL25CuspY2A89HgtvjkX3nlC0Px6L9sw4aN1rFQAAAOBgMhZK0qpq6ZtmS+PRe5pyunnzeP5kr4T9lc/3lCak78qv9Vtz24yFK1tPx8LPhKJ7bjnohuWgPdKjFgAAAOAQMBZK0qpsVy7VMf1FHdIjqzL5kL6/r/NrcvfO5/zjuQ8aC1euno2FC2G2e2VuHIru+OHMnJ8cBQAAADhUjIWStOrvZ/jlJqRX1KOF+1bDRR/Y91A1WlhTjec31iHN1nHyy7nPGwtXnp6MhTeE2W4uFt2j87+njAbtOo9QAAAAgEPMWChJyt1Qx8nFVZz8fO4Yr479lM927dL5NiGdm3t9/htgu7Fw5VjhY+HuWHQXhaJ7apjtTo2D9jCPSAAAAIBlwlgoSdrX3ltGw5D+pYqTR+Z846evr/1lWtuM5k9syunS3wDvMhauDCt4LLy6LLoXjs7aeq9QdEd4BAIAAAAsM8ZCSdJ/aU9uWx3TO6vRwj29UvZTNVy8S1NO19Xl9NQ6pKfnM/93Y+HytgLHwp2xaN82LtqzyqLbMJyZW+ORBwAAALAMGQslSbfyTcMdTZz+UvWgq06uQ3I/wx6qRgt3qcu0poqTmSak38hnPr9vMDYWLjMraCzcFYr203HQlrFo144GrQcaAAAAwHJmLJQkfbvRsI6Ty+qQfix3jJ8n7fnfBSGV+W+Dt+dzX8ztNhYuHytgLNwZi+4rcbb9RY8kAAAAgBXEWChJuo3tqEP6+zpOHtGEdGw1WvBNw56qhosb6/H0SfnMP7x0H8tl+k1DY+FyGglnuytD0f7hefe98K7DmTkPIgAAAICVxFgoSbqdXdWE9PI6TM9pwvwx1XDRfch6qhotnPj/s3f/wZbfdX3H3d1kScICSQgEMGGSILJ3ETlpDJx7Pp9KB2hVwCmgMFIFv5/PwkA7lKKOYrWFEWvjdFRaLT8qis6I3hs6kAFqWkGotXSgkCAVhJYhYZjv59wDIclNyA+yye5OP0t3nKIY8+Pu7r3n/XjMPGf/zpyb+X7m85pzviWP/7J/5p8+9h7L4z9Nayw8RbbhWHi495W8snZVOnBlmj35Xaf7vwYAAABgBzIWSpIeQPeU3D5T0/yny+rGSkntLE/U5TXk8Uk1tbf3z/363t3GwlNjG42FR3o3pZW1j8xW1n9sdeXKh/m/BAAAAGAHMxZKkh5Ed5bUPlxye2nvwmHWfLNouc8MP9R7b//c58bCk2+bjIW35pX1a/PK2htW91/5HZOLrvIOUwAAAICdzlgoSdqCbii5vaOm9gN1Nn/UMNn0PsMl1T/bs0pqr+6f+Ud6NxsLT55TPBbe2fs/eWXtLbOVtdXp/rWH+L8BAAAAYEkYCyVJW9gXamq/WNI81Tx/uKfs8hpm7ZKSx3/dP/NPHPuGqbHwxDtFY+GxnxxteWX9D/LK2gvz/rVz/fUDAAAALBljoSRpizvU+1jvJ0pq+4c87vW0XU4HVzf29P5uTe23+uf9v4+9y9JYeOKcgrHwpt4H0/711872rz3eXzwAAADAkjIWSpJOUF8ruV3Ze1mZzR83TBd+mnQJDZPNXeXpX35kP0/8aP/Mr+yNxsIT4ySOhXf0PtF7Y1pZn0wuusq7SAEAAACWmbFQknSCm/feWlN7XnnaVx5+bFzy9F0+w3Sxp8zml5TUXtM/7w/2bjIWbq2TMBYe7n2x9xvpwPo/mO5fe6i/bAAAAIAAjIWSpJPUp0pqVwx5zD3fMlxS/bM9s+Tx8v55v7537Qn8aVJj4dZ19PhPjl6ZVtZemvevne8vGQAAACAQY6Ek6SR2V8ntv5XUfmLI48Wewkt8vpi1s2tqz+2f+Zt7XzAWPngnaCy8Ox1Y/0Dav/7qtLK+4i8XAAAAICBjoSTpFPTV3n/sz6CXDdPF2Z7Gy2mYbO6ps/kF/bN+SU3tXf3fG42FD9yWj4Ura59LB9Z/dray/rTJRVft9RcLAAAAEJSxUJJ0ijpy/Btn76h5/qxhsnmGp/JyGqaLvSW1lZLbP+mf93/t3WEsvP+2aixMK2s3pQPrb8kra95LCAAAAICxUJJ0yjvUu6bk8ddKat/tyby8hjzuq6ld1vuFfv44NhQfNhbedw96LFxZ/3r/9z+llbUfWl258sKeP0oAAAAAjIWSpG3R0d6tvQ+V3F495PFCT+glPnuk9ug6mz+rpPa2/pnfbCy8bx7kWPjxtH/95Xll7cn5wNoef4UAAAAA/CVjoSRpG3VPb957b03thcN08XBP6uV07H2GZdYuKGn+vJLHDx7/hqmx8F48wLHw+t4b0oH1y5/+ne86a3LRVbv89QEAAADwTYyFkqRt2F3H3mdYcnt7zfPLPa2X1zBdnF7yeEnvx2v6xjssjxoLv7X7ORbeklbW3tl7Zjqwfu7sye/a7a8NAAAAgG/JWChJ2sY/TXp779N1Nv8XB1c3/DTpEhvyeGZN7ZJ+Lvm3vduMhX/dfRwL7+p9KK2s/8jqk9a/fbZ/7XR/XQAAAADcK2OhJGmbd6T3td7/KKn92DBrj/D0XupzySPK6sal/bN+v7Hwm92HsfCzaWXtn/Uunu1ff4ifHAUAAADgPjEWSpJ2SId7t9VjI9LqxtOHyeZpnuLLp3+u3zZ8z1d3l9TO6b2g5PHPjIX/z72MhTenA+v/Ia+sPXW2svaQ6f41IyEAAAAA952xUJK0075pWPJ485DHX+09trer54G+ZIZZ+7Yhtd11Nj/v4Gz+UzW1xV95n6Gx8MD6obyy/qHZ/rVnpAPrp2cjIQAAAAAPhLFQkrRTK6ktSm6v6J07zDZ2D9OFB/sSGiabe8rqxpP7meU3ezcd/5Zp1LHw6DdGwgPrf55W1n5kctFVZ/kLAQAAAOBBMRZKknb8aJjbtWU2f1ZN7RHDpTfv9nRfTsN0cWb/nP9+/7z/sH/uvxztvz8fWH9C74vpwPobp/vXHuUvAgAAAIAtYSyUJC1Nqf1eWd347pLaPk/45TXk8VG9i6L9d+f9a2f0nuIvAAAAAIAtZSyUJC3XtwzHm0tqP927ZMijn2gEAAAAALg3xkJJ0hJ2uKR2bcnjj/fn3EXDdHG6Jz4AAAAAwLdgLJQkLXF39ufce0pqP1DT/LHDZHOPJz8AAAAAwP/HWChJWvKOlNy+VPP8V8ts/oyS2rme/gAAAAAAxxkLJUlBOlRS+7OS2+t6kyGP+5wCAAAAAIDwjIWSpGDdWnL7L/3fV9XZ/BI/TQoAAAAAhGYslCQFbaOm9tsltRfUPD/fiQAAAAAACMlYKEkK3D29z/V+pc7mzzi4uvEwJwMAAAAAIBRjoSRJ7c6a2kf6vz9f0nz/MF2c5oQAAAAAAIRgLJQk6S+7sffemtrBMl2cP0w2dzkpAAAAAABLzVgoSdJf67qS2+8NeXx+7wynBQAAAABgaRkLJUn6lt3d+3RJ7a1DHi/t+ZYhAAAAALB8jIWSJP0t7zPM7aP9eflzw3TxKCcHAAAAAGCpGAslSbpP3dD7cM3zFw2TzbOcIAAAAACApWAslCTpPne0d33J47tLatkpAgAAAADY8YyFkiTd7+7qfa6k9qYhj9/pNAEAAAAA7FjGQkmSHvC3DG/vXVNTe+UwXZzrVAEAAAAA7DjGQkmSHlSHezeVPF5d08Zzh8nmGU4XAAAAAMCOYSyUJGnLRsMbSmpvO7i6sd8JAwAAAADYEYyFkiRt+c+TfrHk9rph1h5XZ/Pdw2TTgQMAAAAA2J6MhZIknbCurbP5i8p0cU7N8z1OHQAAAADAtmMslCTpxFXyeGf/9701z7+3pLZvyONupw8AAAAAYNswFkqSdBJGw9RuLLm9sfddZTY/a5gudjmFAAAAAACnnLFQkqST+U3D9rmS5i+vqT2hXH7DXu8zBAAAAABOKWOhJEmnoNSuLrP580tqj+s5kAAAAAAAp4axUJKkU/Y+wztKbr9eUktDHs9xKgEAAAAATjpjoSRJp/x9hl8ouf3z/kz+nmG6ONPpBAAAAAA4aYyFkiRti+7p/WlN81fVPH/SMNk8zSkFAAAAADjhjIWSJG2rbuu9s8zmLy6pXeCkAgAAAACcUMZCSZK2XYd71/X+Xcnt2UMez3ViAQAAAABOCGOhJEnbtjt7H+/9Qk3tcu8zBAAAAAC2nLFQkqRt32bvP5fcXlPz/AlOLwAAAADAljEWSpK0Y36adOz9QZ3NX3RwdeM8pxgAAAAA4EEzFkqStKM61Pts780ltb83zNpZTjMAAAAAwANmLJQkaUd2W++amtrr6+rGE4bJ5h6nGgAAAADgfjMWSpK0o/tKye2Phzy+sne2kw0AAAAAcL8YCyVJWo73GZbU3jfk8dm9vU44AAAAAMB9YiyUJGlpurt3Xcntd4djP006Xexy0gEAAAAA7pWxUJKkpevOY6NhzfPXDJPNhzntAAAAAAB/I2OhJElL2y0lj58sqT3PiQcAAAAA+JaMhZIkLXVHejeX1N495PFSJx8AAAAA4JsYCyVJCjMa3tCf+78yTBePqWlj1zDZdBACAAAAgOiMhZIkhepwyeNnapq/Yrj8hkeW1PY4DQEAAABAYMZCSZJCdmdJ7QO955Tc9g2zttupCAAAAAACMhZKkhS6G0puv15S+zt1Nn/oMNnc5XQEAAAAAIEYCyVJUu/zNbWfLLONJ9Y8P9MJCQAAAACCMBZKkqTjHer9ae9H62x+4cHVjb1OSgAAAACw5IyFkiTpr3RrTe2dNc2fU9L8vGG68D5DAAAAAFhWxkJJkvQ39KWS2xtraqvl6V/e532GAAAAALCEjIWSJOlv6aMltdcMeXxq7zSnJwAAAABYIsZCSZJ0H/p6ye19JbV/NOTxgp5DFAAAAAAsA2OhJEm6Hy16b+3nh+cO08XDnKQAAAAAYIczFkqSpAfQZ3q/VPP86cNkc68TFQAAAADsUMZCSZL0ALun94GS2ut6+52qAAAAAGAHMhZKkqQH0dHezb0rS/7G+wwf53QFAAAAADuIsVCSJG1Bd/c+3/utmtr3DdPFPqcsAAAAANgBjIWSJGkLu6P3iZLbFTVtXO59hgAAAACwzRkLJUnSFnekd1PvT8ps/tqDqxsXOHEBAAAAwDZlLJQkSSeoe3rz3ntKbj88zNojnLwAAAAAYJsxFkqSpBPcXb0v1tR+p65uPG2YbJ7mBAYAAAAA24SxUJIknaz3GZbc/qLk8Q1DHr/dKQwAAAAAtgFjoSRJOokd7d1aUrum95Ihj/ucxgAAAADgFDIWSpKkU9CR3i0ltz8qs/nlw3Thp0kBAAAA4FQwFkqSpFPY4d7tNbV/Xy6/4bHDZHOX0xkAAAAAnETGQkmStB1+nrTk8eaS2it7e4c87nZKAwAAAICTwFgoSZK2U8feZzjk8fv7GeWhw3RhNAQAAACAE8lYKEmStmGH+hllrczmk5rn+/w8KQAAAACcIMZCSZK0TTtS8vilmuevL9PF/pLaWU5uAAAAALDFjIWSJGm7f8uwpPaJ3stLbhcOeTzDCQ4AAAAAtoixUJIk7ZBuKbm9u+Tx+f38cq5THAAAAABsAWOhJEnaYf1FP7/8sFMcAAAAAGwBY6EkSdphLUoeX+MUBwAAAABbwFgoSZKMhQAAAAAQlLFQkiQZCwEAAAAgKGOhJEkyFgIAAABAUMZCSZJkLAQAAACAoIyFkiTJWAgAAAAAQRkLJUmSsRAAAAAAgjIWSpIkYyEAAAAABGUslCRJxkIAAAAACMpYKEmSjIUAAAAAEJSxUJIkGQsBAAAAIChjoSRJMhYCAAAAQFDGQkmSZCwEAAAAgKCMhZIkyVgIAAAAAEEZCyVJkrEQAAAAAIIyFkqSJGMhAAAAAARlLJQkScZCAAAAAAjKWChJkoyFAAAAABCUsVCSJBkLAQAAACAoY6EkSTIWAgAAAEBQxkJJkmQsBAAAAICgjIWSJMlYCAAAAABBGQslSZKxEAAAAACCMhZKkiRjIQAAAAAEZSyUJEnGQgAAAAAIylgoSZKMhQAAAAAQlLFQkiQZCwEAAAAgKGOhJEkyFgIAAABAUMZCSZJkLAQAAACAoIyFkiTJWAgAAAAAQRkLJUmSsRAAAAAAgjIWSpIkYyEAAAAABGUslCRJxkIAAAAACMpYKEmSjIUAAAAAEJSxUJIkGQsBAAAAIChjoSRJMhYCAAAAQFDGQkmSZCwEAAAAgKCMhZIkyVgIAAAAAEEZCyVJkrEQAAAAAIIyFkqSJGMhAAAAAARlLJQkScZCAAAAAAjKWChJkoyFAAAAABCUsVCSJBkLAQAAACAoY6EkSTIWAgAAAEBQxkJJkmQsBAAAAICgjIWSJMlYCAAAAABBGQslSZKxEAAAAACCMhZKkiRjIQAAAAAEZSyUJEnGQgAAAAAIylgoSZKMhQAAAAAQlLFQkiQZCwEAAAAgKGOhJEkyFgIAAABAUMZCSZJkLAQAAACAoIyFkiTJWAgAAAAAQRkLJUmSsRAAAAAAgjIWSpIkYyEAAAAABGUslCRJxkIAAAAACMpYKEmSjIUAAAAAEJSxUJIkGQsBAAAAIChjoSRJMhYCAAAAQFDGQkmSZCwEAAAAgKCMhZIkyVgIAAAAAEEZCyVJkrEQAAAAAIIyFkqSJGMhAAAAAARlLJQkScZCAAAAAAjKWChJkoyFAAAAABCUsVCSJBkLAQAAACAoY6EkSTIWAgAAAEBQxkJJkmQsBAAAAICgjIWSJMlYCAAAAABBGQslSZKxEAAAAACCMhZKkiRjIQAAAAAEZSyUJEnGQgAAAAAIylgoSZKMhQAAAAAQlLFQkiQZCwEAAAAgKGOhJEkyFgIAAABAUMZCSZJkLAQAAACAoIyFkiTJWAgAAAAAQRkLJUmSsRAAAAAAgjIWSpIkYyEAAAAABGUslCRJxkIAAAAACMpYKEmSjIUAAAAAEJSxUJIkGQsBAAAAIChjoSRJMhYCAAAAQFDGQkmSZCwEAAAAgKCMhZIkyVgIAAAAAEEZCyVJkrEQAAAAAIIyFkqSJGMhAAAAAARlLJQkScZCAAAAAAjKWChJkoyFAAAAABCUsVCSJBkLAQAAACAoY6EkSTIWAgAAAEBQxkJJkmQsBAAAAICgjIWSJMlYCAAAAABBGQslSZKxEAAAAACCMhZKkiRjIQAAAAAEZSyUJEnGQgAAAAAIylgoSZKMhQAAAAAQlLFQkiQZCwEAAAAgKGOhJEkyFgIAAABAUMZCSZJkLAQAAACAoIyFkiTJWAgAAAAAQRkLJUmSsRAAAAAAgjIWSpIkYyEAAAAABGUslCRJxkIAAAAACMpYKEmSjIUAAAAAEJSxUJIkGQsBAAAAIChjoSRJMhYCAAAAQFDGQkmSZCwEAAAAgKCMhZIkyVgIAAAAAEEZCyVJkrEQAAAAAIIyFkqSJGMhAAAAAARlLJQkScZCAAAAAAjKWChJkoyFAAAAABCUsVCSJBkLAQAAACAoY6EkSTIWAgAAAEBQxkJJkmQsBAAAAICgjIWSJMlYCAAAAABBGQslSZKxEAAAAACCMhZKkiRjIQAAAAAEZSyUJEnGQgAAAAAIylgoSZKMhQAAAAAQlLFQkiQZCwEAAAAgKGOhJEkyFgIAAABAUMZCSZJkLAQAAACAoIyFkiTJWAgAAAAAQRkLJUmSsRAAAAAAgjIWSpIkYyEAAAAABGUslCRJxkIAAAAACMpYKEmSjIUAAAAAEJSxUJIkGQsBAAAAIChjoSRJMhYCAAAAQFDGQkmSZCwEAAAAgKCMhZIkyVgIAAAAAEEZCyVJkrEQAAAAAIIyFkqSJGMhAAAAAARlLJQkScZCAAAAAAjKWChJkoyFAAAAABCUsVCSJBkLAQAAACAoY6EkSTIWAgAAAEBQxkJJkmQsBAAAAICgjIWSJMlYCAAAAABBGQslSZKxEAAAAACCMhZKkiRjIQAAAAAEZSyUJEnGQgAAAAAIylgoSZKMhQAAAAAQlLFQkiQZCwEAAAAgKGOhJEkyFgIAAABAUMZCSZJkLAQAAACAoIyFkiTJWAgAAAAAQRkLJUmSsRAAAAAAgjIWSpIkYyEAAAAABGUslCRJxkIAAAAACMpYKEmSjIUAAAAAEJSxUJIkGQsBAAAAIChjoSRJMhYCAAAAQFDGQkmSZCwEAAAAgKCMhZIkyVgIAAAAAEEZCyVJkrEQAAAAAIIyFkqSJGMhAAAAAARlLJQkScZCAAAAAAjKWChJkoyFAAAAABCUsVCSJBkLAQAAACAoY6EkSTIWAgAAAEBQxkJJkmQsBAAAAICgjIWSJMlYCAAAAABBGQslSZKxEAAAAACCMhZKkiRjIQAAAAAEZSyUJEnGQgAAAAAIylgoSZKMhQAAAAAQlLFQkiQZCwEAAAAgKGOhJEkyFgIAAABAUMZCSZJkLAQAAACAoIyFkiTJWAgAAAAAQRkLJUmSsRAAAAAAgjIWSpIkYyEAAAAABGUslCRJxkIAAAAACMpYKEmSjIUAAAAAEJSxUJIkGQsBAAAAIChjoSRJMhYCAAAAQFDGQkmSZCwEAAAAgKCMhZIkyVgIAAAAAEEZCyVJkrEQAAAAAIIyFkqSJGMhAAAAAARlLJQkScZCAAAAAAjKWChJkoyFAAAAABCUsVCSJBkLAQAAACAoY6EkSTIWAgAAAEBQxkJJkmQsBAAAAICgjIWSJMlYCAAAAABBGQslSZKxEAAAAACCMhZKkiRjIQAAAAAEZSyUJEnGQgAAAAAIylgoSZKMhQAAAAAQlLFQkiQZCwEAAAAgKGOhJEkyFgIAAABAUMZCSZJkLAQAAACAoIyFkiTJWAgAAAAAQRkLJUmSsRAAAAAAgjIWSpIkYyEAAAAABGUslCRJxkIAAAAACMpYKEmSjIUAAAAAEJSxUJIkGQsBAAAAIChjoSRJMhYCAAAAQFDGQkmSZCwEAAAAgKCMhZIkyVgIAAAAAEEZCyVJkrEQAAAAAIIyFkqSJGMhAAAAAARlLJQkScZCAAAAAAjKWChJkoyFAAAAABCUsVCSJBkLAQAAACAoY6EkSTIWAgAAAEBQxkJJkmQsBAAAAICgjIWSJMlYCAAAAABBGQslSZKxEAAAAACCMhZKkiRjIQAAAAAEZSyUJEnGQgAAAAAIylgoSZKMhQAAAAAQlLFQkiQZCwEAAAAgKGOhJEkyFgIAAABAUMZCSZJkLAQAAACAoIyFkiTJWAgAAAAAQRkLJUmSsRAAAAAAgjIWSpIkYyEAAAAABGUslCRJxkIAAAAACMpYKEmSjIUAAAAAEJSxUJIkGQsBAAAAIChjoSRJMhYCAAAAQFDGQkmSZCwEAAAAgKCMhZIkyVgIAAAAAEEZCyVJkrEQAAAAAIIyFkqSJGMhAAAAAARlLJQkScZCAAAAAAjKWChJkoyFAAAAABCUsVCSJBkLAQAAACAoY6EkSTIWAgAAAEBQxkJJkmQsBAAAAICgjIWSJMlYCAAAAABBGQslSZKxEAAAAACCMhZKkiRjIQAAAAAEZSyUJEnGQgAAAAAIylgoSZKMhQAAAAAQlLFQkiQZCwEAAAAgKGOhJEkyFgIAAABAUMZCSZJkLAQAAACAoIyFkiTJWAgAAAAAQRkLJUmSsRAAAAAAgjIWSpIkYyEAAAAABGUslCRJxkIAAAAACMpYKEmSjIUAAAAAEJSxUJIkGQsBAAAAIChjoSRJMhYCAAAAQFDGQkmSZCwEAAAAgKCMhZIkyVgIAAAAAEEZCyVJkrEQAAAAAIIyFkqSJGMhAAAAAARlLJQkScZCAAAAAAjKWChJkoyFAAAAABCUsVCSJBkLAQAAACAoY6EkSTIWAgAAAEBQxkJJkmQsBAAAAICgjIWSJMlYCAAAAABBGQslSZKxEAAAAACCMhZKkiRjIQAAAAAEZSyUJEnGQgAAAAAIylgoSZKMhQAAAAAQlLFQkiQZCwEAAAAgKGOhJEkyFgIAAABAUMZCSZJkLAQAAACAoIyFkiTJWAgAAAAAQRkLJUmSsRAAAAAAgjIWSpIkYyEAAAAABGUslCRJxkIAAAAACMpYKEmSjIUAAAAAEJSxUJIkGQsBAAAAIChjoSRJMhYCAAAAQFDGQkmSZCwEAAAAgKCMhZIkyVgIAAAAAEEZCyVJkrEQAAAAAIIyFkqSJGMhAAAAAARlLJQkScZCAAAAAAjKWChJkoyFAAAAABCUsVCSJBkLAQAAACAoY6EkSTIWAgAAAEBQxkJJkmQsBAAAAICgjIWSJMlYCAAAAABBGQslSZKxEAAAAACCMhZKkiRjIQAAAAAEZSyUJEnGQgAAAAAIylgoSZKMhQAAAAAQlLFQkiQZCwEAAAAgKGOhJEkyFgIAAABAUMZCSZJkLAQAAACAoIyFkiTJWAgAAAAAQRkLJUmSsRAAAAAAgjIWSpIkYyEAAAAABGUslCRJxkIAAAAACMpYKEmSjIUAAAAAEJSxUJIkGQsBAAAAIChjoSRJMhYCAAAAQFDGQkmSZCwEAAAAgKCMhZIkyVgIAAAAAEEZCyVJkrEQAAAAAIIyFkqSJGMhAAAAAARlLJQkScZCAAAAAAjKWChJkoyFAAAAABCUsVCSJBkLAQAAACAoY6EkSTIWAgAAAEBQxkJJkmQsBAAAAICgjIWSJMlYCAAAAABBGQslSZKxEAAAAACCMhZKkiRjIQAAAAAEZSyUJEnGQgAAAAAIylgoSZKMhQAAAAAQlLFQkiQZCwEAAAAgKGOhJEkyFgIAAABAUMZCSZJkLAQAAACAoIyFkiTJWAgAAAAAQRkLJUmSsRAAAAAAgjIWSpIkYyEAAAAABGUslCRJxkIAAAAACMpYKEmSjIUAAAAAEFSdzS+puf1izeP1/d/DLiAlSZKxEAAAAACCGCabe2pqF/ZeWFL7/ZrbpktISZJkLAQAAACAQIbpYm9J7TtKbq+oqX2s5nbIZaQkSTIWAgAAAEAgQx731dSe0vu5mseNmttRl5KSJMlYCAAAAACB1Fk7p87mqzWPv1Fzu8fFpCRJMhYCAAAAQCDDZHN3zeN5ZTZ/VsnjNS4nJUmSsRAAAAAAghmmi9NKHh/XO1hTW7iklCRJxkIAAAAACGTI47H21tQu6r2p5vF2l5WSJMlYCAAAAACB1NR2lenijDLduKykdlXN7ahLS0mSZCwEAAAAgGCGWdtX0vjiksdra26HDIeSJMlYCAAAAADBHFzdeGydzX++pnZdze0uo6EkSTIWAgAAAEAwNY9P7b2j5taOf9PQhaYkSTIWAgAAAEAUw3Sxr6T2/Jrb1b2v9u5xqSlJkoyFAAAAABDIkMcLjl3k1dz+e2+zd8TlpiRJMhYCAAAAQCB11p5SU/s3NbdP9b7uglOSJBkLAQAAACCQYbJ5Rk3t2TW33+990U+TSpIkYyEAAAAABDNMF2eXNJaa2/t6X+kddeEpSZKMhQAAAAAQyJDHi2tqP3P8fYZ3ufSUJEnGQgAAAAAIpqaWe2/q/bmLT0mSZCwEAAAAgGCGS286s8zaC2pu7+htuACVJEnGQgAAAAAIZJgudg2z+WNKHl9VU3t/ze02F6GSJMlYCAAAAACBHFzdOP3gbP7Umtrram7/s3fIhagkSTIWAgAAAEAgNY/7es+sqV1Rc/u8S1FJkmQsBAAAAIBAhsnm7rK68eiS2gtKbr9Tc/uyy1FJkmQsBAAAAIBAhlk7vaTx4prawd6Ham53uCSVJMlY6JQEAAAAAIHUWdtXV+eX1tR+tubxf9Xc7nFZKkmSsRAAAAAACOLYT5PW1M7pzUoa31Jzu8GFqSRJxkIAAAAAIJBhuthT0nh+yeMP1tT+0E+TSpJkLAQAAAAAghnyuLem9pjeUPP4uZrbEReokiQZCwEAAACAQOqsPaRMFxeXWbui5vY1l6iSJBkLAQAAAIBAhsnmrnJsNFzdWCl5vLrmdthlqiRJxkIAAAAAIJBhuthV8rhnyOMzampfMBpKkmQsBAAAAAACqqmd1vvJmsdWc7vb5aokScZCAAAAACCQb/w86dO+8viS2m/X3G40GkqSZCwEAAAAAIIZjr3PMI3PLHl8f83tq36eVJIkYyEAAAAAEMzB1Y2z62x+sKb20ZrbZu+IS1dJkoyFAAAAAEAQw2TztDqbr9Q8/lLN7VO921y8SpJkLAQAAAAAAhmmizPLbP69Jbe319yu7x1yAStJkrEQAAAAAAhkyON5NbWX9q46dgHpp0klSTIWAgAAAADB1Fm7uKb2MzW3D/ducRkrSZKxEAAAAAAIZJhs7q2pXVZzu6L3yd7XXcpKkmQsBAAAAAACGaaLfSWNz6m5va03+mlSSZKMhQAAAABAMEMeH1tTqzW39xz/adKjLmklSTIWAgAAAACB1NS+q/fa3od9y1CSJGMhAAAAABDMsfcZlllbPf4+w+tc1kqSZCwEAAAAAIIZZu2RJY8/WNP87TW3TZe2kiQZCwEAAACAQA6ubuzuXVRTe0nN4x/V3L7u8laSJGMhAAAAABBIzePpvUlJ7adqbp90gStJkrEQAAAAAAhkmC52ldn8ESW3XPL4azW3L7nIlSTJWAgAAAAABDLk8bSSx0fX1L6/d2XN7VYXupIkGQsBAAAAgEDqrO2tqxuPr6m9rOb2MZe6kiQZCwEAAACAQIbJ5q46m59R0vyJJbXX+2lSSZKMhQAAAABAMN94n2FqZ5Y8XlZT+92a2y0ueSVJMhYCAAAAAIEMedxVU9vb+4c1jx+vud3jsleSJGMhAAAAABDMMNl8aJm1f1xzu85oKEmSsRAAAAAACGiYLs4veXxzzW3DaChJkrEQAAAAAAhoyOOkpnZ1ze3G3hGXwJIkGQsBAAAAgGBqHl9+/H2Gt7gIliTJWAgAAAAABDNcduPZJbV/VXP7bO92F8KSJBkLAQAAAIBAhlnbM6Q2KXn8zZrbdb1DLoYlSTIWAgAAAACB1Fl7aO/FNbWram5j77ALYkmSjIUAAAAAQBDDZHN3Wd24sObxn/b+uOZ2s0tiSZKx0FgIAAAAAAQyTBd7y6xdWvJ4Rc3tmt4dLoslScZCAAAAAIBAhjw+vKT2fTW1t9TcPu+nSSVJxkIAAAAAgGDqrJ1fU3tpzW29t+HiWJJkLAQAAAAACGSYbJ5WU3tize3VvT/p3e4CWZJkLAQAAAAACGSYLs74v+3d6dOtWVnf8TM33aehG9puEGhQhEZEZIM97OdeCxSiBgsUg4o43+s6RBSHJIpGLce0WgkIUSxnlBiFVMAkqHHCEkFQrICgiNqQRqDXtZ99etDdAz1xhsp9OucfSMpKadbnU/Wt57zuF/3i+tW+V6u9tJo/EDXfv3TKIVmSZCwEAAAAABjIXPtDo+Rzoj7wnuF26ayDsiTJWAgAAAAAMJAo+ZilL20lfyNq3ueoLEkyFgIAAAAADOTce4at5JOXXtpq/1O/MpQkGQsBAAAAAAYzT3lxq/3pUTbfHyVvcWCWJBkLAQAAAAAGc2Jv/2FRci9qf/3S3Q7NkiRjIQAAAADAQKL2g0tXtpIvXHqrY7MkyVgIAAAAADCQeb09MO/tX9BKPr7V/rKlGxydJUnGQgAAAACAgcy1H1y6KEo+ZelnovZ7HJ8lScZCAAAAAICBxJSH2nUnHxzT5p9Ezd92gJYkGQsBAAAAAAYyr3YHYtocnPf2L2kl56j5vqXTjtGSJGMhAAAAAMBg5tqvjJIvj5r7S6ccpSVJxkIAAAAAgMFEyXXU/oaoebPRUJJkLAQAAAAAGMy82j2o7W2+JGr+wdJu6YwjtSTJWAgAAAAAMJB5vX1Yq/07o+Z7lj62dNaxWpJkLAQAAAAAGMiJvf2nRsmfjpofWLrfwVqSZCwEAAAAABhM1P78pf8cNW9ytJYkGQsBAAAAAAYzr3YXtZIviZp/uHSb47UkyVgIAAAAADCYufYnt9p/IGr+j6W7HbElScZCAAAAAICBxJRHlp4dJX8qav6VQ7YkyVgIAAAAADCQebU72K47eVnU/mVR841L+w7akiRjIQAAAADAQOb19nCb8nGt9G+Jmr+zdLvDtiTJWAgAAAAAMJC59gtbyauj5Pecf8/wlAO3JMlYCAAAAAAwkJjykij5eUs/ETU/7MgtSTIWAgAAAAAMZF7tDre9zaNbyRdGzTcs7Ry7JUnGQgAAAACAgczr7dFW+6cufV3UfPvSfY7ekiRjIQAAAADAQObaj0fJVdT84aj9b5a/px2/JUnGQgAAAACAgUTtV8S0eUYr+QtR83YHcEmSsRAAAAAAYCDzaneolXzk0he12n8vat7vEC5JMhYCAAAAAAxknvJYq/3RJ6bNi6PkjVHzrIO4JMlYCAAAAAAwkBN7+xe2605+atT+yqW7HMUlScZCAAAAAICBzKvdwaj9eJs217WSb3IYlyQZCwEAAAAABjKvtwfmvf1DrebFrfaviJIfcCCXJBkLAQAAAAAGFFNeGiW/O2q/NWqeciyXJGMhAAAAAAADmVe7w21v/0lR+89GzduXTjuaS5KxEAAAAACAgczr7YWt5PNa7W+NmrulM47nkmQsBAAAAABgIHPtl7eS3xIl3xs171w664guScZCAAAAAAAGEiU/LWp/VdT8q6V7HNIlyVgIAAAAAMBA5tXuWNvbPCtK/krUvGnp4w7qkmQsBAAAAABgIPOUn9BqPxE1f3PpFu8ZSpKxEAAAAACAwZzY2398lPzuqPlHS3d5z1CSjIUAAAAAAAwman/G0o9HzfctnXJklyRjIQAAAAAAA5nX20tayX8WNV+39FGHdkkyFgIAAAAAMJi59se22uP8e4b3ObhLkrEQAAAAAIDBxJSrKPlvzr9n6PAuScZCAAAAAABGMa92B9o1txyP2p8VJX8sat7o+C5JxkIAAAAAAAYyr7cH27S5opX+pVHzl5ZudYSXJGMhAAAAAAADmWs/2kp+SpR8cdR8y9L9jvGSZCwEAAAAAGAgUfKipauXvmvpfQ7ykmQsBAAAAABgIPNqd7Ct9x/aSj6z1Xx11DzpMC9JxkIAAAAAAAYyr7eHW8lHRMkXLP33qHm3A70kGQsBAAAAABjIib39C6LkY6L2ly79edQ85VAvScZCAAAAAAAGErUfj739q1rJHzp3qHaslyRjIQAAAAAAA3ngPcNpc3EreW2r/fVR8y5He0kyFgIAAAAAMJB5ykOt9otiyhdGyff4NKkkGQsBAAAAABhMTHlw/szbHhq1f+tSj5qnHfElyVgIAAAAAMBg5vX2Ua30/3D+06RGQ0kyFgIAAAAAMJK59nN9VpR8S9S8femso74kGQsBAAAAABhITHlBlIyo/f1R806HfUkyFgIAAAAAMJB5tTvUrjv52Fby30XNG5fuceCXJGMhAAAAAAADmdfbo63kutX++qj54aVTDv2SZCwEAAAAAGAgc+0PaSVfGCV/K2ruL51x8JckYyEAAAAAAAOJklcuvSxqvn3pdkd/STIWAgAAAAAwkHm1O9KmzTVR81VLf+49Q0kyFgIAAAAAMJh5ykta7c+Lmq9Z+pD3DCXJWAgAAAAAwGBO7O0/MqbNi6Pmry3d6j1DSTIWAgAAAAAwkHm1Oxolnxq1f0fUfKtPk0qSsRAAAAAAgMHM6+3xVvIZrebLo+b/XDptGJAkYyEAAAAAAAOZa78iSj5/6TVR+x3GAUkyFgIAAAAAMJiY8pOjZDv/nqGRQJKMhQAAAAAAjOSB9wxr//Qo+a1R888MBZKMhcZCAAAAAAAGMq+3B+a9/Ytb6fWB9wxL/q3BQJKxEAAAAAAABjLXfqj97/cMnxs13xi132s4kGQsBAAAAACAgUTJozFtPrlNm69a/v0O44EkYyEAAAAAAAxkXu0OtvX+ha3kk1vN74uaHzEiSDIWAgAAAADAQOYpD7XSHxzTZh0lXxs17zAmSDIWAgAAAADAQE7s7R+OaXNx1P6FS2+LmvcbFSQZCwEAAAAAYCBR++F27c2XtmnzDVHzRsOCJGMhAAAAAAAMaK79qlb7q6LmZum0kUGSsRAAAAAAAAYTUz4zSr4pat62dMbYIMlYCAAAAAAAA5lXu4ui9q+Mmu9dunPprNFBkrEQAAAAAAAGMq+3V7TSr4+aNyzdY3iQZCwEAAAAAIDBzLV/RpR8bdS8yXuGkoyFAAAAAAAwmCh5rhdF7W+OmvtGCEnGQgAAAAAAGMi82h2Yr7nlsjblv4ya71i63RghyVgIAAAAAAADmdfbw23aPLHV/qNR891L9xklJBkLAQAAAABgIHPtD2olnxUlfzFqfmjplHFCkrEQAAAAAAAGErVfsRRR841LJw0UkoyFAAAAAAAwkHm1O9z29q9qJV8WNX9/6Q5DhSRjIQAAAAAADGSe8qJW+zpq/kiUfN/y936DhSRjIQAAAAAADCSmvCKmzfOj5M9FzY8snTZcSDIWAgAAAADAIObV7kiU/OSlr1769ah5p/FCkrEQAAAAAAAGMq+3F7TSn9pqfmuUfJdPk0oyFgIAAAAAwGDm2i+JktctXR+170fNs8YMScZCAAAAAAAYSEx5eUybz4v6wHuGfmUoyVgIAAAAAAAjmVe7w1H7o1rZfFGr/U+NGpKMhQAAAAAAMJh5vT3Wan9Cq/nNUfJm44YkYyEAAAAAAAxkrv1cx6Pkpy/9ZNR+t5FDkrEQAAAAAAAGEiUPxrS5tO3tf3Yr+RZDhyRjIQAAAAAADGRe7Q609fZwK3lFKz1a7X9t8JBkLAQAAAAAgIHMUx5opR86sbd/ZUyb68+/Z3jG+CHJWAgAAAAAAIOJ2ldL/ylq/u3SaSOIJGMhAAAAAAAMZF5vH9ymzZdEzT9YutNoKMlYCAAAAAAAg5lrv7LV/u1R80+X7l46axSRZCwEAAAAAICBxJTnPk36mqh549L9hhFJxkIAAAAAABjIvNo9KEo+J2q+aWnj06SSjIUAAAAAADCYeb19aCv9G6Lm7y/d4dOkkoyFAAAAAAAwmLn2x0fJl0fNdy/dZyyRjIX+zwgAAAAAAIOJks+K2n8+at5gMJGMhQAAAAAAwGDm1e7CNuWXR803LN1sOJGMhQAAAAAAwEDm9fbgvLf/ia32b4uSvxc1P2ZAkYyFAAAAAADAQE7s7R89MW2uiZLXR833Ln3ckCIZCwEAAAAAgIFE7Q9eem6U/PGo+SFjimQsBAAAAAAABjKvdofaA58mza9Z+i9R8xajimQsBAAAAAAABjLX/qBW+5Oj5jdHyT9c/t5jXJGMhQAAAAAAwEBiyofEtJmi5A9GzQ8YWCRjIQAAAAAAMJBznyaNklcs/dNW8hej5q2GFslYCAAAAAAADGReb4+00h/Tan9RlPzdqHm3wUUyFgIAAAAAAAOZa78wSj5u6aVR+w1R84zhRTIWAgAAAAAAA4kpL469/ae0KV8VNe8wvkjGQgAAAAAAYCDn3jNsU17Sps21rfZznyY9ZYSRjIUAAAAAAMBA5vX2UKv9kqXnRcmPGGIkYyEAAAAAADCYufZDUfJ41P6jS3caZCRjIQAAAAAAMJh5tTvYrr35ylby9VHz3qUzxhnJWAgAAAAAAAxknvLYXPJzW+1viZp3GQ0lYyEAAAAAADCYE3v7l8a0+foo+b6o+bGls8YayVgIAAAAAAAMYl7tjsTe/pOj9lcufTBq3mOwkYyFAAAAAADAQOb19sI2bZ4VNV+3tFn6uOFGMhYCAAAAAAADmWu/PEq+eOnNUfNWnyaVjIUAAAAAAMBgYsrHR+k/EDX/ZOlOI45kLAQAAAAAAAYyr3bHouQ6ar566QNL9xtzJGMhAAAAAAAwkHm9fXCr/UXn3zPcXzpj1JGMhQAAAAAAwEDm2h8VJb8pav720h3eM5SMhQAAAAAAwGCi5NOWvnfpj/zKUDIWAgAAAAAAg5lXuwvalM+Kmj++9BEjj2QsBAAAAAAABjNP+QkPvGdY8lei5u3GHslYCAAAAAAADOTE3v7BpSdEyX8eNd+ydJ/RRzIWAgAAAAAAA4najy2tH3jPsOafG34kYyEAAAAAADCQeb091KbNZa3k57aaPxU1bzIAScZCAAAAAABgIHPtR1rtj46SL1j6b1HzTkOQZCwEAAAAAAAGElNeEHubq6Lk10fNdxmDJGMhAAAAAAAwkHm1OxjT5uJWcrX0wz5NKhkLAQAAAACAwTzwnmHJS1rtz4ySr4uatxuHJGMhAAAAAAAwkHPvGUbJS5deFLW/O2qeMhJJxkIAAAAAAGAgUfJIu+7kw9uU3x419w1FkrEQAAAAAAAYyLzaHWhTHpr3to9utb82at6xdNZoJGMhAAAAAADAYE7s7X9WlPzDqPkxo6GMhQAAAAAAAAOK2l+69FdR824DkoyFAAAAAAAAg5mf9neXtJKvjJo3Ld1rSJKxEAAAAAAAYCDzufcMSz691f66qLlZ+rhBScZCAAAAAACAgcSUFy19VZR8c9Q8uXTGsCRjIQAAAAAAwCDm1e5QW28fE7V/+9IfR807jEsyFgIAAAAAAAxkXm+PtSmvbqW/Omq+33uGMhYCAAAAAAAMZq79Ia3kF0TJX4qaH146bWySsRAAAAAAAGAgMeUnRsmvW/rNqHmbwUnGQgAAAAAAgIHMq92Rtrf5jCj53VHznUt3G55kLAQAAAAAABjIvN5e2Gp/dqv5iqh5w9IpA5SMhQAAAAAAAAOZa78sSr4gar526eTSWUOUjIUAAAAAAAADiZKfstSWfidq3meMkrEQAAAAAABgIPNqd7SV/Myl72i1/1nUPGOUkrEQAAAAAABgIPOUD2m1PyPK5t9GyVsMUzIWAgAAAAAADObE3v7DY9p8UdT+q0v3GKhkLAQAAAAAABjI/Jm3HY3an9BKtqV3GKlkLAQAAAAAABjIvN4enPf2L2oln9Jq/96lDxqrZCwEAAAAAAAYyFz7oaVLouR1S78Ytd9rtJKxEAAAAAAAYCAx5eHY2788yuYLouabDVcyFgIAAAAAAAxkXu0OxLQ50qbNI1vJl0bNGwxYMhYCAAAAAAAMZF5vD7Qpj8y1PyFK/mTUvMOQJWMhAAAAAADAgKLkFLX/RtS8a+mMUUvGQgAAAAAAgIHMq92FbW/zoqj5rqV7ls4at2QsBAAAAAAAGMg85aNb7ddHzQ8s3Ws0lLEQAAAAAABgMCf29p8eJf9j1Lxp6eOGLhkLAQAAAAAABhO1f+nSb0XNk35lKGMhAAAAAADAYObV7ngr+S+i5ruXbjd6yVgIAAAAAAAwmLn2p7TaXxE1/+L8e4YGMBkLAQAAAAAARhFTHl56TpT8pah5owFMxkIAAAAAAICBzKvdwXbdycui9q+NmufeM7zZECZjIQAAAAAAwEDm9fZwmzZPaKV/Z9R829KdBjEZCwEAAAAAAAYy135hKzlFyZdHzfcvnTKMyVgIAAAAAAAwkCh52dIXL/1C1PyocUzGQgAAAAAAgIHMq93htrf5pFZyjpq/vnS7kUzGQgAAAAAAgIHM6+2xVvKprea/iprvXLrfWGYsNBYCAAAAAAAMZK79wXHuPcOar4zaP7z8PW00MxYCAAAAAAAwkKj9kVHy81vJX46adxjOjIUAAAAAAAAM5IH3DEs+bukrW+1v8WlSYyEAAAAAAACDmae8sNX+xCj5XUt/EzXPGtKMhQAAAAAAAAwkprw01vtXR+0/sXSnMc1YCAAAAAAAwEDm1e5Q1P6wNm2e3Up/m0HNWAgAAAAAAMBg5vX+kVb6w1vtJ6LkjYY1YyEAAAAAAAADmWs/0Go/GiUfvfTDUfvHDGzGQgAAAAAAAAYSUx5o19xyLPb2PyNq/+WoeWrprLHNWAgAAAAAAMBA5vX2wlby+a32d0XNe42GxkIAAAAAAAAGM9d+eSv5sij5QaOhsRAAAAAAAIABRcknR+0/HTU/unS/Ac5YCAAAAAAAwEDm1e5YmzbPi5q/sXTz+TcNjXHGQgAAAAAAAEYxT3l5q/2lUfOtS3+3dMYgZywEAAAAAABgICf29p8YJX8oar5n6W7vGRoLAQAAAAAAGEzU/uyl10TNG3ya1FgIAAAAAADAYOb19tJW8suj5puWNn5laCwEAAAAAABgMHPtj2u1f1PU/P2l+w11xkIAAAAAAAAGE1NeHSX/fdR8l7HOWAgAAAAAAMBA5tXuQLv61uNR++dHzZ9f+rDRzlgIAAAAAADAQOb19uC8t3lEK/1ro+avLt1lvDMWAgAAAAAAMJC59qOt9k+Lki+Lmm/3nqGxEAAAAAAAgMFEyeNLz1i6fukvDXnGQgAAAAAAAAYyr3aH2nr/8lbyOa3mz0XNmw16xkIAAAAAAAAGMq+3R1rJx0TJr176nah5t2HPWAgAAAAAAMBATuztXxQlnxg1vy1q/4vl7ykDn7EQAAAAAACAgUTtl8S0eVor+YqoedLIZywEAAAAAABgIA+8ZzhtHtZqPrfV/l+j5l3GPmMhAAAAAAAAA5lrP9Zq/4Qo+bVL7/VpUmMhAAAAAAAAg4kpj7Vrb74yav8evzI0FgIAAAAAADCYebU7GLUfbXv7V7XS3xg1zxoAjYUAAAAAAAAMaK79s6Pku6Lm/YZDYyEAAAAAAACDOfd50qWXRO0fjZr3GgSNhQAAAAAAAAxkXu0OtWtPPraVfPW5Qez8Lw2Ng8ZCAAAAAAAARjGvt0dbyanV/mvnR8PTBkJjIQAAAAAAAAOZa39IK/mVUfLtUfPvls4YCo2FAAAAAAAADCRq/5Sl66Pmu5fuMhYaCwEAAAAAABjIvNodbdNmL2r+zNINS/caCwEAAAAAAGAg85SXttq/OGq+fummpVPGQgAAAAAAABjIib39K2PafFPUfPPS3y6dNRYCAAAAAADAIObV7liUvDpq/8Go+c6BPk1qLAQAAAAAAIBz5vX24lbyc6LmTy79zdJpYyEAAAAAAAAMZK79E6PkVyy9LmreYSwEAAAAAACAwcSUV0XJb4mav20sBAAAAAAAgME88J5h7U+Pkt8fNT9kLAQAAAAAAICBzOvtgXlv/yGt9udGzZ9Y2hkLAQAAAAAAYCBz7Yda7Y+Kkl8WNX9t6V5jIQAAAAAAAAwkSh5delJM+ZLl7zuNhQAAAAAAADCQebU72Nbbi1vJa1rNH4maHzUWAgAAAAAAwEDmKQ+30i+Lks9e+pWoeaexEAAAAAAAAAZyYm//aEyby6P2L1t6R9S831gIAAAAAAAAA4naj7Vp87hW8l9HzQ8ZCwEAAAAAAGAg83p7sJW8YK796a32n42atxkLAQAAAAAAYCBz7Qdb7Ydjys+J2v84at63dNZYCAAAAAAAAAOZV7vjUfscNT94/j3Ds8ZCAAAAAAAAGMi83j68lf6KqNnPj4bGQgAAAAAAABjJXPvTouQboubNS2eMhQAAAAAAADCYKPlVUfufRM3bjIUAAAAAAAAwkHm1OzBffetlbcrvjJp/tnSXsRAAAAAAAAAGMq+3h9u0eVKr/Wei5g3/j94zNBYCAAAAAADAPxQn9vaPn5g2X3j+PcOblk4bCwEAAAAAAGAgUfvDl74xav7m0q3GQgAAAAAAABjIvNodbnv7T2olvy9q/tHSncZCAAAAAAAAGMg85fFW+zOj5o8t/fXf43uGxkIAAAAAAAD4xyCmfERMmxdFyV+Omn3pjLEQAAAAAAAABjGvdkei5FVR+0ui5u8u3WUsBAAAAAAAgIHM6+2DWunXtprfEzXf+3/5aVJjIQAAAAAAAPxjNdf+0Cj57KVXRu3bqHnWWAgAAAAAAAADiSkfGSVf0Eq+8f/gV4bGQgAAAAAAAPj/wbn3DNuUV0XZfE2r/T3GQgAAAAAAABjMvN5e0Gp/aqv5HVHyFmMhAAAAAAAADGSu/VyXRMl11Pz5qP1uYyEAAAAAAAAMJEoeimnziDZtnttKvs1YCAAAAAAAAAOZV7sD7bqTR1vJT1r6xlb7B4yFAAAAAAAAMJB5yoOt9Ati2nzq0o9Gyb80FgIAAAAAAMBATuztH2zX3HI81tvV8u+n+S8CAPAP3/8CrWvaJnHDHaAAAAAldEVYdGRhdGU6Y3JlYXRlADIwMjItMTAtMjlUMTU6Mzk6NDMrMDA6MDAemQHkAAAAJXRFWHRkYXRlOm1vZGlmeQAyMDIyLTEwLTI5VDE1OjM5OjQzKzAwOjAwb8S5WAAAAABJRU5ErkJggg==;" vertex="1" parent="1">
          <mxGeometry x="900" y="490" width="35.23" height="40" as="geometry" />
        </mxCell>
        <mxCell id="sY0r-H6f3rgbmZUliDn9-38" value="&lt;font style=&quot;font-size: 14px;&quot;&gt;Terraform build infrastructure&lt;/font&gt;" style="text;html=1;align=center;verticalAlign=middle;whiteSpace=wrap;rounded=0;" vertex="1" parent="1">
          <mxGeometry x="770" y="410" width="150" height="70" as="geometry" />
        </mxCell>
        <mxCell id="sY0r-H6f3rgbmZUliDn9-39" value="&lt;font style=&quot;font-size: 14px;&quot;&gt;Push Docker image&lt;/font&gt;" style="text;html=1;align=center;verticalAlign=middle;whiteSpace=wrap;rounded=0;" vertex="1" parent="1">
          <mxGeometry x="940" y="350" width="110" height="30" as="geometry" />
        </mxCell>
        <mxCell id="sY0r-H6f3rgbmZUliDn9-40" value="&lt;font style=&quot;font-size: 14px;&quot;&gt;MySQL&lt;/font&gt;" style="text;html=1;align=center;verticalAlign=middle;whiteSpace=wrap;rounded=0;" vertex="1" parent="1">
          <mxGeometry x="610" y="335" width="60" height="30" as="geometry" />
        </mxCell>
      </root>
    </mxGraphModel>
  </diagram>
</mxfile>
